Amiamie-Italic.ufo
<glyph name="exclam" format="2">
	<advance width="252"/>
	<unicode hex="0021"/>
	<note>
		exclam
	</note>
	<outline>
		<contour>
			<point x="63" y="188" type="line"/>
			<point x="156" y="188" type="line"/>
			<point x="274" y="690" type="line"/>
			<point x="157" y="690" type="line"/>
		</contour>
		<contour>
			<point x="51" y="132" type="line"/>
			<point x="20" y="-14" type="line"/>
			<point x="113" y="-14" type="line"/>
			<point x="144" y="132" type="line"/>
		</contour>
	</outline>
</glyph>
<glyph name="quotedbl" format="2">
	<advance width="357"/>
	<unicode hex="0022"/>
	<note>
		quotedbl
	</note>
	<outline>
		<contour>
			<point x="127" y="474" type="line"/>
			<point x="209" y="474" type="line"/>
			<point x="277" y="735" type="line"/>
			<point x="172" y="735" type="line"/>
		</contour>
		<contour>
			<point x="280" y="474" type="line"/>
			<point x="362" y="474" type="line"/>
			<point x="429" y="735" type="line"/>
			<point x="324" y="735" type="line"/>
		</contour>
	</outline>
</glyph>
<glyph name="numbersign" format="2">
	<advance width="601"/>
	<unicode hex="0023"/>
	<note>
		numbersign
	</note>
	<outline>
		<contour>
			<point x="404" y="281" type="line"/>
			<point x="459" y="410" type="line"/>
			<point x="561" y="410" type="line"/>
			<point x="575" y="476" type="line"/>
			<point x="487" y="476" type="line"/>
			<point x="578" y="690" type="line"/>
			<point x="509" y="690" type="line"/>
			<point x="418" y="476" type="line"/>
			<point x="328" y="476" type="line"/>
			<point x="419" y="690" type="line"/>
			<point x="350" y="690" type="line"/>
			<point x="259" y="476" type="line"/>
			<point x="145" y="476" type="line"/>
			<point x="131" y="410" type="line"/>
			<point x="231" y="410" type="line"/>
			<point x="176" y="281" type="line"/>
			<point x="73" y="281" type="line"/>
			<point x="59" y="215" type="line"/>
			<point x="148" y="215" type="line"/>
			<point x="57" y="0" type="line"/>
			<point x="126" y="0" type="line"/>
			<point x="217" y="215" type="line"/>
			<point x="307" y="215" type="line"/>
			<point x="216" y="0" type="line"/>
			<point x="285" y="0" type="line"/>
			<point x="376" y="215" type="line"/>
			<point x="489" y="215" type="line"/>
			<point x="503" y="281" type="line"/>
		</contour>
		<contour>
			<point x="300" y="410" type="line"/>
			<point x="390" y="410" type="line"/>
			<point x="335" y="281" type="line"/>
			<point x="245" y="281" type="line"/>
		</contour>
	</outline>
</glyph>
<glyph name="quotesingle" format="2">
	<advance width="187"/>
	<unicode hex="0027"/>
	<note>
		quotesingle
	</note>
	<outline>
		<contour>
			<point x="95" y="474" type="line"/>
			<point x="177" y="474" type="line"/>
			<point x="245" y="735" type="line"/>
			<point x="140" y="735" type="line"/>
		</contour>
	</outline>
</glyph>
<glyph name="plus" format="2">
	<advance width="601"/>
	<unicode hex="002B"/>
	<note>
		plus
	</note>
	<outline>
		<contour>
			<point x="339" y="284" type="line"/>
			<point x="518" y="284" type="line"/>
			<point x="532" y="348" type="line"/>
			<point x="353" y="348" type="line"/>
			<point x="396" y="551" type="line"/>
			<point x="327" y="551" type="line"/>
			<point x="284" y="348" type="line"/>
			<point x="105" y="348" type="line"/>
			<point x="91" y="284" type="line"/>
			<point x="270" y="284" type="line"/>
			<point x="227" y="83" type="line"/>
			<point x="296" y="83" type="line"/>
		</contour>
	</outline>
</glyph>
<glyph name="comma" format="2">
	<advance width="232"/>
	<unicode hex="002C"/>
	<note>
		comma
	</note>
	<outline>
		<contour>
			<point x="-16" y="-121" type="line"/>
			<point x="127" y="108" type="line"/>
			<point x="129" y="118" type="line"/>
			<point x="18" y="118" type="line"/>
			<point x="-112" y="-121" type="line"/>
		</contour>
	</outline>
</glyph>
<glyph name="hyphen" format="2">
	<advance width="284"/>
	<unicode hex="002D"/>
	<note>
		hyphen
	</note>
	<outline>
		<contour>
			<point x="29" y="250" type="line"/>
			<point x="249" y="250" type="line"/>
			<point x="263" y="316" type="line"/>
			<point x="43" y="316" type="line"/>
		</contour>
	</outline>
</glyph>
<glyph name="period" format="2">
	<advance width="232"/>
	<unicode hex="002E"/>
	<note>
		period
	</note>
	<outline>
		<contour>
			<point x="10" y="132" type="line"/>
			<point x="-21" y="-14" type="line"/>
			<point x="126" y="-14" type="line"/>
			<point x="157" y="132" type="line"/>
		</contour>
	</outline>
</glyph>
<glyph name="two" format="2">
	<advance width="601"/>
	<unicode hex="0032"/>
	<note>
		two
	</note>
	<outline>
		<contour>
			<point x="503" y="88" type="line"/>
			<point x="186" y="88" type="line"/>
			<point x="370" y="238" type="line" smooth="yes"/>
			<point x="516" y="356"/>
			<point x="578" y="420"/>
			<point x="597" y="511" type="curve" smooth="yes"/>
			<point x="620" y="620"/>
			<point x="565" y="705"/>
			<point x="419" y="705" type="curve" smooth="yes"/>
			<point x="273" y="705"/>
			<point x="167" y="626"/>
			<point x="122" y="480" type="curve" smooth="yes"/>
			<point x="119" y="470" type="line"/>
			<point x="229" y="470" type="line"/>
			<point x="232" y="480" type="line" smooth="yes"/>
			<point x="260" y="571"/>
			<point x="310" y="621"/>
			<point x="389" y="621" type="curve" smooth="yes"/>
			<point x="464" y="621"/>
			<point x="490" y="568"/>
			<point x="476" y="501" type="curve" smooth="yes"/>
			<point x="462" y="435"/>
			<point x="414" y="385"/>
			<point x="308" y="299" type="curve" smooth="yes"/>
			<point x="16" y="56" type="line"/>
			<point x="4" y="0" type="line"/>
			<point x="485" y="0" type="line"/>
		</contour>
	</outline>
</glyph>
<glyph name="five" format="2">
	<advance width="601"/>
	<unicode hex="0035"/>
	<note>
		five
	</note>
	<outline>
		<contour>
			<point x="366" y="459" type="curve" smooth="yes"/>
			<point x="325" y="459"/>
			<point x="288" y="450"/>
			<point x="252" y="431" type="curve"/>
			<point x="203" y="384" type="line"/>
			<point x="278" y="603" type="line"/>
			<point x="598" y="603" type="line"/>
			<point x="616" y="690" type="line"/>
			<point x="207" y="690" type="line"/>
			<point x="72" y="286" type="line"/>
			<point x="175" y="286" type="line"/>
			<point x="219" y="350"/>
			<point x="265" y="375"/>
			<point x="324" y="375" type="curve" smooth="yes"/>
			<point x="409" y="375"/>
			<point x="446" y="314"/>
			<point x="427" y="221" type="curve" smooth="yes"/>
			<point x="407" y="127"/>
			<point x="342" y="70"/>
			<point x="257" y="70" type="curve" smooth="yes"/>
			<point x="180" y="70"/>
			<point x="150" y="115"/>
			<point x="151" y="186" type="curve"/>
			<point x="152" y="196" type="line"/>
			<point x="42" y="196" type="line"/>
			<point x="41" y="186" type="line" smooth="yes"/>
			<point x="27" y="52"/>
			<point x="97" y="-14"/>
			<point x="242" y="-14" type="curve" smooth="yes"/>
			<point x="374" y="-14"/>
			<point x="514" y="72"/>
			<point x="547" y="226" type="curve" smooth="yes"/>
			<point x="576" y="362"/>
			<point x="516" y="459"/>
		</contour>
	</outline>
</glyph>
<glyph name="colon" format="2">
	<advance width="232"/>
	<unicode hex="003A"/>
	<note>
		colon
	</note>
	<outline>
		<contour>
			<point x="98" y="545" type="line"/>
			<point x="66" y="399" type="line"/>
			<point x="213" y="399" type="line"/>
			<point x="245" y="545" type="line"/>
		</contour>
		<contour>
			<point x="10" y="134" type="line"/>
			<point x="-21" y="-12" type="line"/>
			<point x="126" y="-12" type="line"/>
			<point x="157" y="134" type="line"/>
		</contour>
	</outline>
</glyph>
<glyph name="less" format="2">
	<advance width="601"/>
	<unicode hex="003C"/>
	<note>
		less
	</note>
	<outline>
		<contour>
			<point x="175" y="266" type="line"/>
			<point x="556" y="422" type="line"/>
			<point x="574" y="503" type="line"/>
			<point x="113" y="308" type="line"/>
			<point x="95" y="223" type="line"/>
			<point x="473" y="28" type="line"/>
			<point x="490" y="110" type="line"/>
		</contour>
	</outline>
</glyph>
<glyph name="equal" format="2">
	<advance width="601"/>
	<unicode hex="003D"/>
	<note>
		equal
	</note>
	<outline>
		<contour>
			<point x="107" y="384" type="line"/>
			<point x="544" y="384" type="line"/>
			<point x="558" y="448" type="line"/>
			<point x="121" y="448" type="line"/>
		</contour>
		<contour>
			<point x="65" y="184" type="line"/>
			<point x="502" y="184" type="line"/>
			<point x="515" y="248" type="line"/>
			<point x="78" y="248" type="line"/>
		</contour>
	</outline>
</glyph>
<glyph name="at" format="2">
	<advance width="872"/>
	<unicode hex="0040"/>
	<note>
		at
	</note>
	<outline>
		<contour>
			<point x="590" y="236" type="curve" smooth="yes"/>
			<point x="694" y="467" type="line"/>
			<point x="596" y="467" type="line"/>
			<point x="563" y="403" type="line"/>
			<point x="564" y="455" type="line"/>
			<point x="551" y="474"/>
			<point x="522" y="485"/>
			<point x="486" y="485" type="curve" smooth="yes"/>
			<point x="362" y="485"/>
			<point x="250" y="366"/>
			<point x="222" y="232" type="curve" smooth="yes"/>
			<point x="196" y="108"/>
			<point x="261" y="69"/>
			<point x="327" y="69" type="curve" smooth="yes"/>
			<point x="361" y="69"/>
			<point x="395" y="80"/>
			<point x="432" y="106" type="curve"/>
			<point x="465" y="153" type="line"/>
			<point x="465" y="97"/>
			<point x="503" y="73"/>
			<point x="561" y="73" type="curve" smooth="yes"/>
			<point x="666" y="73"/>
			<point x="790" y="149"/>
			<point x="830" y="336" type="curve" smooth="yes"/>
			<point x="871" y="530"/>
			<point x="770" y="674"/>
			<point x="565" y="674" type="curve" smooth="yes"/>
			<point x="346" y="674"/>
			<point x="104" y="508"/>
			<point x="48" y="245" type="curve" smooth="yes"/>
			<point x="-5" y="-1"/>
			<point x="149" y="-112"/>
			<point x="327" y="-112" type="curve" smooth="yes"/>
			<point x="409" y="-112"/>
			<point x="515" y="-89"/>
			<point x="622" y="-26" type="curve"/>
			<point x="607" y="32" type="line"/>
			<point x="527" y="-19"/>
			<point x="429" y="-44"/>
			<point x="347" y="-44" type="curve" smooth="yes"/>
			<point x="181" y="-44"/>
			<point x="81" y="57"/>
			<point x="121" y="248" type="curve" smooth="yes"/>
			<point x="170" y="476"/>
			<point x="377" y="606"/>
			<point x="547" y="606" type="curve" smooth="yes"/>
			<point x="697" y="606"/>
			<point x="795" y="512"/>
			<point x="756" y="332" type="curve" smooth="yes"/>
			<point x="729" y="203"/>
			<point x="658" y="141"/>
			<point x="601" y="141" type="curve" smooth="yes"/>
			<point x="569" y="141"/>
			<point x="566" y="161"/>
			<point x="571" y="184" type="curve" smooth="yes"/>
			<point x="573" y="195"/>
			<point x="577" y="208"/>
		</contour>
		<contour>
			<point x="514" y="297" type="curve" smooth="yes"/>
			<point x="493" y="250" type="line" smooth="yes"/>
			<point x="470" y="198"/>
			<point x="423" y="149"/>
			<point x="375" y="149" type="curve" smooth="yes"/>
			<point x="341" y="149"/>
			<point x="321" y="173"/>
			<point x="335" y="239" type="curve" smooth="yes"/>
			<point x="354" y="325"/>
			<point x="414" y="405"/>
			<point x="484" y="405" type="curve" smooth="yes"/>
			<point x="526" y="405"/>
			<point x="549" y="376"/>
		</contour>
	</outline>
</glyph>
<glyph name="B" format="2">
	<advance width="641"/>
	<unicode hex="0042"/>
	<note>
		B
	</note>
	<outline>
		<contour>
			<point x="489" y="369" type="curve"/>
			<point x="565" y="393"/>
			<point x="617" y="438"/>
			<point x="633" y="516" type="curve" smooth="yes"/>
			<point x="654" y="612"/>
			<point x="604" y="671"/>
			<point x="497" y="686" type="curve" smooth="yes"/>
			<point x="464" y="690"/>
			<point x="442" y="690"/>
			<point x="408" y="690" type="curve" smooth="yes"/>
			<point x="185" y="690" type="line"/>
			<point x="39" y="0" type="line"/>
			<point x="274" y="0" type="line" smooth="yes"/>
			<point x="309" y="0"/>
			<point x="332" y="0"/>
			<point x="367" y="5" type="curve" smooth="yes"/>
			<point x="460" y="18"/>
			<point x="565" y="78"/>
			<point x="592" y="204" type="curve" smooth="yes"/>
			<point x="612" y="296"/>
			<point x="574" y="347"/>
		</contour>
		<contour>
			<point x="233" y="399" type="line"/>
			<point x="277" y="603" type="line"/>
			<point x="390" y="603" type="line" smooth="yes"/>
			<point x="406" y="603"/>
			<point x="426" y="602"/>
			<point x="441" y="600" type="curve" smooth="yes"/>
			<point x="495" y="594"/>
			<point x="528" y="565"/>
			<point x="515" y="504" type="curve" smooth="yes"/>
			<point x="503" y="448"/>
			<point x="469" y="413"/>
			<point x="406" y="403" type="curve" smooth="yes"/>
			<point x="388" y="400"/>
			<point x="370" y="399"/>
			<point x="353" y="399" type="curve" smooth="yes"/>
		</contour>
		<contour>
			<point x="351" y="89" type="curve" smooth="yes"/>
			<point x="337" y="88"/>
			<point x="319" y="88"/>
			<point x="303" y="88" type="curve" smooth="yes"/>
			<point x="167" y="88" type="line"/>
			<point x="215" y="314" type="line"/>
			<point x="345" y="314" type="line" smooth="yes"/>
			<point x="361" y="314"/>
			<point x="377" y="314"/>
			<point x="397" y="311" type="curve" smooth="yes"/>
			<point x="454" y="304"/>
			<point x="491" y="274"/>
			<point x="475" y="199" type="curve" smooth="yes"/>
			<point x="461" y="132"/>
			<point x="409" y="94"/>
		</contour>
	</outline>
</glyph>
<glyph name="F" format="2">
	<advance width="579"/>
	<unicode hex="0046"/>
	<note>
		F
	</note>
	<outline>
		<contour>
			<point x="231" y="389" type="line"/>
			<point x="277" y="603" type="line"/>
			<point x="634" y="603" type="line"/>
			<point x="652" y="690" type="line"/>
			<point x="185" y="690" type="line"/>
			<point x="39" y="0" type="line"/>
			<point x="149" y="0" type="line"/>
			<point x="213" y="302" type="line"/>
			<point x="532" y="302" type="line"/>
			<point x="550" y="389" type="line"/>
		</contour>
	</outline>
</glyph>
<glyph name="H" format="2">
	<advance width="740"/>
	<unicode hex="0048"/>
	<note>
		H
	</note>
	<outline>
		<contour>
			<point x="612" y="0" type="line"/>
			<point x="758" y="690" type="line"/>
			<point x="649" y="690" type="line"/>
			<point x="584" y="383" type="line"/>
			<point x="230" y="383" type="line"/>
			<point x="295" y="690" type="line"/>
			<point x="185" y="690" type="line"/>
			<point x="39" y="0" type="line"/>
			<point x="149" y="0" type="line"/>
			<point x="211" y="294" type="line"/>
			<point x="565" y="294" type="line"/>
			<point x="503" y="0" type="line"/>
		</contour>
	</outline>
</glyph>
<glyph name="J" format="2">
	<advance width="568"/>
	<unicode hex="004A"/>
	<note>
		J
	</note>
	<outline>
		<contour>
			<point x="515" y="273" type="curve" smooth="yes"/>
			<point x="603" y="690" type="line"/>
			<point x="493" y="690" type="line"/>
			<point x="404" y="268" type="line" smooth="yes"/>
			<point x="397" y="236"/>
			<point x="392" y="212"/>
			<point x="386" y="191" type="curve" smooth="yes"/>
			<point x="364" y="116"/>
			<point x="319" y="70"/>
			<point x="246" y="70" type="curve" smooth="yes"/>
			<point x="172" y="70"/>
			<point x="137" y="110"/>
			<point x="152" y="204" type="curve" smooth="yes"/>
			<point x="158" y="242" type="line"/>
			<point x="48" y="242" type="line"/>
			<point x="41" y="204" type="line" smooth="yes"/>
			<point x="17" y="70"/>
			<point x="75" y="-14"/>
			<point x="218" y="-14" type="curve" smooth="yes"/>
			<point x="372" y="-14"/>
			<point x="461" y="67"/>
			<point x="493" y="184" type="curve" smooth="yes"/>
			<point x="504" y="223"/>
			<point x="509" y="245"/>
		</contour>
	</outline>
</glyph>
<glyph name="K" format="2">
	<advance width="643"/>
	<unicode hex="004B"/>
	<note>
		K
	</note>
	<outline>
		<contour>
			<point x="584" y="0" type="line"/>
			<point x="365" y="356" type="line"/>
			<point x="746" y="690" type="line"/>
			<point x="616" y="690" type="line"/>
			<point x="221" y="339" type="line"/>
			<point x="295" y="690" type="line"/>
			<point x="185" y="690" type="line"/>
			<point x="39" y="0" type="line"/>
			<point x="149" y="0" type="line"/>
			<point x="196" y="222" type="line"/>
			<point x="271" y="288" type="line"/>
			<point x="437" y="0" type="line"/>
		</contour>
	</outline>
</glyph>
<glyph name="P" format="2">
	<advance width="610"/>
	<unicode hex="0050"/>
	<note>
		P
	</note>
	<outline>
		<contour>
			<point x="504" y="686" type="curve" smooth="yes"/>
			<point x="473" y="690"/>
			<point x="448" y="690"/>
			<point x="411" y="690" type="curve" smooth="yes"/>
			<point x="185" y="690" type="line"/>
			<point x="39" y="0" type="line"/>
			<point x="149" y="0" type="line"/>
			<point x="206" y="272" type="line"/>
			<point x="322" y="272" type="line" smooth="yes"/>
			<point x="359" y="272"/>
			<point x="384" y="272"/>
			<point x="417" y="276" type="curve" smooth="yes"/>
			<point x="520" y="289"/>
			<point x="617" y="359"/>
			<point x="643" y="481" type="curve" smooth="yes"/>
			<point x="669" y="603"/>
			<point x="610" y="672"/>
		</contour>
		<contour>
			<point x="415" y="365" type="curve" smooth="yes"/>
			<point x="397" y="362"/>
			<point x="372" y="361"/>
			<point x="344" y="361" type="curve" smooth="yes"/>
			<point x="225" y="361" type="line"/>
			<point x="276" y="601" type="line"/>
			<point x="395" y="601" type="line" smooth="yes"/>
			<point x="423" y="601"/>
			<point x="447" y="600"/>
			<point x="465" y="597" type="curve" smooth="yes"/>
			<point x="511" y="588"/>
			<point x="542" y="554"/>
			<point x="527" y="481" type="curve" smooth="yes"/>
			<point x="511" y="408"/>
			<point x="465" y="374"/>
		</contour>
	</outline>
</glyph>
<glyph name="R" format="2">
	<advance width="635"/>
	<unicode hex="0052"/>
	<note>
		R
	</note>
	<outline>
		<contour>
			<point x="552" y="178" type="curve" smooth="yes"/>
			<point x="560" y="250"/>
			<point x="547" y="310"/>
			<point x="490" y="337" type="curve"/>
			<point x="568" y="359"/>
			<point x="634" y="412"/>
			<point x="653" y="502" type="curve" smooth="yes"/>
			<point x="678" y="620"/>
			<point x="615" y="673"/>
			<point x="517" y="686" type="curve" smooth="yes"/>
			<point x="485" y="690"/>
			<point x="460" y="690"/>
			<point x="423" y="690" type="curve" smooth="yes"/>
			<point x="185" y="690" type="line"/>
			<point x="39" y="0" type="line"/>
			<point x="149" y="0" type="line"/>
			<point x="210" y="288" type="line"/>
			<point x="317" y="288" type="line" smooth="yes"/>
			<point x="334" y="288"/>
			<point x="351" y="288"/>
			<point x="368" y="287" type="curve" smooth="yes"/>
			<point x="430" y="283"/>
			<point x="447" y="237"/>
			<point x="441" y="164" type="curve" smooth="yes"/>
			<point x="432" y="88"/>
			<point x="432" y="45"/>
			<point x="441" y="0" type="curve"/>
			<point x="562" y="0" type="line"/>
			<point x="542" y="38"/>
			<point x="541" y="91"/>
		</contour>
		<contour>
			<point x="343" y="373" type="curve" smooth="yes"/>
			<point x="228" y="373" type="line"/>
			<point x="277" y="603" type="line"/>
			<point x="399" y="603" type="line" smooth="yes"/>
			<point x="427" y="603"/>
			<point x="445" y="602"/>
			<point x="462" y="599" type="curve" smooth="yes"/>
			<point x="519" y="591"/>
			<point x="550" y="561"/>
			<point x="534" y="488" type="curve" smooth="yes"/>
			<point x="519" y="415"/>
			<point x="467" y="381"/>
			<point x="405" y="375" type="curve" smooth="yes"/>
			<point x="388" y="373"/>
			<point x="371" y="373"/>
		</contour>
	</outline>
</glyph>
<glyph name="T" format="2">
	<advance width="617"/>
	<unicode hex="0054"/>
	<note>
		T
	</note>
	<outline>
		<contour>
			<point x="451" y="603" type="line"/>
			<point x="692" y="603" type="line"/>
			<point x="710" y="690" type="line"/>
			<point x="119" y="690" type="line"/>
			<point x="101" y="603" type="line"/>
			<point x="342" y="603" type="line"/>
			<point x="214" y="0" type="line"/>
			<point x="323" y="0" type="line"/>
		</contour>
	</outline>
</glyph>
<glyph name="X" format="2">
	<advance width="648"/>
	<unicode hex="0058"/>
	<note>
		X
	</note>
	<outline>
		<contour>
			<point x="334" y="279" type="line"/>
			<point x="463" y="0" type="line"/>
			<point x="591" y="0" type="line"/>
			<point x="417" y="351" type="line"/>
			<point x="729" y="690" type="line"/>
			<point x="603" y="690" type="line"/>
			<point x="369" y="420" type="line"/>
			<point x="256" y="690" type="line"/>
			<point x="130" y="690" type="line"/>
			<point x="287" y="348" type="line"/>
			<point x="-34" y="0" type="line"/>
			<point x="95" y="0" type="line"/>
		</contour>
	</outline>
</glyph>
<glyph name="Y" format="2">
	<advance width="602"/>
	<unicode hex="0059"/>
	<note>
		Y
	</note>
	<outline>
		<contour>
			<point x="315" y="0" type="line"/>
			<point x="372" y="270" type="line"/>
			<point x="705" y="690" type="line"/>
			<point x="583" y="690" type="line"/>
			<point x="344" y="371" type="line"/>
			<point x="233" y="690" type="line"/>
			<point x="108" y="690" type="line"/>
			<point x="263" y="270" type="line"/>
			<point x="206" y="0" type="line"/>
		</contour>
	</outline>
</glyph>
<glyph name="bracketleft" format="2">
	<advance width="333"/>
	<unicode hex="005B"/>
	<note>
		bracketleft
	</note>
	<outline>
		<contour>
			<point x="386" y="714" type="line"/>
			<point x="400" y="780" type="line"/>
			<point x="210" y="780" type="line"/>
			<point x="28" y="-80" type="line"/>
			<point x="218" y="-80" type="line"/>
			<point x="232" y="-14" type="line"/>
			<point x="110" y="-14" type="line"/>
			<point x="264" y="714" type="line"/>
		</contour>
	</outline>
</glyph>
<glyph name="backslash" format="2">
	<advance width="314"/>
	<unicode hex="005C"/>
	<note>
		backslash
	</note>
	<outline>
		<contour>
			<point x="183" y="-30" type="line"/>
			<point x="256" y="-30" type="line"/>
			<point x="165" y="720" type="line"/>
			<point x="92" y="720" type="line"/>
		</contour>
	</outline>
</glyph>
<glyph name="asciicircum" format="2">
	<advance width="601"/>
	<unicode hex="005E"/>
	<note>
		asciicircum
	</note>
	<outline>
		<contour>
			<point x="362" y="550" type="line"/>
			<point x="424" y="215" type="line"/>
			<point x="503" y="215" type="line"/>
			<point x="415" y="616" type="line"/>
			<point x="335" y="616" type="line"/>
			<point x="75" y="215" type="line"/>
			<point x="155" y="215" type="line"/>
		</contour>
	</outline>
</glyph>
<glyph name="underscore" format="2">
	<advance width="500"/>
	<unicode hex="005F"/>
	<note>
		underscore
	</note>
	<outline>
		<contour>
			<point x="-25" y="-87" type="line"/>
			<point x="375" y="-87" type="line"/>
			<point x="389" y="-21" type="line"/>
			<point x="-11" y="-21" type="line"/>
		</contour>
	</outline>
</glyph>
<glyph name="i" format="2">
	<advance width="251"/>
	<unicode hex="0069"/>
	<note>
		i
	</note>
	<outline>
		<contour>
			<point x="13" y="0" type="line"/>
			<point x="123" y="0" type="line"/>
			<point x="236" y="531" type="line"/>
			<point x="126" y="531" type="line"/>
		</contour>
		<contour>
			<point x="165" y="716" type="line"/>
			<point x="138" y="589" type="line"/>
			<point x="249" y="589" type="line"/>
			<point x="276" y="716" type="line"/>
		</contour>
	</outline>
</glyph>
<glyph name="k" format="2">
	<advance width="550"/>
	<unicode hex="006B"/>
	<note>
		k
	</note>
	<outline>
		<contour>
			<point x="158" y="166" type="line"/>
			<point x="216" y="218" type="line"/>
			<point x="350" y="0" type="line"/>
			<point x="493" y="0" type="line"/>
			<point x="308" y="282" type="line"/>
			<point x="603" y="531" type="line"/>
			<point x="468" y="531" type="line"/>
			<point x="181" y="275" type="line"/>
			<point x="279" y="735" type="line"/>
			<point x="169" y="735" type="line"/>
			<point x="13" y="0" type="line"/>
			<point x="123" y="0" type="line"/>
		</contour>
	</outline>
</glyph>
<glyph name="o" format="2">
	<advance width="595"/>
	<unicode hex="006F"/>
	<note>
		o
	</note>
	<outline>
		<contour>
			<point x="358" y="545" type="curve" smooth="yes"/>
			<point x="179" y="545"/>
			<point x="62" y="421"/>
			<point x="29" y="266" type="curve" smooth="yes"/>
			<point x="-4" y="111"/>
			<point x="60" y="-14"/>
			<point x="239" y="-14" type="curve" smooth="yes"/>
			<point x="417" y="-14"/>
			<point x="534" y="111"/>
			<point x="567" y="266" type="curve" smooth="yes"/>
			<point x="600" y="421"/>
			<point x="536" y="545"/>
		</contour>
		<contour>
			<point x="256" y="66" type="curve" smooth="yes"/>
			<point x="159" y="66"/>
			<point x="120" y="146"/>
			<point x="145" y="266" type="curve" smooth="yes"/>
			<point x="171" y="386"/>
			<point x="244" y="465"/>
			<point x="341" y="465" type="curve" smooth="yes"/>
			<point x="437" y="465"/>
			<point x="476" y="386"/>
			<point x="450" y="266" type="curve" smooth="yes"/>
			<point x="425" y="146"/>
			<point x="352" y="66"/>
		</contour>
	</outline>
</glyph>
<glyph name="q" format="2">
	<advance width="629"/>
	<unicode hex="0071"/>
	<note>
		q
	</note>
	<outline>
		<contour>
			<point x="459" y="-196" type="line"/>
			<point x="614" y="531" type="line"/>
			<point x="504" y="531" type="line"/>
			<point x="488" y="459" type="line"/>
			<point x="465" y="512" type="line"/>
			<point x="442" y="533"/>
			<point x="390" y="545"/>
			<point x="346" y="545" type="curve" smooth="yes"/>
			<point x="209" y="545"/>
			<point x="69" y="451"/>
			<point x="27" y="257" type="curve" smooth="yes"/>
			<point x="-6" y="101"/>
			<point x="57" y="-14"/>
			<point x="209" y="-14" type="curve" smooth="yes"/>
			<point x="263" y="-14"/>
			<point x="321" y="2"/>
			<point x="356" y="26" type="curve"/>
			<point x="409" y="84" type="line"/>
			<point x="349" y="-196" type="line"/>
		</contour>
		<contour>
			<point x="251" y="66" type="curve" smooth="yes"/>
			<point x="156" y="66"/>
			<point x="121" y="151"/>
			<point x="145" y="266" type="curve" smooth="yes"/>
			<point x="173" y="398"/>
			<point x="254" y="465"/>
			<point x="341" y="465" type="curve" smooth="yes"/>
			<point x="412" y="465"/>
			<point x="479" y="417"/>
			<point x="452" y="288" type="curve" smooth="yes"/>
			<point x="446" y="260" type="line" smooth="yes"/>
			<point x="416" y="118"/>
			<point x="334" y="66"/>
		</contour>
	</outline>
</glyph>
<glyph name="r" format="2">
	<advance width="353"/>
	<unicode hex="0072"/>
	<note>
		r
	</note>
	<outline>
		<contour>
			<point x="365" y="544" type="curve" smooth="yes"/>
			<point x="338" y="544"/>
			<point x="305" y="533"/>
			<point x="277" y="514" type="curve"/>
			<point x="216" y="441" type="line"/>
			<point x="236" y="531" type="line"/>
			<point x="126" y="531" type="line"/>
			<point x="13" y="0" type="line"/>
			<point x="123" y="0" type="line"/>
			<point x="181" y="276" type="line" smooth="yes"/>
			<point x="209" y="407"/>
			<point x="283" y="459"/>
			<point x="383" y="452" type="curve"/>
			<point x="401" y="538" type="line"/>
			<point x="391" y="542"/>
			<point x="380" y="544"/>
		</contour>
	</outline>
</glyph>
<glyph name="v" format="2">
	<advance width="538"/>
	<unicode hex="0076"/>
	<note>
		v
	</note>
	<outline>
		<contour>
			<point x="276" y="0" type="line"/>
			<point x="592" y="531" type="line"/>
			<point x="475" y="531" type="line"/>
			<point x="232" y="81" type="line"/>
			<point x="179" y="531" type="line"/>
			<point x="58" y="531" type="line"/>
			<point x="148" y="0" type="line"/>
		</contour>
	</outline>
</glyph>
<glyph name="x" format="2">
	<advance width="509"/>
	<unicode hex="0078"/>
	<note>
		x
	</note>
	<outline>
		<contour>
			<point x="444" y="0" type="line"/>
			<point x="314" y="270" type="line"/>
			<point x="555" y="531" type="line"/>
			<point x="429" y="531" type="line"/>
			<point x="268" y="339" type="line"/>
			<point x="188" y="531" type="line"/>
			<point x="59" y="531" type="line"/>
			<point x="185" y="269" type="line"/>
			<point x="-61" y="0" type="line"/>
			<point x="65" y="0" type="line"/>
			<point x="233" y="200" type="line"/>
			<point x="317" y="0" type="line"/>
		</contour>
	</outline>
</glyph>
<glyph name="braceleft" format="2">
	<advance width="335"/>
	<unicode hex="007B"/>
	<note>
		braceleft
	</note>
	<outline>
		<contour>
			<point x="373" y="714" type="curve" smooth="yes"/>
			<point x="388" y="714" type="line"/>
			<point x="402" y="780" type="line"/>
			<point x="381" y="780" type="line" smooth="yes"/>
			<point x="291" y="780"/>
			<point x="240" y="753"/>
			<point x="223" y="672" type="curve" smooth="yes"/>
			<point x="217" y="647"/>
			<point x="215" y="626"/>
			<point x="211" y="560" type="curve" smooth="yes"/>
			<point x="207" y="509"/>
			<point x="204" y="482"/>
			<point x="198" y="455" type="curve" smooth="yes"/>
			<point x="190" y="416"/>
			<point x="165" y="389"/>
			<point x="101" y="383" type="curve"/>
			<point x="87" y="317" type="line"/>
			<point x="149" y="312"/>
			<point x="162" y="285"/>
			<point x="154" y="245" type="curve" smooth="yes"/>
			<point x="148" y="218"/>
			<point x="139" y="191"/>
			<point x="121" y="140" type="curve" smooth="yes"/>
			<point x="97" y="74"/>
			<point x="91" y="53"/>
			<point x="86" y="29" type="curve" smooth="yes"/>
			<point x="68" y="-53"/>
			<point x="109" y="-80"/>
			<point x="199" y="-80" type="curve" smooth="yes"/>
			<point x="220" y="-80" type="line"/>
			<point x="234" y="-14" type="line"/>
			<point x="219" y="-14" type="line" smooth="yes"/>
			<point x="163" y="-14"/>
			<point x="148" y="1"/>
			<point x="155" y="33" type="curve" smooth="yes"/>
			<point x="159" y="54"/>
			<point x="164" y="69"/>
			<point x="186" y="130" type="curve" smooth="yes"/>
			<point x="209" y="194"/>
			<point x="219" y="221"/>
			<point x="224" y="248" type="curve" smooth="yes"/>
			<point x="237" y="305"/>
			<point x="213" y="342"/>
			<point x="161" y="351" type="curve"/>
			<point x="218" y="361"/>
			<point x="256" y="396"/>
			<point x="268" y="452" type="curve" smooth="yes"/>
			<point x="273" y="479"/>
			<point x="275" y="506"/>
			<point x="280" y="570" type="curve" smooth="yes"/>
			<point x="284" y="632"/>
			<point x="285" y="647"/>
			<point x="289" y="667" type="curve" smooth="yes"/>
			<point x="296" y="699"/>
			<point x="317" y="714"/>
		</contour>
	</outline>
</glyph>
<glyph name="bar" format="2">
	<advance width="266"/>
	<unicode hex="007C"/>
	<note>
		bar
	</note>
	<outline>
		<contour>
			<point x="-2" y="-200" type="line"/>
			<point x="70" y="-200" type="line"/>
			<point x="283" y="800" type="line"/>
			<point x="211" y="800" type="line"/>
		</contour>
	</outline>
</glyph>
<glyph name="exclamdown" format="2">
	<advance width="252"/>
	<unicode hex="00A1"/>
	<note>
		exclamdown
	</note>
	<outline>
		<contour>
			<point x="189" y="343" type="line"/>
			<point x="96" y="343" type="line"/>
			<point x="-23" y="-160" type="line"/>
			<point x="94" y="-160" type="line"/>
		</contour>
		<contour>
			<point x="139" y="545" type="line"/>
			<point x="107" y="399" type="line"/>
			<point x="200" y="399" type="line"/>
			<point x="232" y="545" type="line"/>
		</contour>
	</outline>
</glyph>
<glyph name="section" format="2">
	<advance width="578"/>
	<unicode hex="00A7"/>
	<note>
		section
	</note>
	<outline>
		<contour>
			<point x="545" y="243" type="curve" smooth="yes"/>
			<point x="566" y="342"/>
			<point x="513" y="397"/>
			<point x="377" y="437" type="curve" smooth="yes"/>
			<point x="286" y="463"/>
			<point x="257" y="496"/>
			<point x="269" y="550" type="curve" smooth="yes"/>
			<point x="279" y="599"/>
			<point x="318" y="627"/>
			<point x="362" y="627" type="curve" smooth="yes"/>
			<point x="412" y="627"/>
			<point x="437" y="593"/>
			<point x="435" y="535" type="curve"/>
			<point x="546" y="535" type="line"/>
			<point x="557" y="637"/>
			<point x="502" y="704"/>
			<point x="380" y="704" type="curve" smooth="yes"/>
			<point x="268" y="704"/>
			<point x="174" y="640"/>
			<point x="152" y="536" type="curve" smooth="yes"/>
			<point x="144" y="500"/>
			<point x="149" y="469"/>
			<point x="164" y="444" type="curve"/>
			<point x="100" y="417"/>
			<point x="52" y="367"/>
			<point x="36" y="295" type="curve" smooth="yes"/>
			<point x="14" y="192"/>
			<point x="83" y="135"/>
			<point x="192" y="105" type="curve" smooth="yes"/>
			<point x="305" y="74"/>
			<point x="328" y="36"/>
			<point x="317" y="-17" type="curve" smooth="yes"/>
			<point x="306" y="-70"/>
			<point x="262" y="-97"/>
			<point x="211" y="-97" type="curve" smooth="yes"/>
			<point x="156" y="-97"/>
			<point x="119" y="-67"/>
			<point x="117" y="2" type="curve"/>
			<point x="6" y="2" type="line"/>
			<point x="-6" y="-119"/>
			<point x="70" y="-174"/>
			<point x="190" y="-174" type="curve" smooth="yes"/>
			<point x="301" y="-174"/>
			<point x="410" y="-118"/>
			<point x="433" y="-8" type="curve" smooth="yes"/>
			<point x="442" y="36"/>
			<point x="437" y="70"/>
			<point x="420" y="98" type="curve"/>
			<point x="481" y="126"/>
			<point x="531" y="177"/>
		</contour>
		<contour>
			<point x="151" y="299" type="curve" smooth="yes"/>
			<point x="162" y="350"/>
			<point x="193" y="377"/>
			<point x="230" y="384" type="curve"/>
			<point x="255" y="370"/>
			<point x="284" y="359"/>
			<point x="315" y="349" type="curve" smooth="yes"/>
			<point x="406" y="319"/>
			<point x="441" y="288"/>
			<point x="429" y="232" type="curve" smooth="yes"/>
			<point x="421" y="196"/>
			<point x="392" y="166"/>
			<point x="352" y="154" type="curve"/>
			<point x="326" y="168"/>
			<point x="295" y="180"/>
			<point x="258" y="190" type="curve" smooth="yes"/>
			<point x="183" y="211"/>
			<point x="140" y="248"/>
		</contour>
	</outline>
</glyph>
<glyph name="dieresis" format="2">
	<advance width="300"/>
	<unicode hex="00A8"/>
	<note>
		dieresis
	</note>
	<outline>
		<contour>
			<point x="109" y="688" type="line"/>
			<point x="86" y="582" type="line"/>
			<point x="194" y="582" type="line"/>
			<point x="217" y="688" type="line"/>
		</contour>
		<contour>
			<point x="264" y="688" type="line"/>
			<point x="241" y="582" type="line"/>
			<point x="349" y="582" type="line"/>
			<point x="372" y="688" type="line"/>
		</contour>
	</outline>
</glyph>
<glyph name="copyright" format="2">
	<advance width="844"/>
	<unicode hex="00A9"/>
	<note>
		copyright
	</note>
	<outline>
		<contour>
			<point x="525" y="748" type="curve" smooth="yes"/>
			<point x="303" y="748"/>
			<point x="98" y="579"/>
			<point x="50" y="355" type="curve" smooth="yes"/>
			<point x="3" y="131"/>
			<point x="136" y="-38"/>
			<point x="358" y="-38" type="curve" smooth="yes"/>
			<point x="580" y="-38"/>
			<point x="785" y="131"/>
			<point x="832" y="355" type="curve" smooth="yes"/>
			<point x="880" y="579"/>
			<point x="747" y="748"/>
		</contour>
		<contour>
			<point x="510" y="680" type="curve" smooth="yes"/>
			<point x="690" y="680"/>
			<point x="797" y="540"/>
			<point x="758" y="355" type="curve" smooth="yes"/>
			<point x="719" y="169"/>
			<point x="552" y="30"/>
			<point x="372" y="30" type="curve" smooth="yes"/>
			<point x="191" y="30"/>
			<point x="85" y="169"/>
			<point x="124" y="355" type="curve" smooth="yes"/>
			<point x="163" y="540"/>
			<point x="329" y="680"/>
		</contour>
		<contour>
			<point x="497" y="585" type="curve" smooth="yes"/>
			<point x="365" y="585"/>
			<point x="258" y="496"/>
			<point x="228" y="354" type="curve" smooth="yes"/>
			<point x="198" y="214"/>
			<point x="266" y="125"/>
			<point x="390" y="125" type="curve" smooth="yes"/>
			<point x="513" y="125"/>
			<point x="593" y="193"/>
			<point x="635" y="292" type="curve"/>
			<point x="529" y="292" type="line"/>
			<point x="510" y="238"/>
			<point x="466" y="201"/>
			<point x="414" y="201" type="curve" smooth="yes"/>
			<point x="348" y="201"/>
			<point x="319" y="259"/>
			<point x="339" y="356" type="curve" smooth="yes"/>
			<point x="359" y="449"/>
			<point x="408" y="509"/>
			<point x="479" y="509" type="curve" smooth="yes"/>
			<point x="540" y="509"/>
			<point x="560" y="470"/>
			<point x="556" y="417" type="curve"/>
			<point x="662" y="417" type="line"/>
			<point x="667" y="517"/>
			<point x="611" y="585"/>
		</contour>
	</outline>
</glyph>
<glyph name="logicalnot" format="2">
	<advance width="601"/>
	<unicode hex="00AC"/>
	<note>
		logicalnot
	</note>
	<outline>
		<contour>
			<point x="402" y="201" type="line"/>
			<point x="471" y="201" type="line"/>
			<point x="511" y="388" type="line"/>
			<point x="131" y="388" type="line"/>
			<point x="117" y="322" type="line"/>
			<point x="428" y="322" type="line"/>
		</contour>
	</outline>
</glyph>
<glyph name="macron" format="2">
	<advance width="300"/>
	<unicode hex="00AF"/>
	<note>
		macron
	</note>
	<outline>
		<contour>
			<point x="94" y="600" type="line"/>
			<point x="349" y="600" type="line"/>
			<point x="363" y="663" type="line"/>
			<point x="108" y="663" type="line"/>
		</contour>
	</outline>
</glyph>
<glyph name="plusminus" format="2">
	<advance width="601"/>
	<unicode hex="00B1"/>
	<note>
		plusminus
	</note>
	<outline>
		<contour>
			<point x="526" y="352" type="line"/>
			<point x="353" y="352" type="line"/>
			<point x="389" y="519" type="line"/>
			<point x="320" y="519" type="line"/>
			<point x="284" y="352" type="line"/>
			<point x="111" y="352" type="line"/>
			<point x="97" y="286" type="line"/>
			<point x="270" y="286" type="line"/>
			<point x="234" y="115" type="line"/>
			<point x="303" y="115" type="line"/>
			<point x="339" y="286" type="line"/>
			<point x="512" y="286" type="line"/>
		</contour>
		<contour>
			<point x="37" y="0" type="line"/>
			<point x="452" y="0" type="line"/>
			<point x="465" y="64" type="line"/>
			<point x="50" y="64" type="line"/>
		</contour>
	</outline>
</glyph>
<glyph name="acute" format="2">
	<advance width="300"/>
	<unicode hex="00B4"/>
	<note>
		acute
	</note>
	<outline>
		<contour>
			<point x="178" y="578" type="line"/>
			<point x="244" y="578" type="line"/>
			<point x="371" y="692" type="line"/>
			<point x="271" y="692" type="line"/>
		</contour>
	</outline>
</glyph>
<glyph name="guillemotright" format="2">
	<advance width="584"/>
	<unicode hex="00BB"/>
	<note>
		guillemotright
	</note>
	<outline>
		<contour>
			<point x="102" y="82" type="line"/>
			<point x="274" y="248" type="line"/>
			<point x="173" y="414" type="line"/>
			<point x="86" y="414" type="line"/>
			<point x="187" y="248" type="line"/>
			<point x="15" y="82" type="line"/>
		</contour>
		<contour>
			<point x="289" y="82" type="line"/>
			<point x="461" y="248" type="line"/>
			<point x="360" y="414" type="line"/>
			<point x="273" y="414" type="line"/>
			<point x="374" y="248" type="line"/>
			<point x="202" y="82" type="line"/>
		</contour>
	</outline>
</glyph>
<glyph name="Acircumflex" format="2">
	<advance width="656"/>
	<unicode hex="00C2"/>
	<note>
		Acircumflex
	</note>
	<outline>
		<contour>
			<point x="336" y="736" type="line"/>
			<point x="411" y="736" type="line"/>
			<point x="455" y="796" type="line"/>
			<point x="473" y="736" type="line"/>
			<point x="549" y="736" type="line"/>
			<point x="505" y="838" type="line"/>
			<point x="424" y="838" type="line"/>
		</contour>
		<contour>
			<point x="207" y="228" type="line"/>
			<point x="452" y="228" type="line"/>
			<point x="479" y="0" type="line"/>
			<point x="598" y="0" type="line"/>
			<point x="503" y="690" type="line"/>
			<point x="361" y="690" type="line"/>
			<point x="-33" y="0" type="line"/>
			<point x="84" y="0" type="line"/>
		</contour>
		<contour>
			<point x="442" y="315" type="line"/>
			<point x="255" y="315" type="line"/>
			<point x="411" y="599" type="line"/>
		</contour>
	</outline>
</glyph>
<glyph name="Atilde" format="2">
	<advance width="656"/>
	<unicode hex="00C3"/>
	<note>
		Atilde
	</note>
	<outline>
		<contour>
			<point x="398" y="771" type="curve" smooth="yes"/>
			<point x="407" y="771"/>
			<point x="417" y="767"/>
			<point x="439" y="759" type="curve" smooth="yes"/>
			<point x="467" y="748"/>
			<point x="482" y="744"/>
			<point x="503" y="744" type="curve" smooth="yes"/>
			<point x="543" y="744"/>
			<point x="569" y="766"/>
			<point x="583" y="831" type="curve"/>
			<point x="530" y="831" type="line"/>
			<point x="527" y="814"/>
			<point x="520" y="808"/>
			<point x="509" y="808" type="curve" smooth="yes"/>
			<point x="501" y="808"/>
			<point x="490" y="812"/>
			<point x="468" y="820" type="curve" smooth="yes"/>
			<point x="441" y="831"/>
			<point x="426" y="835"/>
			<point x="404" y="835" type="curve" smooth="yes"/>
			<point x="365" y="835"/>
			<point x="338" y="813"/>
			<point x="325" y="748" type="curve"/>
			<point x="377" y="748" type="line"/>
			<point x="380" y="765"/>
			<point x="388" y="771"/>
		</contour>
		<contour>
			<point x="207" y="228" type="line"/>
			<point x="452" y="228" type="line"/>
			<point x="479" y="0" type="line"/>
			<point x="598" y="0" type="line"/>
			<point x="503" y="690" type="line"/>
			<point x="361" y="690" type="line"/>
			<point x="-33" y="0" type="line"/>
			<point x="84" y="0" type="line"/>
		</contour>
		<contour>
			<point x="442" y="315" type="line"/>
			<point x="255" y="315" type="line"/>
			<point x="411" y="599" type="line"/>
		</contour>
	</outline>
</glyph>
<glyph name="Aring" format="2">
	<advance width="656"/>
	<unicode hex="00C5"/>
	<note>
		Aring
	</note>
	<outline>
		<contour>
			<point x="438" y="718" type="curve" smooth="yes"/>
			<point x="495" y="718"/>
			<point x="544" y="753"/>
			<point x="554" y="803" type="curve" smooth="yes"/>
			<point x="565" y="853"/>
			<point x="532" y="889"/>
			<point x="475" y="889" type="curve" smooth="yes"/>
			<point x="418" y="889"/>
			<point x="369" y="853"/>
			<point x="358" y="803" type="curve" smooth="yes"/>
			<point x="348" y="753"/>
			<point x="381" y="718"/>
		</contour>
		<contour>
			<point x="465" y="845" type="curve" smooth="yes"/>
			<point x="488" y="845"/>
			<point x="502" y="828"/>
			<point x="496" y="803" type="curve" smooth="yes"/>
			<point x="491" y="779"/>
			<point x="470" y="761"/>
			<point x="447" y="761" type="curve" smooth="yes"/>
			<point x="424" y="761"/>
			<point x="411" y="779"/>
			<point x="416" y="803" type="curve" smooth="yes"/>
			<point x="422" y="828"/>
			<point x="442" y="845"/>
		</contour>
		<contour>
			<point x="207" y="228" type="line"/>
			<point x="452" y="228" type="line"/>
			<point x="479" y="0" type="line"/>
			<point x="598" y="0" type="line"/>
			<point x="503" y="690" type="line"/>
			<point x="361" y="690" type="line"/>
			<point x="-33" y="0" type="line"/>
			<point x="84" y="0" type="line"/>
		</contour>
		<contour>
			<point x="442" y="315" type="line"/>
			<point x="255" y="315" type="line"/>
			<point x="411" y="599" type="line"/>
		</contour>
	</outline>
</glyph>
<glyph name="Ccedilla" format="2">
	<advance width="708"/>
	<unicode hex="00C7"/>
	<note>
		Ccedilla
	</note>
	<outline>
		<contour>
			<point x="656" y="234" type="line"/>
			<point x="547" y="234" type="line"/>
			<point x="543" y="224" type="line" smooth="yes"/>
			<point x="505" y="131"/>
			<point x="435" y="70"/>
			<point x="331" y="70" type="curve" smooth="yes"/>
			<point x="209" y="70"/>
			<point x="149" y="176"/>
			<point x="185" y="347" type="curve" smooth="yes"/>
			<point x="220" y="510"/>
			<point x="324" y="620"/>
			<point x="452" y="620" type="curve" smooth="yes"/>
			<point x="556" y="620"/>
			<point x="601" y="561"/>
			<point x="600" y="468" type="curve" smooth="yes"/>
			<point x="600" y="458" type="line"/>
			<point x="709" y="458" type="line"/>
			<point x="710" y="468" type="line" smooth="yes"/>
			<point x="725" y="604"/>
			<point x="652" y="704"/>
			<point x="472" y="704" type="curve" smooth="yes"/>
			<point x="278" y="704"/>
			<point x="111" y="559"/>
			<point x="65" y="342" type="curve" smooth="yes"/>
			<point x="24" y="149"/>
			<point x="97" y="11"/>
			<point x="261" y="-11" type="curve"/>
			<point x="209" y="-81" type="line"/>
			<point x="281" y="-76"/>
			<point x="303" y="-91"/>
			<point x="297" y="-122" type="curve" smooth="yes"/>
			<point x="292" y="-146"/>
			<point x="268" y="-161"/>
			<point x="226" y="-161" type="curve" smooth="yes"/>
			<point x="207" y="-161"/>
			<point x="191" y="-159"/>
			<point x="175" y="-151" type="curve"/>
			<point x="164" y="-202" type="line"/>
			<point x="177" y="-208"/>
			<point x="195" y="-210"/>
			<point x="214" y="-210" type="curve" smooth="yes"/>
			<point x="292" y="-210"/>
			<point x="354" y="-181"/>
			<point x="367" y="-122" type="curve" smooth="yes"/>
			<point x="377" y="-76"/>
			<point x="353" y="-48"/>
			<point x="300" y="-41" type="curve"/>
			<point x="320" y="-14" type="line"/>
			<point x="493" y="-9"/>
			<point x="611" y="92"/>
			<point x="653" y="224" type="curve" smooth="yes"/>
		</contour>
	</outline>
</glyph>
<glyph name="Edieresis" format="2">
	<advance width="600"/>
	<unicode hex="00CB"/>
	<note>
		Edieresis
	</note>
	<outline>
		<contour>
			<point x="516" y="0" type="line"/>
			<point x="534" y="88" type="line"/>
			<point x="167" y="88" type="line"/>
			<point x="213" y="302" type="line"/>
			<point x="542" y="302" type="line"/>
			<point x="560" y="389" type="line"/>
			<point x="231" y="389" type="line"/>
			<point x="277" y="603" type="line"/>
			<point x="634" y="603" type="line"/>
			<point x="652" y="690" type="line"/>
			<point x="185" y="690" type="line"/>
			<point x="39" y="0" type="line"/>
		</contour>
		<contour>
			<point x="325" y="836" type="line"/>
			<point x="303" y="730" type="line"/>
			<point x="411" y="730" type="line"/>
			<point x="433" y="836" type="line"/>
		</contour>
		<contour>
			<point x="480" y="836" type="line"/>
			<point x="458" y="730" type="line"/>
			<point x="566" y="730" type="line"/>
			<point x="588" y="836" type="line"/>
		</contour>
	</outline>
</glyph>
<glyph name="Idieresis" format="2">
	<advance width="277"/>
	<unicode hex="00CF"/>
	<note>
		Idieresis
	</note>
	<outline>
		<contour>
			<point x="39" y="0" type="line"/>
			<point x="149" y="0" type="line"/>
			<point x="295" y="690" type="line"/>
			<point x="185" y="690" type="line"/>
		</contour>
		<contour>
			<point x="140" y="839" type="line"/>
			<point x="117" y="733" type="line"/>
			<point x="225" y="733" type="line"/>
			<point x="248" y="839" type="line"/>
		</contour>
		<contour>
			<point x="295" y="839" type="line"/>
			<point x="272" y="733" type="line"/>
			<point x="380" y="733" type="line"/>
			<point x="403" y="839" type="line"/>
		</contour>
	</outline>
</glyph>
<glyph name="Ntilde" format="2">
	<advance width="737"/>
	<unicode hex="00D1"/>
	<note>
		Ntilde
	</note>
	<outline>
		<contour>
			<point x="441" y="835" type="curve" smooth="yes"/>
			<point x="402" y="835"/>
			<point x="375" y="813"/>
			<point x="362" y="748" type="curve"/>
			<point x="414" y="748" type="line"/>
			<point x="417" y="765"/>
			<point x="425" y="771"/>
			<point x="435" y="771" type="curve" smooth="yes"/>
			<point x="444" y="771"/>
			<point x="454" y="767"/>
			<point x="476" y="759" type="curve" smooth="yes"/>
			<point x="504" y="748"/>
			<point x="519" y="744"/>
			<point x="540" y="744" type="curve" smooth="yes"/>
			<point x="580" y="744"/>
			<point x="606" y="766"/>
			<point x="620" y="831" type="curve"/>
			<point x="567" y="831" type="line"/>
			<point x="564" y="814"/>
			<point x="557" y="808"/>
			<point x="546" y="808" type="curve" smooth="yes"/>
			<point x="538" y="808"/>
			<point x="527" y="812"/>
			<point x="505" y="820" type="curve" smooth="yes"/>
			<point x="478" y="831"/>
			<point x="463" y="835"/>
		</contour>
		<contour>
			<point x="451" y="0" type="line"/>
			<point x="609" y="0" type="line"/>
			<point x="754" y="690" type="line"/>
			<point x="646" y="690" type="line"/>
			<point x="576" y="358" type="line" smooth="yes"/>
			<point x="561" y="287"/>
			<point x="542" y="195"/>
			<point x="528" y="117" type="curve"/>
			<point x="340" y="690" type="line"/>
			<point x="185" y="690" type="line"/>
			<point x="39" y="0" type="line"/>
			<point x="149" y="0" type="line"/>
			<point x="219" y="330" type="line" smooth="yes"/>
			<point x="234" y="401"/>
			<point x="252" y="490"/>
			<point x="266" y="569" type="curve"/>
		</contour>
	</outline>
</glyph>
<glyph name="Ocircumflex" format="2">
	<advance width="750"/>
	<unicode hex="00D4"/>
	<note>
		Ocircumflex
	</note>
	<outline>
		<contour>
			<point x="376" y="736" type="line"/>
			<point x="451" y="736" type="line"/>
			<point x="495" y="796" type="line"/>
			<point x="513" y="736" type="line"/>
			<point x="589" y="736" type="line"/>
			<point x="545" y="838" type="line"/>
			<point x="464" y="838" type="line"/>
		</contour>
		<contour>
			<point x="475" y="704" type="curve" smooth="yes"/>
			<point x="263" y="704"/>
			<point x="111" y="559"/>
			<point x="66" y="345" type="curve" smooth="yes"/>
			<point x="21" y="132"/>
			<point x="111" y="-14"/>
			<point x="323" y="-14" type="curve" smooth="yes"/>
			<point x="534" y="-14"/>
			<point x="686" y="132"/>
			<point x="731" y="345" type="curve" smooth="yes"/>
			<point x="776" y="559"/>
			<point x="686" y="704"/>
		</contour>
		<contour>
			<point x="341" y="70" type="curve" smooth="yes"/>
			<point x="206" y="70"/>
			<point x="148" y="174"/>
			<point x="184" y="345" type="curve" smooth="yes"/>
			<point x="221" y="517"/>
			<point x="322" y="620"/>
			<point x="457" y="620" type="curve" smooth="yes"/>
			<point x="591" y="620"/>
			<point x="650" y="517"/>
			<point x="613" y="345" type="curve" smooth="yes"/>
			<point x="577" y="174"/>
			<point x="475" y="70"/>
		</contour>
	</outline>
</glyph>
<glyph name="Odieresis" format="2">
	<advance width="750"/>
	<unicode hex="00D6"/>
	<note>
		Odieresis
	</note>
	<outline>
		<contour>
			<point x="475" y="704" type="curve" smooth="yes"/>
			<point x="263" y="704"/>
			<point x="111" y="559"/>
			<point x="66" y="345" type="curve" smooth="yes"/>
			<point x="21" y="132"/>
			<point x="111" y="-14"/>
			<point x="323" y="-14" type="curve" smooth="yes"/>
			<point x="534" y="-14"/>
			<point x="686" y="132"/>
			<point x="731" y="345" type="curve" smooth="yes"/>
			<point x="776" y="559"/>
			<point x="686" y="704"/>
		</contour>
		<contour>
			<point x="341" y="70" type="curve" smooth="yes"/>
			<point x="206" y="70"/>
			<point x="148" y="174"/>
			<point x="184" y="345" type="curve" smooth="yes"/>
			<point x="221" y="517"/>
			<point x="322" y="620"/>
			<point x="457" y="620" type="curve" smooth="yes"/>
			<point x="591" y="620"/>
			<point x="650" y="517"/>
			<point x="613" y="345" type="curve" smooth="yes"/>
			<point x="577" y="174"/>
			<point x="475" y="70"/>
		</contour>
		<contour>
			<point x="376" y="839" type="line"/>
			<point x="353" y="733" type="line"/>
			<point x="461" y="733" type="line"/>
			<point x="484" y="839" type="line"/>
		</contour>
		<contour>
			<point x="531" y="839" type="line"/>
			<point x="508" y="733" type="line"/>
			<point x="616" y="733" type="line"/>
			<point x="639" y="839" type="line"/>
		</contour>
	</outline>
</glyph>
<glyph name="multiply" format="2">
	<advance width="601"/>
	<unicode hex="00D7"/>
	<note>
		multiply
	</note>
	<outline>
		<contour>
			<point x="472" y="176" type="line"/>
			<point x="360" y="318" type="line"/>
			<point x="532" y="460" type="line"/>
			<point x="494" y="508" type="line"/>
			<point x="321" y="366" type="line"/>
			<point x="210" y="508" type="line"/>
			<point x="151" y="460" type="line"/>
			<point x="263" y="318" type="line"/>
			<point x="91" y="176" type="line"/>
			<point x="129" y="128" type="line"/>
			<point x="301" y="270" type="line"/>
			<point x="413" y="128" type="line"/>
		</contour>
	</outline>
</glyph>
<glyph name="Yacute" format="2">
	<advance width="602"/>
	<unicode hex="00DD"/>
	<note>
		Yacute
	</note>
	<outline>
		<contour>
			<point x="378" y="736" type="line"/>
			<point x="444" y="736" type="line"/>
			<point x="563" y="838" type="line"/>
			<point x="463" y="838" type="line"/>
		</contour>
		<contour>
			<point x="315" y="0" type="line"/>
			<point x="372" y="270" type="line"/>
			<point x="705" y="690" type="line"/>
			<point x="583" y="690" type="line"/>
			<point x="344" y="371" type="line"/>
			<point x="233" y="690" type="line"/>
			<point x="108" y="690" type="line"/>
			<point x="263" y="270" type="line"/>
			<point x="206" y="0" type="line"/>
		</contour>
	</outline>
</glyph>
<glyph name="adieresis" format="2">
	<advance width="545"/>
	<unicode hex="00E4"/>
	<note>
		adieresis
	</note>
	<outline>
		<contour>
			<point x="325" y="77" type="line"/>
			<point x="319" y="0" type="line"/>
			<point x="428" y="0" type="line"/>
			<point x="432" y="59"/>
			<point x="438" y="95"/>
			<point x="446" y="135" type="curve" smooth="yes"/>
			<point x="486" y="322" type="line" smooth="yes"/>
			<point x="491" y="347"/>
			<point x="496" y="375"/>
			<point x="499" y="397" type="curve" smooth="yes"/>
			<point x="509" y="487"/>
			<point x="468" y="545"/>
			<point x="331" y="545" type="curve" smooth="yes"/>
			<point x="210" y="545"/>
			<point x="108" y="479"/>
			<point x="77" y="363" type="curve"/>
			<point x="187" y="363" type="line"/>
			<point x="207" y="429"/>
			<point x="248" y="465"/>
			<point x="312" y="465" type="curve" smooth="yes"/>
			<point x="375" y="465"/>
			<point x="395" y="435"/>
			<point x="389" y="392" type="curve" smooth="yes"/>
			<point x="387" y="372"/>
			<point x="383" y="354"/>
			<point x="379" y="334" type="curve" smooth="yes"/>
			<point x="376" y="321" type="line"/>
			<point x="342" y="321" type="line" smooth="yes"/>
			<point x="141" y="321"/>
			<point x="33" y="257"/>
			<point x="8" y="139" type="curve" smooth="yes"/>
			<point x="-13" y="40"/>
			<point x="53" y="-14"/>
			<point x="147" y="-14" type="curve" smooth="yes"/>
			<point x="197" y="-14"/>
			<point x="245" y="-5"/>
			<point x="286" y="20" type="curve"/>
		</contour>
		<contour>
			<point x="204" y="66" type="curve" smooth="yes"/>
			<point x="146" y="66"/>
			<point x="114" y="92"/>
			<point x="126" y="148" type="curve" smooth="yes"/>
			<point x="143" y="229"/>
			<point x="234" y="258"/>
			<point x="360" y="248" type="curve"/>
			<point x="350" y="199" type="line" smooth="yes"/>
			<point x="332" y="113"/>
			<point x="273" y="66"/>
		</contour>
		<contour>
			<point x="229" y="689" type="line"/>
			<point x="207" y="583" type="line"/>
			<point x="315" y="583" type="line"/>
			<point x="337" y="689" type="line"/>
		</contour>
		<contour>
			<point x="384" y="689" type="line"/>
			<point x="362" y="583" type="line"/>
			<point x="470" y="583" type="line"/>
			<point x="492" y="689" type="line"/>
		</contour>
	</outline>
</glyph>
<glyph name="iacute" format="2">
	<advance width="251"/>
	<unicode hex="00ED"/>
	<note>
		iacute
	</note>
	<outline>
		<contour>
			<point x="152" y="578" type="line"/>
			<point x="218" y="578" type="line"/>
			<point x="345" y="692" type="line"/>
			<point x="245" y="692" type="line"/>
		</contour>
		<contour>
			<point x="13" y="0" type="line"/>
			<point x="123" y="0" type="line"/>
			<point x="236" y="531" type="line"/>
			<point x="126" y="531" type="line"/>
		</contour>
	</outline>
</glyph>
<glyph name="idieresis" format="2">
	<advance width="251"/>
	<unicode hex="00EF"/>
	<note>
		idieresis
	</note>
	<outline>
		<contour>
			<point x="13" y="0" type="line"/>
			<point x="123" y="0" type="line"/>
			<point x="236" y="531" type="line"/>
			<point x="126" y="531" type="line"/>
		</contour>
		<contour>
			<point x="84" y="688" type="line"/>
			<point x="61" y="582" type="line"/>
			<point x="169" y="582" type="line"/>
			<point x="192" y="688" type="line"/>
		</contour>
		<contour>
			<point x="239" y="688" type="line"/>
			<point x="216" y="582" type="line"/>
			<point x="324" y="582" type="line"/>
			<point x="347" y="688" type="line"/>
		</contour>
	</outline>
</glyph>
<glyph name="eth" format="2">
	<advance width="604"/>
	<unicode hex="00F0"/>
	<note>
		eth
	</note>
	<outline>
		<contour>
			<point x="548" y="638" type="curve"/>
			<point x="593" y="652" type="line"/>
			<point x="588" y="710" type="line"/>
			<point x="510" y="685" type="line"/>
			<point x="486" y="709"/>
			<point x="456" y="728"/>
			<point x="421" y="745" type="curve"/>
			<point x="330" y="687" type="line"/>
			<point x="356" y="676"/>
			<point x="379" y="664"/>
			<point x="398" y="650" type="curve"/>
			<point x="289" y="615" type="line"/>
			<point x="295" y="558" type="line"/>
			<point x="442" y="604" type="line"/>
			<point x="470" y="565"/>
			<point x="479" y="516"/>
			<point x="473" y="457" type="curve"/>
			<point x="440" y="516" type="line"/>
			<point x="408" y="538"/>
			<point x="380" y="545"/>
			<point x="336" y="545" type="curve" smooth="yes"/>
			<point x="204" y="545"/>
			<point x="66" y="440"/>
			<point x="28" y="260" type="curve" smooth="yes"/>
			<point x="-6" y="102"/>
			<point x="56" y="-14"/>
			<point x="231" y="-14" type="curve" smooth="yes"/>
			<point x="368" y="-14"/>
			<point x="517" y="72"/>
			<point x="567" y="307" type="curve" smooth="yes"/>
			<point x="598" y="453"/>
			<point x="595" y="560"/>
		</contour>
		<contour>
			<point x="447" y="289" type="curve" smooth="yes"/>
			<point x="441" y="260" type="line" smooth="yes"/>
			<point x="414" y="132"/>
			<point x="337" y="69"/>
			<point x="252" y="69" type="curve" smooth="yes"/>
			<point x="155" y="69"/>
			<point x="120" y="142"/>
			<point x="146" y="267" type="curve" smooth="yes"/>
			<point x="171" y="384"/>
			<point x="246" y="463"/>
			<point x="336" y="463" type="curve" smooth="yes"/>
			<point x="409" y="463"/>
			<point x="473" y="411"/>
		</contour>
	</outline>
</glyph>
<glyph name="ntilde" format="2">
	<advance width="606"/>
	<unicode hex="00F1"/>
	<note>
		ntilde
	</note>
	<outline>
		<contour>
			<point x="332" y="616" type="curve" smooth="yes"/>
			<point x="341" y="616"/>
			<point x="351" y="613"/>
			<point x="373" y="604" type="curve" smooth="yes"/>
			<point x="401" y="594"/>
			<point x="416" y="590"/>
			<point x="437" y="590" type="curve" smooth="yes"/>
			<point x="477" y="590"/>
			<point x="504" y="611"/>
			<point x="518" y="677" type="curve"/>
			<point x="465" y="677" type="line"/>
			<point x="461" y="660"/>
			<point x="455" y="654"/>
			<point x="444" y="654" type="curve" smooth="yes"/>
			<point x="436" y="654"/>
			<point x="424" y="657"/>
			<point x="402" y="666" type="curve" smooth="yes"/>
			<point x="376" y="677"/>
			<point x="360" y="680"/>
			<point x="338" y="680" type="curve" smooth="yes"/>
			<point x="299" y="680"/>
			<point x="273" y="659"/>
			<point x="259" y="594" type="curve"/>
			<point x="311" y="594" type="line"/>
			<point x="314" y="610"/>
			<point x="322" y="616"/>
		</contour>
		<contour>
			<point x="565" y="393" type="curve" smooth="yes"/>
			<point x="575" y="486"/>
			<point x="523" y="545"/>
			<point x="409" y="545" type="curve" smooth="yes"/>
			<point x="356" y="545"/>
			<point x="315" y="536"/>
			<point x="266" y="504" type="curve"/>
			<point x="217" y="443" type="line"/>
			<point x="236" y="531" type="line"/>
			<point x="126" y="531" type="line"/>
			<point x="13" y="0" type="line"/>
			<point x="123" y="0" type="line"/>
			<point x="173" y="238" type="line" smooth="yes"/>
			<point x="209" y="404"/>
			<point x="283" y="464"/>
			<point x="359" y="464" type="curve" smooth="yes"/>
			<point x="434" y="464"/>
			<point x="457" y="422"/>
			<point x="450" y="362" type="curve" smooth="yes"/>
			<point x="446" y="335"/>
			<point x="441" y="312"/>
			<point x="436" y="287" type="curve" smooth="yes"/>
			<point x="375" y="0" type="line"/>
			<point x="485" y="0" type="line"/>
			<point x="548" y="299" type="line" smooth="yes"/>
			<point x="557" y="342"/>
			<point x="561" y="366"/>
		</contour>
	</outline>
</glyph>
<glyph name="divide" format="2">
	<advance width="601"/>
	<unicode hex="00F7"/>
	<note>
		divide
	</note>
	<outline>
		<contour>
			<point x="362" y="546" type="curve" smooth="yes"/>
			<point x="327" y="546"/>
			<point x="294" y="519"/>
			<point x="287" y="484" type="curve" smooth="yes"/>
			<point x="279" y="449"/>
			<point x="300" y="422"/>
			<point x="335" y="422" type="curve" smooth="yes"/>
			<point x="370" y="422"/>
			<point x="403" y="449"/>
			<point x="411" y="484" type="curve" smooth="yes"/>
			<point x="418" y="519"/>
			<point x="397" y="546"/>
		</contour>
		<contour>
			<point x="86" y="286" type="line"/>
			<point x="523" y="286" type="line"/>
			<point x="537" y="352" type="line"/>
			<point x="100" y="352" type="line"/>
		</contour>
		<contour>
			<point x="291" y="212" type="curve" smooth="yes"/>
			<point x="256" y="212"/>
			<point x="223" y="185"/>
			<point x="216" y="150" type="curve" smooth="yes"/>
			<point x="208" y="115"/>
			<point x="229" y="88"/>
			<point x="264" y="88" type="curve" smooth="yes"/>
			<point x="299" y="88"/>
			<point x="332" y="115"/>
			<point x="340" y="150" type="curve" smooth="yes"/>
			<point x="347" y="185"/>
			<point x="326" y="212"/>
		</contour>
	</outline>
</glyph>
<glyph name="ucircumflex" format="2">
	<advance width="604"/>
	<unicode hex="00FB"/>
	<note>
		ucircumflex
	</note>
	<outline>
		<contour>
			<point x="257" y="578" type="line"/>
			<point x="330" y="578" type="line"/>
			<point x="376" y="643" type="line"/>
			<point x="396" y="578" type="line"/>
			<point x="470" y="578" type="line"/>
			<point x="428" y="692" type="line"/>
			<point x="347" y="692" type="line"/>
		</contour>
		<contour>
			<point x="476" y="0" type="line"/>
			<point x="589" y="531" type="line"/>
			<point x="480" y="531" type="line"/>
			<point x="426" y="281" type="line" smooth="yes"/>
			<point x="394" y="127"/>
			<point x="323" y="68"/>
			<point x="246" y="68" type="curve" smooth="yes"/>
			<point x="178" y="68"/>
			<point x="148" y="106"/>
			<point x="153" y="164" type="curve" smooth="yes"/>
			<point x="155" y="191"/>
			<point x="160" y="220"/>
			<point x="164" y="237" type="curve" smooth="yes"/>
			<point x="227" y="531" type="line"/>
			<point x="118" y="531" type="line"/>
			<point x="50" y="215" type="line" smooth="yes"/>
			<point x="41" y="172"/>
			<point x="37" y="148"/>
			<point x="35" y="121" type="curve" smooth="yes"/>
			<point x="32" y="48"/>
			<point x="83" y="-14"/>
			<point x="193" y="-14" type="curve" smooth="yes"/>
			<point x="246" y="-14"/>
			<point x="287" y="-5"/>
			<point x="335" y="25" type="curve"/>
			<point x="386" y="91" type="line"/>
			<point x="367" y="0" type="line"/>
		</contour>
	</outline>
</glyph>
<glyph name="ydieresis" format="2">
	<advance width="537"/>
	<unicode hex="00FF"/>
	<note>
		ydieresis
	</note>
	<outline>
		<contour>
			<point x="254" y="-34" type="curve" smooth="yes"/>
			<point x="591" y="531" type="line"/>
			<point x="472" y="531" type="line"/>
			<point x="231" y="82" type="line"/>
			<point x="181" y="531" type="line"/>
			<point x="58" y="531" type="line"/>
			<point x="153" y="-25" type="line"/>
			<point x="141" y="-44" type="line" smooth="yes"/>
			<point x="102" y="-105"/>
			<point x="66" y="-127"/>
			<point x="16" y="-127" type="curve" smooth="yes"/>
			<point x="5" y="-127"/>
			<point x="-6" y="-127"/>
			<point x="-19" y="-126" type="curve"/>
			<point x="-36" y="-207" type="line"/>
			<point x="-21" y="-210"/>
			<point x="-7" y="-210"/>
			<point x="15" y="-210" type="curve" smooth="yes"/>
			<point x="111" y="-210"/>
			<point x="180" y="-160"/>
		</contour>
		<contour>
			<point x="226" y="685" type="line"/>
			<point x="204" y="579" type="line"/>
			<point x="312" y="579" type="line"/>
			<point x="334" y="685" type="line"/>
		</contour>
		<contour>
			<point x="381" y="685" type="line"/>
			<point x="359" y="579" type="line"/>
			<point x="467" y="579" type="line"/>
			<point x="489" y="685" type="line"/>
		</contour>
	</outline>
</glyph>
<glyph name="Amacron" format="2">
	<advance width="656"/>
	<unicode hex="0100"/>
	<note>
		Amacron
	</note>
	<outline>
		<contour>
			<point x="320" y="758" type="line"/>
			<point x="575" y="758" type="line"/>
			<point x="588" y="821" type="line"/>
			<point x="333" y="821" type="line"/>
		</contour>
		<contour>
			<point x="207" y="228" type="line"/>
			<point x="452" y="228" type="line"/>
			<point x="479" y="0" type="line"/>
			<point x="598" y="0" type="line"/>
			<point x="503" y="690" type="line"/>
			<point x="361" y="690" type="line"/>
			<point x="-33" y="0" type="line"/>
			<point x="84" y="0" type="line"/>
		</contour>
		<contour>
			<point x="442" y="315" type="line"/>
			<point x="255" y="315" type="line"/>
			<point x="411" y="599" type="line"/>
		</contour>
	</outline>
</glyph>
<glyph name="cacute" format="2">
	<advance width="544"/>
	<unicode hex="0107"/>
	<note>
		cacute
	</note>
	<outline>
		<contour>
			<point x="303" y="578" type="line"/>
			<point x="369" y="578" type="line"/>
			<point x="496" y="692" type="line"/>
			<point x="396" y="692" type="line"/>
		</contour>
		<contour>
			<point x="346" y="545" type="curve" smooth="yes"/>
			<point x="207" y="545"/>
			<point x="67" y="444"/>
			<point x="29" y="263" type="curve" smooth="yes"/>
			<point x="-12" y="74"/>
			<point x="75" y="-14"/>
			<point x="214" y="-14" type="curve" smooth="yes"/>
			<point x="339" y="-14"/>
			<point x="444" y="49"/>
			<point x="496" y="176" type="curve"/>
			<point x="384" y="176" type="line"/>
			<point x="353" y="104"/>
			<point x="300" y="66"/>
			<point x="237" y="66" type="curve" smooth="yes"/>
			<point x="163" y="66"/>
			<point x="116" y="127"/>
			<point x="146" y="271" type="curve" smooth="yes"/>
			<point x="175" y="404"/>
			<point x="249" y="465"/>
			<point x="326" y="465" type="curve" smooth="yes"/>
			<point x="391" y="465"/>
			<point x="426" y="428"/>
			<point x="424" y="347" type="curve"/>
			<point x="535" y="347" type="line"/>
			<point x="547" y="464"/>
			<point x="480" y="545"/>
		</contour>
	</outline>
</glyph>
<glyph name="Emacron" format="2">
	<advance width="600"/>
	<unicode hex="0112"/>
	<note>
		Emacron
	</note>
	<outline>
		<contour>
			<point x="315" y="758" type="line"/>
			<point x="570" y="758" type="line"/>
			<point x="583" y="821" type="line"/>
			<point x="328" y="821" type="line"/>
		</contour>
		<contour>
			<point x="516" y="0" type="line"/>
			<point x="534" y="88" type="line"/>
			<point x="167" y="88" type="line"/>
			<point x="213" y="302" type="line"/>
			<point x="542" y="302" type="line"/>
			<point x="560" y="389" type="line"/>
			<point x="231" y="389" type="line"/>
			<point x="277" y="603" type="line"/>
			<point x="634" y="603" type="line"/>
			<point x="652" y="690" type="line"/>
			<point x="185" y="690" type="line"/>
			<point x="39" y="0" type="line"/>
		</contour>
	</outline>
</glyph>
<glyph name="Edotaccent" format="2">
	<advance width="600"/>
	<unicode hex="0116"/>
	<note>
		Edotaccent
	</note>
	<outline>
		<contour>
			<point x="437" y="734" type="curve" smooth="yes"/>
			<point x="470" y="734"/>
			<point x="500" y="758"/>
			<point x="507" y="791" type="curve" smooth="yes"/>
			<point x="514" y="823"/>
			<point x="494" y="847"/>
			<point x="461" y="847" type="curve" smooth="yes"/>
			<point x="428" y="847"/>
			<point x="398" y="823"/>
			<point x="391" y="791" type="curve" smooth="yes"/>
			<point x="384" y="758"/>
			<point x="404" y="734"/>
		</contour>
		<contour>
			<point x="516" y="0" type="line"/>
			<point x="534" y="88" type="line"/>
			<point x="167" y="88" type="line"/>
			<point x="213" y="302" type="line"/>
			<point x="542" y="302" type="line"/>
			<point x="560" y="389" type="line"/>
			<point x="231" y="389" type="line"/>
			<point x="277" y="603" type="line"/>
			<point x="634" y="603" type="line"/>
			<point x="652" y="690" type="line"/>
			<point x="185" y="690" type="line"/>
			<point x="39" y="0" type="line"/>
		</contour>
	</outline>
</glyph>
<glyph name="edotaccent" format="2">
	<advance width="562"/>
	<unicode hex="0117"/>
	<note>
		edotaccent
	</note>
	<outline>
		<contour>
			<point x="352" y="589" type="curve" smooth="yes"/>
			<point x="389" y="589"/>
			<point x="423" y="616"/>
			<point x="430" y="653" type="curve" smooth="yes"/>
			<point x="438" y="689"/>
			<point x="416" y="716"/>
			<point x="379" y="716" type="curve" smooth="yes"/>
			<point x="342" y="716"/>
			<point x="309" y="689"/>
			<point x="301" y="653" type="curve" smooth="yes"/>
			<point x="294" y="616"/>
			<point x="315" y="589"/>
		</contour>
		<contour>
			<point x="529" y="279" type="curve" smooth="yes"/>
			<point x="561" y="429"/>
			<point x="503" y="545"/>
			<point x="349" y="545" type="curve" smooth="yes"/>
			<point x="196" y="545"/>
			<point x="64" y="432"/>
			<point x="29" y="264" type="curve" smooth="yes"/>
			<point x="-11" y="76"/>
			<point x="77" y="-14"/>
			<point x="219" y="-14" type="curve" smooth="yes"/>
			<point x="335" y="-14"/>
			<point x="448" y="46"/>
			<point x="498" y="172" type="curve"/>
			<point x="387" y="172" type="line"/>
			<point x="362" y="105"/>
			<point x="304" y="66"/>
			<point x="240" y="66" type="curve" smooth="yes"/>
			<point x="168" y="66"/>
			<point x="119" y="108"/>
			<point x="137" y="235" type="curve"/>
			<point x="518" y="235" type="line"/>
			<point x="524" y="254"/>
			<point x="527" y="269"/>
		</contour>
		<contour>
			<point x="328" y="465" type="curve" smooth="yes"/>
			<point x="405" y="465"/>
			<point x="436" y="410"/>
			<point x="423" y="312" type="curve"/>
			<point x="154" y="312" type="line"/>
			<point x="188" y="414"/>
			<point x="253" y="465"/>
		</contour>
	</outline>
</glyph>
<glyph name="Eogonek" format="2">
	<advance width="600"/>
	<unicode hex="0118"/>
	<note>
		Eogonek
	</note>
	<outline>
		<contour>
			<point x="432" y="-157" type="curve" smooth="yes"/>
			<point x="405" y="-157"/>
			<point x="391" y="-144"/>
			<point x="399" y="-107" type="curve" smooth="yes"/>
			<point x="411" y="-50"/>
			<point x="458" y="-7"/>
			<point x="504" y="0" type="curve"/>
			<point x="516" y="0" type="line"/>
			<point x="534" y="88" type="line"/>
			<point x="167" y="88" type="line"/>
			<point x="213" y="302" type="line"/>
			<point x="542" y="302" type="line"/>
			<point x="560" y="389" type="line"/>
			<point x="231" y="389" type="line"/>
			<point x="277" y="603" type="line"/>
			<point x="634" y="603" type="line"/>
			<point x="652" y="690" type="line"/>
			<point x="185" y="690" type="line"/>
			<point x="39" y="0" type="line"/>
			<point x="406" y="0" type="line"/>
			<point x="353" y="-27"/>
			<point x="304" y="-75"/>
			<point x="290" y="-138" type="curve" smooth="yes"/>
			<point x="277" y="-201"/>
			<point x="312" y="-223"/>
			<point x="370" y="-223" type="curve" smooth="yes"/>
			<point x="411" y="-223"/>
			<point x="448" y="-212"/>
			<point x="478" y="-192" type="curve"/>
			<point x="490" y="-137" type="line"/>
			<point x="469" y="-151"/>
			<point x="450" y="-157"/>
		</contour>
	</outline>
</glyph>
<glyph name="gdotaccent" format="2">
	<advance width="629"/>
	<unicode hex="0121"/>
	<note>
		gdotaccent
	</note>
	<outline>
		<contour>
			<point x="379" y="589" type="curve" smooth="yes"/>
			<point x="416" y="589"/>
			<point x="450" y="616"/>
			<point x="457" y="653" type="curve" smooth="yes"/>
			<point x="465" y="689"/>
			<point x="443" y="716"/>
			<point x="406" y="716" type="curve" smooth="yes"/>
			<point x="369" y="716"/>
			<point x="336" y="689"/>
			<point x="328" y="653" type="curve" smooth="yes"/>
			<point x="321" y="616"/>
			<point x="342" y="589"/>
		</contour>
		<contour>
			<point x="529" y="132" type="curve" smooth="yes"/>
			<point x="614" y="531" type="line"/>
			<point x="504" y="531" type="line"/>
			<point x="488" y="459" type="line"/>
			<point x="465" y="512" type="line"/>
			<point x="442" y="533"/>
			<point x="390" y="545"/>
			<point x="346" y="545" type="curve" smooth="yes"/>
			<point x="209" y="545"/>
			<point x="69" y="453"/>
			<point x="28" y="259" type="curve" smooth="yes"/>
			<point x="-5" y="103"/>
			<point x="60" y="-9"/>
			<point x="213" y="-9" type="curve" smooth="yes"/>
			<point x="267" y="-9"/>
			<point x="322" y="7"/>
			<point x="357" y="31" type="curve"/>
			<point x="410" y="89" type="line"/>
			<point x="407" y="78" type="line" smooth="yes"/>
			<point x="403" y="59"/>
			<point x="399" y="40"/>
			<point x="393" y="17" type="curve" smooth="yes"/>
			<point x="369" y="-78"/>
			<point x="303" y="-130"/>
			<point x="207" y="-130" type="curve" smooth="yes"/>
			<point x="125" y="-130"/>
			<point x="84" y="-91"/>
			<point x="89" y="-34" type="curve" smooth="yes"/>
			<point x="90" y="-25" type="line"/>
			<point x="-18" y="-25" type="line"/>
			<point x="-19" y="-35" type="line" smooth="yes"/>
			<point x="-32" y="-149"/>
			<point x="35" y="-213"/>
			<point x="188" y="-213" type="curve" smooth="yes"/>
			<point x="348" y="-213"/>
			<point x="466" y="-132"/>
			<point x="506" y="29" type="curve" smooth="yes"/>
			<point x="513" y="58"/>
			<point x="522" y="99"/>
		</contour>
		<contour>
			<point x="252" y="71" type="curve" smooth="yes"/>
			<point x="157" y="71"/>
			<point x="121" y="154"/>
			<point x="146" y="269" type="curve" smooth="yes"/>
			<point x="174" y="401"/>
			<point x="254" y="465"/>
			<point x="341" y="465" type="curve" smooth="yes"/>
			<point x="412" y="465"/>
			<point x="479" y="417"/>
			<point x="452" y="288" type="curve" smooth="yes"/>
			<point x="447" y="265" type="line" smooth="yes"/>
			<point x="417" y="123"/>
			<point x="335" y="71"/>
		</contour>
	</outline>
</glyph>
<glyph name="hbar" format="2">
	<advance width="621"/>
	<unicode hex="0127"/>
	<note>
		hbar
	</note>
	<outline>
		<contour>
			<point x="580" y="393" type="curve" smooth="yes"/>
			<point x="590" y="486"/>
			<point x="538" y="545"/>
			<point x="424" y="545" type="curve" smooth="yes"/>
			<point x="371" y="545"/>
			<point x="330" y="536"/>
			<point x="281" y="504" type="curve"/>
			<point x="232" y="443" type="line"/>
			<point x="263" y="590" type="line"/>
			<point x="368" y="590" type="line"/>
			<point x="382" y="656" type="line"/>
			<point x="277" y="656" type="line"/>
			<point x="295" y="740" type="line"/>
			<point x="185" y="740" type="line"/>
			<point x="167" y="656" type="line"/>
			<point x="112" y="656" type="line"/>
			<point x="98" y="590" type="line"/>
			<point x="153" y="590" type="line"/>
			<point x="28" y="0" type="line"/>
			<point x="138" y="0" type="line"/>
			<point x="188" y="238" type="line" smooth="yes"/>
			<point x="224" y="404"/>
			<point x="298" y="462"/>
			<point x="374" y="464" type="curve" smooth="yes"/>
			<point x="450" y="465"/>
			<point x="472" y="422"/>
			<point x="465" y="362" type="curve" smooth="yes"/>
			<point x="461" y="335"/>
			<point x="456" y="312"/>
			<point x="451" y="287" type="curve" smooth="yes"/>
			<point x="390" y="0" type="line"/>
			<point x="500" y="0" type="line"/>
			<point x="563" y="299" type="line" smooth="yes"/>
			<point x="572" y="342"/>
			<point x="576" y="366"/>
		</contour>
	</outline>
</glyph>
<glyph name="Imacron" format="2">
	<advance width="277"/>
	<unicode hex="012A"/>
	<note>
		Imacron
	</note>
	<outline>
		<contour>
			<point x="128" y="758" type="line"/>
			<point x="383" y="758" type="line"/>
			<point x="396" y="821" type="line"/>
			<point x="141" y="821" type="line"/>
		</contour>
		<contour>
			<point x="39" y="0" type="line"/>
			<point x="149" y="0" type="line"/>
			<point x="295" y="690" type="line"/>
			<point x="185" y="690" type="line"/>
		</contour>
	</outline>
</glyph>
<glyph name="Iogonek" format="2">
	<advance width="277"/>
	<unicode hex="012E"/>
	<note>
		Iogonek
	</note>
	<outline>
		<contour>
			<point x="116" y="0" type="curve"/>
			<point x="149" y="0" type="line"/>
			<point x="295" y="690" type="line"/>
			<point x="185" y="690" type="line"/>
			<point x="41" y="10" type="line"/>
			<point x="40" y="10" type="line"/>
			<point x="-20" y="-13"/>
			<point x="-82" y="-66"/>
			<point x="-98" y="-138" type="curve" smooth="yes"/>
			<point x="-111" y="-201"/>
			<point x="-76" y="-223"/>
			<point x="-18" y="-223" type="curve" smooth="yes"/>
			<point x="23" y="-223"/>
			<point x="60" y="-212"/>
			<point x="90" y="-192" type="curve"/>
			<point x="102" y="-137" type="line"/>
			<point x="81" y="-151"/>
			<point x="62" y="-157"/>
			<point x="44" y="-157" type="curve" smooth="yes"/>
			<point x="17" y="-157"/>
			<point x="3" y="-144"/>
			<point x="11" y="-107" type="curve" smooth="yes"/>
			<point x="23" y="-50"/>
			<point x="70" y="-7"/>
		</contour>
	</outline>
</glyph>
<glyph name="iogonek" format="2">
	<advance width="251"/>
	<unicode hex="012F"/>
	<note>
		iogonek
	</note>
	<outline>
		<contour>
			<point x="236" y="531" type="line"/>
			<point x="126" y="531" type="line"/>
			<point x="15" y="10" type="line"/>
			<point x="-45" y="-13"/>
			<point x="-107" y="-66"/>
			<point x="-123" y="-138" type="curve" smooth="yes"/>
			<point x="-136" y="-201"/>
			<point x="-101" y="-223"/>
			<point x="-43" y="-223" type="curve" smooth="yes"/>
			<point x="-2" y="-223"/>
			<point x="35" y="-212"/>
			<point x="65" y="-192" type="curve"/>
			<point x="77" y="-137" type="line"/>
			<point x="56" y="-151"/>
			<point x="37" y="-157"/>
			<point x="19" y="-157" type="curve" smooth="yes"/>
			<point x="-8" y="-157"/>
			<point x="-22" y="-144"/>
			<point x="-14" y="-107" type="curve" smooth="yes"/>
			<point x="-2" y="-50"/>
			<point x="45" y="-7"/>
			<point x="91" y="0" type="curve"/>
			<point x="123" y="0" type="line"/>
		</contour>
		<contour>
			<point x="165" y="716" type="line"/>
			<point x="138" y="589" type="line"/>
			<point x="249" y="589" type="line"/>
			<point x="276" y="716" type="line"/>
		</contour>
	</outline>
</glyph>
<glyph name="uni0137" format="2">
	<advance width="550"/>
	<unicode hex="0137"/>
	<note>
		kcommaaccent
	</note>
	<outline>
		<contour>
			<point x="350" y="0" type="line"/>
			<point x="493" y="0" type="line"/>
			<point x="308" y="282" type="line"/>
			<point x="603" y="531" type="line"/>
			<point x="468" y="531" type="line"/>
			<point x="181" y="275" type="line"/>
			<point x="279" y="735" type="line"/>
			<point x="169" y="735" type="line"/>
			<point x="13" y="0" type="line"/>
			<point x="123" y="0" type="line"/>
			<point x="158" y="166" type="line"/>
			<point x="216" y="218" type="line"/>
		</contour>
		<contour>
			<point x="266" y="-48" type="line"/>
			<point x="185" y="-48" type="line"/>
			<point x="93" y="-200" type="line"/>
			<point x="163" y="-200" type="line"/>
			<point x="264" y="-59" type="line"/>
		</contour>
	</outline>
</glyph>
<glyph name="uni013B" format="2">
	<advance width="588"/>
	<unicode hex="013B"/>
	<note>
		Lcommaaccent
	</note>
	<outline>
		<contour>
			<point x="516" y="0" type="line"/>
			<point x="535" y="91" type="line"/>
			<point x="168" y="91" type="line"/>
			<point x="295" y="690" type="line"/>
			<point x="185" y="690" type="line"/>
			<point x="39" y="0" type="line"/>
		</contour>
		<contour>
			<point x="317" y="-48" type="line"/>
			<point x="236" y="-48" type="line"/>
			<point x="144" y="-200" type="line"/>
			<point x="214" y="-200" type="line"/>
			<point x="315" y="-59" type="line"/>
		</contour>
	</outline>
</glyph>
<glyph name="ldot" format="2">
	<advance width="383"/>
	<unicode hex="0140"/>
	<note>
		ldot
	</note>
	<outline>
		<contour>
			<point x="153" y="162" type="curve" smooth="yes"/>
			<point x="275" y="735" type="line"/>
			<point x="165" y="735" type="line"/>
			<point x="42" y="159" type="line" smooth="yes"/>
			<point x="36" y="127"/>
			<point x="31" y="103"/>
			<point x="27" y="83" type="curve" smooth="yes"/>
			<point x="17" y="15"/>
			<point x="51" y="-6"/>
			<point x="109" y="-6" type="curve" smooth="yes"/>
			<point x="134" y="-6"/>
			<point x="160" y="-4"/>
			<point x="182" y="-1" type="curve"/>
			<point x="199" y="76" type="line"/>
			<point x="151" y="72"/>
			<point x="139" y="82"/>
			<point x="143" y="112" type="curve" smooth="yes"/>
			<point x="146" y="128"/>
			<point x="149" y="144"/>
		</contour>
		<contour>
			<point x="348" y="463" type="curve" smooth="yes"/>
			<point x="311" y="463"/>
			<point x="277" y="436"/>
			<point x="270" y="400" type="curve" smooth="yes"/>
			<point x="262" y="364"/>
			<point x="284" y="337"/>
			<point x="321" y="337" type="curve" smooth="yes"/>
			<point x="358" y="337"/>
			<point x="391" y="364"/>
			<point x="399" y="400" type="curve" smooth="yes"/>
			<point x="406" y="436"/>
			<point x="385" y="463"/>
		</contour>
	</outline>
</glyph>
<glyph name="Lslash" format="2">
	<advance width="615"/>
	<unicode hex="0141"/>
	<note>
		Lslash
	</note>
	<outline>
		<contour>
			<point x="542" y="0" type="line"/>
			<point x="561" y="91" type="line"/>
			<point x="194" y="91" type="line"/>
			<point x="249" y="350" type="line"/>
			<point x="379" y="417" type="line"/>
			<point x="396" y="495" type="line"/>
			<point x="266" y="428" type="line"/>
			<point x="321" y="690" type="line"/>
			<point x="212" y="690" type="line"/>
			<point x="143" y="365" type="line"/>
			<point x="26" y="305" type="line"/>
			<point x="9" y="227" type="line"/>
			<point x="127" y="287" type="line"/>
			<point x="66" y="0" type="line"/>
		</contour>
	</outline>
</glyph>
<glyph name="lslash" format="2">
	<advance width="297"/>
	<unicode hex="0142"/>
	<note>
		lslash
	</note>
	<outline>
		<contour>
			<point x="169" y="112" type="curve" smooth="yes"/>
			<point x="171" y="128"/>
			<point x="174" y="144"/>
			<point x="178" y="162" type="curve" smooth="yes"/>
			<point x="211" y="315" type="line"/>
			<point x="283" y="354" type="line"/>
			<point x="300" y="434" type="line"/>
			<point x="228" y="395" type="line"/>
			<point x="300" y="735" type="line"/>
			<point x="191" y="735" type="line"/>
			<point x="105" y="330" type="line"/>
			<point x="33" y="291" type="line"/>
			<point x="16" y="211" type="line"/>
			<point x="88" y="250" type="line"/>
			<point x="68" y="159" type="line" smooth="yes"/>
			<point x="62" y="127"/>
			<point x="57" y="103"/>
			<point x="53" y="83" type="curve" smooth="yes"/>
			<point x="42" y="15"/>
			<point x="77" y="-6"/>
			<point x="135" y="-6" type="curve" smooth="yes"/>
			<point x="160" y="-6"/>
			<point x="186" y="-4"/>
			<point x="208" y="-1" type="curve"/>
			<point x="225" y="76" type="line"/>
			<point x="177" y="72"/>
			<point x="165" y="82"/>
		</contour>
	</outline>
</glyph>
<glyph name="uni0145" format="2">
	<advance width="737"/>
	<unicode hex="0145"/>
	<note>
		Ncommaaccent
	</note>
	<outline>
		<contour>
			<point x="451" y="0" type="line"/>
			<point x="609" y="0" type="line"/>
			<point x="754" y="690" type="line"/>
			<point x="646" y="690" type="line"/>
			<point x="576" y="358" type="line" smooth="yes"/>
			<point x="561" y="287"/>
			<point x="542" y="195"/>
			<point x="528" y="117" type="curve"/>
			<point x="340" y="690" type="line"/>
			<point x="185" y="690" type="line"/>
			<point x="39" y="0" type="line"/>
			<point x="149" y="0" type="line"/>
			<point x="219" y="330" type="line" smooth="yes"/>
			<point x="234" y="401"/>
			<point x="252" y="490"/>
			<point x="266" y="569" type="curve"/>
		</contour>
		<contour>
			<point x="261" y="-200" type="line"/>
			<point x="362" y="-59" type="line"/>
			<point x="364" y="-48" type="line"/>
			<point x="283" y="-48" type="line"/>
			<point x="191" y="-200" type="line"/>
		</contour>
	</outline>
</glyph>
<glyph name="Ncaron" format="2">
	<advance width="737"/>
	<unicode hex="0147"/>
	<note>
		Ncaron
	</note>
	<outline>
		<contour>
			<point x="395" y="838" type="line"/>
			<point x="439" y="736" type="line"/>
			<point x="520" y="736" type="line"/>
			<point x="608" y="838" type="line"/>
			<point x="533" y="838" type="line"/>
			<point x="489" y="777" type="line"/>
			<point x="471" y="838" type="line"/>
		</contour>
		<contour>
			<point x="266" y="569" type="curve"/>
			<point x="451" y="0" type="line"/>
			<point x="609" y="0" type="line"/>
			<point x="754" y="690" type="line"/>
			<point x="646" y="690" type="line"/>
			<point x="576" y="358" type="line" smooth="yes"/>
			<point x="561" y="287"/>
			<point x="542" y="195"/>
			<point x="528" y="117" type="curve"/>
			<point x="340" y="690" type="line"/>
			<point x="185" y="690" type="line"/>
			<point x="39" y="0" type="line"/>
			<point x="149" y="0" type="line"/>
			<point x="219" y="330" type="line" smooth="yes"/>
			<point x="234" y="401"/>
			<point x="252" y="490"/>
		</contour>
	</outline>
</glyph>
<glyph name="Eng" format="2">
	<advance width="737"/>
	<unicode hex="014A"/>
	<note>
		Eng
	</note>
	<outline>
		<contour>
			<point x="595" y="-65" type="curve" smooth="yes"/>
			<point x="755" y="690" type="line"/>
			<point x="646" y="690" type="line"/>
			<point x="581" y="383" type="line" smooth="yes"/>
			<point x="566" y="312"/>
			<point x="551" y="235"/>
			<point x="536" y="157" type="curve"/>
			<point x="340" y="690" type="line"/>
			<point x="185" y="690" type="line"/>
			<point x="39" y="0" type="line"/>
			<point x="149" y="0" type="line"/>
			<point x="219" y="330" type="line" smooth="yes"/>
			<point x="234" y="401"/>
			<point x="251" y="484"/>
			<point x="264" y="563" type="curve"/>
			<point x="493" y="-28" type="line"/>
			<point x="484" y="-71" type="line" smooth="yes"/>
			<point x="475" y="-113"/>
			<point x="453" y="-136"/>
			<point x="397" y="-138" type="curve"/>
			<point x="379" y="-223" type="line"/>
			<point x="489" y="-223"/>
			<point x="557" y="-194"/>
			<point x="585" y="-106" type="curve" smooth="yes"/>
			<point x="589" y="-92"/>
			<point x="591" y="-83"/>
		</contour>
	</outline>
</glyph>
<glyph name="Scedilla" format="2">
	<advance width="595"/>
	<unicode hex="015E"/>
	<note>
		Scedilla
	</note>
	<outline>
		<contour>
			<point x="549" y="187" type="curve" smooth="yes"/>
			<point x="574" y="302"/>
			<point x="516" y="367"/>
			<point x="371" y="402" type="curve" smooth="yes"/>
			<point x="269" y="427"/>
			<point x="235" y="458"/>
			<point x="249" y="525" type="curve" smooth="yes"/>
			<point x="263" y="590"/>
			<point x="320" y="620"/>
			<point x="385" y="620" type="curve" smooth="yes"/>
			<point x="465" y="620"/>
			<point x="501" y="573"/>
			<point x="493" y="494" type="curve"/>
			<point x="607" y="494" type="line"/>
			<point x="618" y="614"/>
			<point x="562" y="704"/>
			<point x="409" y="704" type="curve" smooth="yes"/>
			<point x="280" y="704"/>
			<point x="155" y="629"/>
			<point x="129" y="507" type="curve" smooth="yes"/>
			<point x="104" y="387"/>
			<point x="181" y="338"/>
			<point x="305" y="307" type="curve" smooth="yes"/>
			<point x="411" y="281"/>
			<point x="446" y="244"/>
			<point x="430" y="172" type="curve" smooth="yes"/>
			<point x="417" y="109"/>
			<point x="352" y="70"/>
			<point x="280" y="70" type="curve" smooth="yes"/>
			<point x="199" y="70"/>
			<point x="148" y="115"/>
			<point x="148" y="200" type="curve"/>
			<point x="34" y="200" type="line"/>
			<point x="20" y="76"/>
			<point x="86" y="3"/>
			<point x="212" y="-11" type="curve"/>
			<point x="161" y="-81" type="line"/>
			<point x="233" y="-76"/>
			<point x="255" y="-91"/>
			<point x="249" y="-122" type="curve" smooth="yes"/>
			<point x="244" y="-146"/>
			<point x="220" y="-161"/>
			<point x="178" y="-161" type="curve" smooth="yes"/>
			<point x="159" y="-161"/>
			<point x="143" y="-159"/>
			<point x="127" y="-151" type="curve"/>
			<point x="116" y="-202" type="line"/>
			<point x="129" y="-208"/>
			<point x="147" y="-210"/>
			<point x="166" y="-210" type="curve" smooth="yes"/>
			<point x="244" y="-210"/>
			<point x="306" y="-181"/>
			<point x="319" y="-122" type="curve" smooth="yes"/>
			<point x="329" y="-76"/>
			<point x="305" y="-48"/>
			<point x="252" y="-41" type="curve"/>
			<point x="272" y="-14" type="line"/>
			<point x="402" y="-10"/>
			<point x="523" y="65"/>
		</contour>
	</outline>
</glyph>
<glyph name="scedilla" format="2">
	<advance width="476"/>
	<unicode hex="015F"/>
	<note>
		scedilla
	</note>
	<outline>
		<contour>
			<point x="423" y="140" type="curve" smooth="yes"/>
			<point x="443" y="234"/>
			<point x="392" y="280"/>
			<point x="283" y="310" type="curve" smooth="yes"/>
			<point x="208" y="331"/>
			<point x="173" y="351"/>
			<point x="183" y="399" type="curve" smooth="yes"/>
			<point x="192" y="439"/>
			<point x="223" y="468"/>
			<point x="275" y="468" type="curve" smooth="yes"/>
			<point x="329" y="468"/>
			<point x="355" y="435"/>
			<point x="354" y="379" type="curve"/>
			<point x="466" y="379" type="line"/>
			<point x="475" y="476"/>
			<point x="422" y="545"/>
			<point x="300" y="545" type="curve" smooth="yes"/>
			<point x="182" y="545"/>
			<point x="91" y="485"/>
			<point x="70" y="386" type="curve" smooth="yes"/>
			<point x="50" y="293"/>
			<point x="113" y="252"/>
			<point x="205" y="227" type="curve" smooth="yes"/>
			<point x="290" y="203"/>
			<point x="321" y="178"/>
			<point x="311" y="132" type="curve" smooth="yes"/>
			<point x="301" y="86"/>
			<point x="255" y="64"/>
			<point x="204" y="64" type="curve" smooth="yes"/>
			<point x="149" y="64"/>
			<point x="110" y="91"/>
			<point x="111" y="159" type="curve"/>
			<point x="0" y="159" type="line"/>
			<point x="-9" y="50"/>
			<point x="53" y="-4"/>
			<point x="153" y="-13" type="curve"/>
			<point x="102" y="-81" type="line"/>
			<point x="174" y="-76"/>
			<point x="196" y="-91"/>
			<point x="190" y="-122" type="curve" smooth="yes"/>
			<point x="185" y="-146"/>
			<point x="161" y="-161"/>
			<point x="119" y="-161" type="curve" smooth="yes"/>
			<point x="100" y="-161"/>
			<point x="84" y="-159"/>
			<point x="68" y="-151" type="curve"/>
			<point x="57" y="-202" type="line"/>
			<point x="70" y="-208"/>
			<point x="88" y="-210"/>
			<point x="107" y="-210" type="curve" smooth="yes"/>
			<point x="185" y="-210"/>
			<point x="247" y="-181"/>
			<point x="260" y="-122" type="curve" smooth="yes"/>
			<point x="270" y="-76"/>
			<point x="246" y="-48"/>
			<point x="193" y="-41" type="curve"/>
			<point x="213" y="-13" type="line"/>
			<point x="317" y="-5"/>
			<point x="403" y="46"/>
		</contour>
	</outline>
</glyph>
<glyph name="scaron" format="2">
	<advance width="476"/>
	<unicode hex="0161"/>
	<note>
		scaron
	</note>
	<outline>
		<contour>
			<point x="268" y="578" type="line"/>
			<point x="349" y="578" type="line"/>
			<point x="439" y="692" type="line"/>
			<point x="366" y="692" type="line"/>
			<point x="319" y="626" type="line"/>
			<point x="300" y="692" type="line"/>
			<point x="226" y="692" type="line"/>
		</contour>
		<contour>
			<point x="283" y="310" type="curve" smooth="yes"/>
			<point x="208" y="331"/>
			<point x="173" y="351"/>
			<point x="183" y="399" type="curve" smooth="yes"/>
			<point x="192" y="439"/>
			<point x="223" y="468"/>
			<point x="275" y="468" type="curve" smooth="yes"/>
			<point x="329" y="468"/>
			<point x="355" y="435"/>
			<point x="354" y="379" type="curve"/>
			<point x="466" y="379" type="line"/>
			<point x="475" y="476"/>
			<point x="422" y="545"/>
			<point x="300" y="545" type="curve" smooth="yes"/>
			<point x="182" y="545"/>
			<point x="91" y="485"/>
			<point x="70" y="386" type="curve" smooth="yes"/>
			<point x="50" y="293"/>
			<point x="113" y="252"/>
			<point x="205" y="227" type="curve" smooth="yes"/>
			<point x="290" y="203"/>
			<point x="321" y="178"/>
			<point x="311" y="132" type="curve" smooth="yes"/>
			<point x="301" y="86"/>
			<point x="255" y="64"/>
			<point x="204" y="64" type="curve" smooth="yes"/>
			<point x="149" y="64"/>
			<point x="110" y="91"/>
			<point x="111" y="159" type="curve"/>
			<point x="0" y="159" type="line"/>
			<point x="-10" y="39"/>
			<point x="66" y="-14"/>
			<point x="184" y="-14" type="curve" smooth="yes"/>
			<point x="300" y="-14"/>
			<point x="402" y="37"/>
			<point x="423" y="140" type="curve" smooth="yes"/>
			<point x="443" y="234"/>
			<point x="392" y="280"/>
		</contour>
	</outline>
</glyph>
<glyph name="Umacron" format="2">
	<advance width="691"/>
	<unicode hex="016A"/>
	<note>
		Umacron
	</note>
	<outline>
		<contour>
			<point x="336" y="758" type="line"/>
			<point x="591" y="758" type="line"/>
			<point x="604" y="821" type="line"/>
			<point x="349" y="821" type="line"/>
		</contour>
		<contour>
			<point x="629" y="267" type="curve" smooth="yes"/>
			<point x="719" y="690" type="line"/>
			<point x="610" y="690" type="line"/>
			<point x="520" y="265" type="line" smooth="yes"/>
			<point x="516" y="244"/>
			<point x="511" y="225"/>
			<point x="506" y="209" type="curve" smooth="yes"/>
			<point x="481" y="126"/>
			<point x="417" y="70"/>
			<point x="317" y="70" type="curve" smooth="yes"/>
			<point x="218" y="70"/>
			<point x="176" y="126"/>
			<point x="187" y="209" type="curve" smooth="yes"/>
			<point x="188" y="225"/>
			<point x="193" y="244"/>
			<point x="197" y="265" type="curve" smooth="yes"/>
			<point x="287" y="690" type="line"/>
			<point x="178" y="690" type="line"/>
			<point x="88" y="267" type="line" smooth="yes"/>
			<point x="83" y="242"/>
			<point x="79" y="222"/>
			<point x="75" y="196" type="curve" smooth="yes"/>
			<point x="60" y="81"/>
			<point x="119" y="-14"/>
			<point x="299" y="-14" type="curve" smooth="yes"/>
			<point x="479" y="-14"/>
			<point x="578" y="81"/>
			<point x="612" y="196" type="curve" smooth="yes"/>
			<point x="620" y="222"/>
			<point x="624" y="242"/>
		</contour>
	</outline>
</glyph>
<glyph name="Uogonek" format="2">
	<advance width="691"/>
	<unicode hex="0172"/>
	<note>
		Uogonek
	</note>
	<outline>
		<contour>
			<point x="629" y="267" type="curve" smooth="yes"/>
			<point x="719" y="690" type="line"/>
			<point x="610" y="690" type="line"/>
			<point x="520" y="265" type="line" smooth="yes"/>
			<point x="516" y="244"/>
			<point x="511" y="225"/>
			<point x="506" y="209" type="curve" smooth="yes"/>
			<point x="481" y="126"/>
			<point x="417" y="70"/>
			<point x="317" y="70" type="curve" smooth="yes"/>
			<point x="218" y="70"/>
			<point x="176" y="126"/>
			<point x="187" y="209" type="curve" smooth="yes"/>
			<point x="188" y="225"/>
			<point x="193" y="244"/>
			<point x="197" y="265" type="curve" smooth="yes"/>
			<point x="287" y="690" type="line"/>
			<point x="178" y="690" type="line"/>
			<point x="88" y="267" type="line" smooth="yes"/>
			<point x="83" y="242"/>
			<point x="79" y="222"/>
			<point x="75" y="196" type="curve" smooth="yes"/>
			<point x="60" y="83"/>
			<point x="117" y="-10"/>
			<point x="288" y="-14" type="curve"/>
			<point x="245" y="-42"/>
			<point x="208" y="-85"/>
			<point x="196" y="-138" type="curve" smooth="yes"/>
			<point x="183" y="-201"/>
			<point x="218" y="-223"/>
			<point x="276" y="-223" type="curve" smooth="yes"/>
			<point x="317" y="-223"/>
			<point x="354" y="-212"/>
			<point x="384" y="-192" type="curve"/>
			<point x="396" y="-137" type="line"/>
			<point x="375" y="-151"/>
			<point x="356" y="-157"/>
			<point x="338" y="-157" type="curve" smooth="yes"/>
			<point x="311" y="-157"/>
			<point x="297" y="-144"/>
			<point x="305" y="-107" type="curve" smooth="yes"/>
			<point x="316" y="-57"/>
			<point x="353" y="-18"/>
			<point x="393" y="-4" type="curve"/>
			<point x="515" y="23"/>
			<point x="585" y="103"/>
			<point x="612" y="196" type="curve" smooth="yes"/>
			<point x="620" y="222"/>
			<point x="624" y="242"/>
		</contour>
	</outline>
</glyph>
<glyph name="Wcircumflex" format="2">
	<advance width="968"/>
	<unicode hex="0174"/>
	<note>
		Wcircumflex
	</note>
	<outline>
		<contour>
			<point x="491" y="736" type="line"/>
			<point x="566" y="736" type="line"/>
			<point x="610" y="796" type="line"/>
			<point x="628" y="736" type="line"/>
			<point x="704" y="736" type="line"/>
			<point x="660" y="838" type="line"/>
			<point x="579" y="838" type="line"/>
		</contour>
		<contour>
			<point x="722" y="0" type="line"/>
			<point x="1056" y="690" type="line"/>
			<point x="942" y="690" type="line"/>
			<point x="674" y="88" type="line"/>
			<point x="661" y="680" type="line"/>
			<point x="510" y="680" type="line"/>
			<point x="242" y="91" type="line"/>
			<point x="237" y="690" type="line"/>
			<point x="116" y="690" type="line"/>
			<point x="148" y="0" type="line"/>
			<point x="294" y="0" type="line"/>
			<point x="564" y="588" type="line"/>
			<point x="577" y="0" type="line"/>
		</contour>
	</outline>
</glyph>
<glyph name="Ydieresis" format="2">
	<advance width="602"/>
	<unicode hex="0178"/>
	<note>
		Ydieresis
	</note>
	<outline>
		<contour>
			<point x="315" y="0" type="line"/>
			<point x="372" y="270" type="line"/>
			<point x="705" y="690" type="line"/>
			<point x="583" y="690" type="line"/>
			<point x="344" y="371" type="line"/>
			<point x="233" y="690" type="line"/>
			<point x="108" y="690" type="line"/>
			<point x="263" y="270" type="line"/>
			<point x="206" y="0" type="line"/>
		</contour>
		<contour>
			<point x="305" y="839" type="line"/>
			<point x="282" y="733" type="line"/>
			<point x="390" y="733" type="line"/>
			<point x="413" y="839" type="line"/>
		</contour>
		<contour>
			<point x="460" y="839" type="line"/>
			<point x="437" y="733" type="line"/>
			<point x="545" y="733" type="line"/>
			<point x="568" y="839" type="line"/>
		</contour>
	</outline>
</glyph>
<glyph name="Zacute" format="2">
	<advance width="605"/>
	<unicode hex="0179"/>
	<note>
		Zacute
	</note>
	<outline>
		<contour>
			<point x="377" y="736" type="line"/>
			<point x="443" y="736" type="line"/>
			<point x="562" y="838" type="line"/>
			<point x="462" y="838" type="line"/>
		</contour>
		<contour>
			<point x="525" y="0" type="line"/>
			<point x="543" y="88" type="line"/>
			<point x="141" y="88" type="line"/>
			<point x="648" y="604" type="line"/>
			<point x="666" y="690" type="line"/>
			<point x="166" y="690" type="line"/>
			<point x="148" y="603" type="line"/>
			<point x="520" y="603" type="line"/>
			<point x="10" y="84" type="line"/>
			<point x="-8" y="0" type="line"/>
		</contour>
	</outline>
</glyph>
<glyph name="Zdotaccent" format="2">
	<advance width="605"/>
	<unicode hex="017B"/>
	<note>
		Zdotaccent
	</note>
	<outline>
		<contour>
			<point x="415" y="734" type="curve" smooth="yes"/>
			<point x="448" y="734"/>
			<point x="478" y="758"/>
			<point x="485" y="791" type="curve" smooth="yes"/>
			<point x="492" y="823"/>
			<point x="472" y="847"/>
			<point x="439" y="847" type="curve" smooth="yes"/>
			<point x="406" y="847"/>
			<point x="376" y="823"/>
			<point x="369" y="791" type="curve" smooth="yes"/>
			<point x="362" y="758"/>
			<point x="382" y="734"/>
		</contour>
		<contour>
			<point x="525" y="0" type="line"/>
			<point x="543" y="88" type="line"/>
			<point x="141" y="88" type="line"/>
			<point x="648" y="604" type="line"/>
			<point x="666" y="690" type="line"/>
			<point x="166" y="690" type="line"/>
			<point x="148" y="603" type="line"/>
			<point x="520" y="603" type="line"/>
			<point x="10" y="84" type="line"/>
			<point x="-8" y="0" type="line"/>
		</contour>
	</outline>
</glyph>
<glyph name="zdotaccent" format="2">
	<advance width="478"/>
	<unicode hex="017C"/>
	<note>
		zdotaccent
	</note>
	<outline>
		<contour>
			<point x="311" y="589" type="curve" smooth="yes"/>
			<point x="348" y="589"/>
			<point x="382" y="616"/>
			<point x="389" y="653" type="curve" smooth="yes"/>
			<point x="397" y="689"/>
			<point x="375" y="716"/>
			<point x="338" y="716" type="curve" smooth="yes"/>
			<point x="301" y="716"/>
			<point x="268" y="689"/>
			<point x="260" y="653" type="curve" smooth="yes"/>
			<point x="253" y="616"/>
			<point x="274" y="589"/>
		</contour>
		<contour>
			<point x="393" y="0" type="line"/>
			<point x="409" y="79" type="line"/>
			<point x="108" y="79" type="line"/>
			<point x="484" y="448" type="line"/>
			<point x="501" y="527" type="line"/>
			<point x="100" y="527" type="line"/>
			<point x="83" y="448" type="line"/>
			<point x="362" y="448" type="line"/>
			<point x="-16" y="76" type="line"/>
			<point x="-32" y="0" type="line"/>
		</contour>
	</outline>
</glyph>
<glyph name="Zcaron" format="2">
	<advance width="605"/>
	<unicode hex="017D"/>
	<note>
		Zcaron
	</note>
	<outline>
		<contour>
			<point x="331" y="838" type="line"/>
			<point x="375" y="736" type="line"/>
			<point x="456" y="736" type="line"/>
			<point x="544" y="838" type="line"/>
			<point x="469" y="838" type="line"/>
			<point x="425" y="777" type="line"/>
			<point x="407" y="838" type="line"/>
		</contour>
		<contour>
			<point x="525" y="0" type="line"/>
			<point x="543" y="88" type="line"/>
			<point x="141" y="88" type="line"/>
			<point x="648" y="604" type="line"/>
			<point x="666" y="690" type="line"/>
			<point x="166" y="690" type="line"/>
			<point x="148" y="603" type="line"/>
			<point x="520" y="603" type="line"/>
			<point x="10" y="84" type="line"/>
			<point x="-8" y="0" type="line"/>
		</contour>
	</outline>
</glyph>
<glyph name="zcaron" format="2">
	<advance width="478"/>
	<unicode hex="017E"/>
	<note>
		zcaron
	</note>
	<outline>
		<contour>
			<point x="227" y="692" type="line"/>
			<point x="269" y="578" type="line"/>
			<point x="350" y="578" type="line"/>
			<point x="440" y="692" type="line"/>
			<point x="367" y="692" type="line"/>
			<point x="320" y="626" type="line"/>
			<point x="301" y="692" type="line"/>
		</contour>
		<contour>
			<point x="393" y="0" type="line"/>
			<point x="409" y="79" type="line"/>
			<point x="108" y="79" type="line"/>
			<point x="484" y="448" type="line"/>
			<point x="501" y="527" type="line"/>
			<point x="100" y="527" type="line"/>
			<point x="83" y="448" type="line"/>
			<point x="362" y="448" type="line"/>
			<point x="-16" y="76" type="line"/>
			<point x="-32" y="0" type="line"/>
		</contour>
	</outline>
</glyph>
<glyph name="uni021A" format="2">
	<advance width="617"/>
	<unicode hex="021A"/>
	<note>
		uni021A
	</note>
	<outline>
		<contour>
			<point x="451" y="603" type="line"/>
			<point x="692" y="603" type="line"/>
			<point x="710" y="690" type="line"/>
			<point x="119" y="690" type="line"/>
			<point x="101" y="603" type="line"/>
			<point x="342" y="603" type="line"/>
			<point x="214" y="0" type="line"/>
			<point x="323" y="0" type="line"/>
		</contour>
		<contour>
			<point x="309" y="-48" type="line"/>
			<point x="228" y="-48" type="line"/>
			<point x="136" y="-200" type="line"/>
			<point x="206" y="-200" type="line"/>
			<point x="307" y="-59" type="line"/>
		</contour>
	</outline>
</glyph>
<glyph name="uni021B" format="2">
	<advance width="335"/>
	<unicode hex="021B"/>
	<note>
		uni021B
	</note>
	<outline>
		<contour>
			<point x="180" y="172" type="curve" smooth="yes"/>
			<point x="239" y="450" type="line"/>
			<point x="343" y="450" type="line"/>
			<point x="360" y="527" type="line"/>
			<point x="256" y="527" type="line"/>
			<point x="283" y="654" type="line"/>
			<point x="174" y="654" type="line"/>
			<point x="147" y="527" type="line"/>
			<point x="72" y="527" type="line"/>
			<point x="55" y="450" type="line"/>
			<point x="130" y="450" type="line"/>
			<point x="69" y="162" type="line" smooth="yes"/>
			<point x="63" y="132"/>
			<point x="58" y="109"/>
			<point x="55" y="91" type="curve" smooth="yes"/>
			<point x="45" y="21"/>
			<point x="75" y="-10"/>
			<point x="158" y="-10" type="curve" smooth="yes"/>
			<point x="185" y="-10"/>
			<point x="211" y="-8"/>
			<point x="240" y="-4" type="curve"/>
			<point x="256" y="72" type="line"/>
			<point x="182" y="65"/>
			<point x="165" y="76"/>
			<point x="172" y="128" type="curve" smooth="yes"/>
			<point x="174" y="142"/>
			<point x="176" y="154"/>
		</contour>
		<contour>
			<point x="168" y="-48" type="line"/>
			<point x="87" y="-48" type="line"/>
			<point x="-5" y="-200" type="line"/>
			<point x="65" y="-200" type="line"/>
			<point x="166" y="-59" type="line"/>
		</contour>
	</outline>
</glyph>
<glyph name="caron" format="2">
	<advance width="300"/>
	<unicode hex="02C7"/>
	<note>
		caron
	</note>
	<outline>
		<contour>
			<point x="258" y="578" type="line"/>
			<point x="348" y="692" type="line"/>
			<point x="275" y="692" type="line"/>
			<point x="228" y="626" type="line"/>
			<point x="209" y="692" type="line"/>
			<point x="135" y="692" type="line"/>
			<point x="177" y="578" type="line"/>
		</contour>
	</outline>
</glyph>
<glyph name="tilde" format="2">
	<advance width="300"/>
	<unicode hex="02DC"/>
	<note>
		tilde
	</note>
	<outline>
		<contour>
			<point x="179" y="680" type="curve" smooth="yes"/>
			<point x="140" y="680"/>
			<point x="114" y="659"/>
			<point x="100" y="594" type="curve"/>
			<point x="152" y="594" type="line"/>
			<point x="155" y="610"/>
			<point x="163" y="616"/>
			<point x="173" y="616" type="curve" smooth="yes"/>
			<point x="182" y="616"/>
			<point x="192" y="613"/>
			<point x="214" y="604" type="curve" smooth="yes"/>
			<point x="242" y="594"/>
			<point x="257" y="590"/>
			<point x="278" y="590" type="curve" smooth="yes"/>
			<point x="318" y="590"/>
			<point x="345" y="611"/>
			<point x="359" y="677" type="curve"/>
			<point x="306" y="677" type="line"/>
			<point x="302" y="660"/>
			<point x="296" y="654"/>
			<point x="285" y="654" type="curve" smooth="yes"/>
			<point x="277" y="654"/>
			<point x="265" y="657"/>
			<point x="243" y="666" type="curve" smooth="yes"/>
			<point x="217" y="677"/>
			<point x="201" y="680"/>
		</contour>
	</outline>
</glyph>
<glyph name="hungarumlaut" format="2">
	<advance width="300"/>
	<unicode hex="02DD"/>
	<note>
		hungarumlaut
	</note>
	<outline>
		<contour>
			<point x="107" y="578" type="line"/>
			<point x="173" y="578" type="line"/>
			<point x="299" y="692" type="line"/>
			<point x="199" y="692" type="line"/>
		</contour>
		<contour>
			<point x="246" y="578" type="line"/>
			<point x="312" y="578" type="line"/>
			<point x="438" y="692" type="line"/>
			<point x="338" y="692" type="line"/>
		</contour>
	</outline>
</glyph>
<glyph name="wdieresis" format="2">
	<advance width="806"/>
	<unicode hex="1E85"/>
	<note>
		wdieresis
	</note>
	<outline>
		<contour>
			<point x="578" y="0" type="line"/>
			<point x="860" y="531" type="line"/>
			<point x="743" y="531" type="line"/>
			<point x="541" y="97" type="line"/>
			<point x="527" y="530" type="line"/>
			<point x="393" y="530" type="line"/>
			<point x="199" y="98" type="line"/>
			<point x="182" y="531" type="line"/>
			<point x="58" y="531" type="line"/>
			<point x="114" y="0" type="line"/>
			<point x="241" y="0" type="line"/>
			<point x="438" y="429" type="line"/>
			<point x="452" y="0" type="line"/>
		</contour>
		<contour>
			<point x="361" y="688" type="line"/>
			<point x="338" y="582" type="line"/>
			<point x="446" y="582" type="line"/>
			<point x="469" y="688" type="line"/>
		</contour>
		<contour>
			<point x="516" y="688" type="line"/>
			<point x="493" y="582" type="line"/>
			<point x="601" y="582" type="line"/>
			<point x="624" y="688" type="line"/>
		</contour>
	</outline>
</glyph>
<glyph name="Ygrave" format="2">
	<advance width="602"/>
	<unicode hex="1EF2"/>
	<note>
		Ygrave
	</note>
	<outline>
		<contour>
			<point x="314" y="838" type="line"/>
			<point x="389" y="736" type="line"/>
			<point x="455" y="736" type="line"/>
			<point x="414" y="838" type="line"/>
		</contour>
		<contour>
			<point x="315" y="0" type="line"/>
			<point x="372" y="270" type="line"/>
			<point x="705" y="690" type="line"/>
			<point x="583" y="690" type="line"/>
			<point x="344" y="371" type="line"/>
			<point x="233" y="690" type="line"/>
			<point x="108" y="690" type="line"/>
			<point x="263" y="270" type="line"/>
			<point x="206" y="0" type="line"/>
		</contour>
	</outline>
</glyph>
<glyph name="emdash" format="2">
	<advance width="1000"/>
	<unicode hex="2014"/>
	<note>
		emdash
	</note>
	<outline>
		<contour>
			<point x="74" y="259" type="line"/>
			<point x="924" y="259" type="line"/>
			<point x="938" y="325" type="line"/>
			<point x="88" y="325" type="line"/>
		</contour>
	</outline>
</glyph>
<glyph name="quotedblleft" format="2">
	<advance width="453"/>
	<unicode hex="201C"/>
	<note>
		quotedblleft
	</note>
	<outline>
		<contour>
			<point x="253" y="736" type="line"/>
			<point x="102" y="484" type="line"/>
			<point x="99" y="474" type="line"/>
			<point x="211" y="474" type="line"/>
			<point x="345" y="736" type="line"/>
		</contour>
		<contour>
			<point x="440" y="736" type="line"/>
			<point x="289" y="484" type="line"/>
			<point x="286" y="474" type="line"/>
			<point x="398" y="474" type="line"/>
			<point x="532" y="736" type="line"/>
		</contour>
	</outline>
</glyph>
<glyph name="quotedblbase" format="2">
	<advance width="419"/>
	<unicode hex="201E"/>
	<note>
		quotedblbase
	</note>
	<outline>
		<contour>
			<point x="-16" y="-121" type="line"/>
			<point x="127" y="108" type="line"/>
			<point x="129" y="118" type="line"/>
			<point x="18" y="118" type="line"/>
			<point x="-112" y="-121" type="line"/>
		</contour>
		<contour>
			<point x="171" y="-121" type="line"/>
			<point x="315" y="108" type="line"/>
			<point x="317" y="118" type="line"/>
			<point x="205" y="118" type="line"/>
			<point x="76" y="-121" type="line"/>
		</contour>
	</outline>
</glyph>
<glyph name="fraction" format="2">
	<advance width="269"/>
	<unicode hex="2044"/>
	<note>
		fraction
	</note>
	<outline>
		<contour>
			<point x="-194" y="0" type="line"/>
			<point x="-98" y="0" type="line"/>
			<point x="496" y="690" type="line"/>
			<point x="400" y="690" type="line"/>
		</contour>
	</outline>
</glyph>
<glyph name="Euro" format="2">
	<advance width="601"/>
	<unicode hex="20AC"/>
	<note>
		Euro
	</note>
	<outline>
		<contour>
			<point x="222" y="251" type="curve"/>
			<point x="469" y="251" type="line"/>
			<point x="494" y="317" type="line"/>
			<point x="230" y="317" type="line"/>
			<point x="232" y="326"/>
			<point x="234" y="336"/>
			<point x="236" y="346" type="curve" smooth="yes"/>
			<point x="241" y="370" type="line"/>
			<point x="514" y="370" type="line"/>
			<point x="542" y="436" type="line"/>
			<point x="261" y="436" type="line"/>
			<point x="311" y="569"/>
			<point x="390" y="620"/>
			<point x="482" y="620" type="curve" smooth="yes"/>
			<point x="531" y="620"/>
			<point x="571" y="605"/>
			<point x="597" y="572" type="curve"/>
			<point x="659" y="642" type="line"/>
			<point x="632" y="682"/>
			<point x="578" y="704"/>
			<point x="499" y="704" type="curve" smooth="yes"/>
			<point x="345" y="704"/>
			<point x="211" y="620"/>
			<point x="143" y="436" type="curve"/>
			<point x="102" y="436" type="line"/>
			<point x="75" y="370" type="line"/>
			<point x="123" y="370" type="line"/>
			<point x="120" y="361"/>
			<point x="118" y="352"/>
			<point x="116" y="342" type="curve" smooth="yes"/>
			<point x="111" y="317" type="line"/>
			<point x="55" y="317" type="line"/>
			<point x="29" y="251" type="line"/>
			<point x="102" y="251" type="line"/>
			<point x="83" y="54"/>
			<point x="174" y="-14"/>
			<point x="332" y="-14" type="curve" smooth="yes"/>
			<point x="397" y="-14"/>
			<point x="447" y="-4"/>
			<point x="502" y="24" type="curve"/>
			<point x="520" y="110" type="line"/>
			<point x="470" y="82"/>
			<point x="422" y="70"/>
			<point x="365" y="70" type="curve" smooth="yes"/>
			<point x="267" y="70"/>
			<point x="213" y="120"/>
		</contour>
	</outline>
</glyph>
<glyph name="summation" format="2">
	<advance width="601"/>
	<unicode hex="2211"/>
	<note>
		summation
	</note>
	<outline>
		<contour>
			<point x="475" y="-110" type="line"/>
			<point x="494" y="-23" type="line"/>
			<point x="117" y="-23" type="line"/>
			<point x="450" y="300" type="line"/>
			<point x="281" y="603" type="line"/>
			<point x="621" y="603" type="line"/>
			<point x="639" y="690" type="line"/>
			<point x="168" y="690" type="line"/>
			<point x="152" y="611" type="line"/>
			<point x="324" y="301" type="line"/>
			<point x="-15" y="-31" type="line"/>
			<point x="-32" y="-110" type="line"/>
		</contour>
	</outline>
</glyph>
<glyph name="minus" format="2">
	<advance width="601"/>
	<unicode hex="2212"/>
	<note>
		minus
	</note>
	<outline>
		<contour>
			<point x="91" y="286" type="line"/>
			<point x="518" y="286" type="line"/>
			<point x="532" y="352" type="line"/>
			<point x="105" y="352" type="line"/>
		</contour>
	</outline>
</glyph>
<glyph name="lessequal" format="2">
	<advance width="601"/>
	<unicode hex="2264"/>
	<note>
		lessequal
	</note>
	<outline>
		<contour>
			<point x="180" y="310" type="line"/>
			<point x="559" y="436" type="line"/>
			<point x="576" y="515" type="line"/>
			<point x="117" y="354" type="line"/>
			<point x="99" y="269" type="line"/>
			<point x="489" y="107" type="line"/>
			<point x="506" y="186" type="line"/>
		</contour>
		<contour>
			<point x="481" y="66" type="line"/>
			<point x="56" y="66" type="line"/>
			<point x="42" y="0" type="line"/>
			<point x="467" y="0" type="line"/>
		</contour>
	</outline>
</glyph>
<glyph name="greaterequal" format="2">
	<advance width="601"/>
	<unicode hex="2265"/>
	<note>
		greaterequal
	</note>
	<outline>
		<contour>
			<point x="502" y="269" type="line"/>
			<point x="520" y="354" type="line"/>
			<point x="131" y="515" type="line"/>
			<point x="114" y="436" type="line"/>
			<point x="439" y="312" type="line"/>
			<point x="61" y="186" type="line"/>
			<point x="44" y="107" type="line"/>
		</contour>
		<contour>
			<point x="459" y="66" type="line"/>
			<point x="36" y="66" type="line"/>
			<point x="22" y="0" type="line"/>
			<point x="445" y="0" type="line"/>
		</contour>
	</outline>
</glyph>
<glyph name="lozenge" format="2">
	<advance width="523"/>
	<unicode hex="25CA"/>
	<note>
		lozenge
	</note>
	<outline>
		<contour>
			<point x="249" y="0" type="line"/>
			<point x="487" y="345" type="line"/>
			<point x="395" y="690" type="line"/>
			<point x="308" y="690" type="line"/>
			<point x="70" y="345" type="line"/>
			<point x="162" y="0" type="line"/>
		</contour>
		<contour>
			<point x="337" y="618" type="line"/>
			<point x="404" y="345" type="line"/>
			<point x="221" y="72" type="line"/>
			<point x="153" y="345" type="line"/>
		</contour>
	</outline>
</glyph>
<glyph name="fl" format="2">
	<advance width="551"/>
	<unicode hex="FB02"/>
	<note>
		fl
	</note>
	<outline>
		<contour>
			<point x="432" y="112" type="curve" smooth="yes"/>
			<point x="435" y="128"/>
			<point x="438" y="144"/>
			<point x="442" y="162" type="curve" smooth="yes"/>
			<point x="563" y="732" type="line"/>
			<point x="522" y="747"/>
			<point x="467" y="754"/>
			<point x="395" y="754" type="curve" smooth="yes"/>
			<point x="252" y="754"/>
			<point x="172" y="696"/>
			<point x="141" y="599" type="curve" smooth="yes"/>
			<point x="135" y="581"/>
			<point x="130" y="558"/>
			<point x="126" y="539" type="curve" smooth="yes"/>
			<point x="124" y="527" type="line"/>
			<point x="77" y="527" type="line"/>
			<point x="60" y="450" type="line"/>
			<point x="107" y="450" type="line"/>
			<point x="12" y="0" type="line"/>
			<point x="121" y="0" type="line"/>
			<point x="216" y="450" type="line"/>
			<point x="325" y="450" type="line"/>
			<point x="342" y="527" type="line"/>
			<point x="233" y="527" type="line"/>
			<point x="237" y="545" type="line" smooth="yes"/>
			<point x="239" y="559"/>
			<point x="245" y="581"/>
			<point x="250" y="595" type="curve" smooth="yes"/>
			<point x="266" y="642"/>
			<point x="305" y="674"/>
			<point x="375" y="674" type="curve" smooth="yes"/>
			<point x="400" y="674"/>
			<point x="422" y="672"/>
			<point x="440" y="667" type="curve"/>
			<point x="332" y="159" type="line" smooth="yes"/>
			<point x="326" y="127"/>
			<point x="321" y="103"/>
			<point x="317" y="83" type="curve" smooth="yes"/>
			<point x="306" y="15"/>
			<point x="341" y="-6"/>
			<point x="396" y="-6" type="curve" smooth="yes"/>
			<point x="421" y="-6"/>
			<point x="448" y="-4"/>
			<point x="472" y="-1" type="curve"/>
			<point x="488" y="74" type="line"/>
			<point x="442" y="69"/>
			<point x="428" y="79"/>
		</contour>
	</outline>
</glyph>
<glyph name="uF1010" format="2">
	<advance width="942"/>
	<unicode hex="F1010"/>
	<outline>
		<contour>
			<point x="207" y="228" type="line"/>
			<point x="429" y="228" type="line"/>
			<point x="366" y="-69" type="line"/>
			<point x="843" y="-69" type="line"/>
			<point x="862" y="19" type="line"/>
			<point x="495" y="19" type="line"/>
			<point x="540" y="233" type="line"/>
			<point x="869" y="233" type="line"/>
			<point x="888" y="320" type="line"/>
			<point x="559" y="320" type="line"/>
			<point x="604" y="534" type="line"/>
			<point x="961" y="534" type="line"/>
			<point x="980" y="621" type="line"/>
			<point x="513" y="621" type="line"/>
			<point x="503" y="690" type="line"/>
			<point x="361" y="690" type="line"/>
			<point x="-33" y="0" type="line"/>
			<point x="84" y="0" type="line"/>
		</contour>
		<contour>
			<point x="255" y="315" type="line"/>
			<point x="411" y="599" type="line"/>
			<point x="442" y="315" type="line"/>
		</contour>
	</outline>
</glyph>
<glyph name="uF1030" format="2">
	<advance width="1149"/>
	<unicode hex="F1030"/>
	<outline>
		<contour>
			<point x="207" y="228" type="line"/>
			<point x="453" y="228" type="line"/>
			<point x="458" y="79"/>
			<point x="550" y="-16"/>
			<point x="721" y="-16" type="curve" smooth="yes"/>
			<point x="932" y="-16"/>
			<point x="1084" y="130"/>
			<point x="1130" y="343" type="curve" smooth="yes"/>
			<point x="1175" y="557"/>
			<point x="1085" y="702"/>
			<point x="874" y="702" type="curve" smooth="yes"/>
			<point x="723" y="702"/>
			<point x="603" y="629"/>
			<point x="530" y="510" type="curve"/>
			<point x="503" y="690" type="line"/>
			<point x="361" y="690" type="line"/>
			<point x="-33" y="0" type="line"/>
			<point x="84" y="0" type="line"/>
		</contour>
		<contour>
			<point x="255" y="315" type="line"/>
			<point x="411" y="599" type="line"/>
			<point x="442" y="315" type="line"/>
		</contour>
		<contour>
			<point x="583" y="343" type="curve" smooth="yes"/>
			<point x="619" y="515"/>
			<point x="721" y="618"/>
			<point x="856" y="618" type="curve" smooth="yes"/>
			<point x="990" y="618"/>
			<point x="1048" y="515"/>
			<point x="1012" y="343" type="curve" smooth="yes"/>
			<point x="975" y="172"/>
			<point x="873" y="68"/>
			<point x="739" y="68" type="curve" smooth="yes"/>
			<point x="604" y="68"/>
			<point x="546" y="172"/>
		</contour>
	</outline>
</glyph>
<glyph name="uF1540" format="2">
	<advance width="998"/>
	<unicode hex="F1540"/>
	<outline>
		<contour>
			<point x="346" y="545" type="curve" smooth="yes"/>
			<point x="207" y="545"/>
			<point x="67" y="444"/>
			<point x="29" y="263" type="curve" smooth="yes"/>
			<point x="-12" y="74"/>
			<point x="75" y="-14"/>
			<point x="214" y="-14" type="curve" smooth="yes"/>
			<point x="292" y="-14"/>
			<point x="362" y="10"/>
			<point x="416" y="59" type="curve"/>
			<point x="447" y="13"/>
			<point x="503" y="-14"/>
			<point x="578" y="-14" type="curve" smooth="yes"/>
			<point x="632" y="-14"/>
			<point x="690" y="2"/>
			<point x="725" y="26" type="curve"/>
			<point x="778" y="84" type="line"/>
			<point x="718" y="-196" type="line"/>
			<point x="828" y="-196" type="line"/>
			<point x="983" y="531" type="line"/>
			<point x="873" y="531" type="line"/>
			<point x="857" y="459" type="line"/>
			<point x="834" y="512" type="line"/>
			<point x="811" y="533"/>
			<point x="759" y="545"/>
			<point x="715" y="545" type="curve" smooth="yes"/>
			<point x="644" y="545"/>
			<point x="570" y="520"/>
			<point x="512" y="468" type="curve"/>
			<point x="481" y="516"/>
			<point x="426" y="545"/>
		</contour>
		<contour>
			<point x="146" y="271" type="curve" smooth="yes"/>
			<point x="175" y="404"/>
			<point x="249" y="465"/>
			<point x="326" y="465" type="curve" smooth="yes"/>
			<point x="391" y="465"/>
			<point x="426" y="428"/>
			<point x="424" y="347" type="curve"/>
			<point x="535" y="347" type="line"/>
			<point x="573" y="426"/>
			<point x="643" y="465"/>
			<point x="710" y="465" type="curve" smooth="yes"/>
			<point x="781" y="465"/>
			<point x="848" y="417"/>
			<point x="821" y="288" type="curve" smooth="yes"/>
			<point x="815" y="260" type="line" smooth="yes"/>
			<point x="785" y="118"/>
			<point x="703" y="66"/>
			<point x="620" y="66" type="curve" smooth="yes"/>
			<point x="551" y="66"/>
			<point x="502" y="107"/>
			<point x="496" y="176" type="curve"/>
			<point x="384" y="176" type="line"/>
			<point x="353" y="104"/>
			<point x="300" y="66"/>
			<point x="237" y="66" type="curve" smooth="yes"/>
			<point x="163" y="66"/>
			<point x="116" y="127"/>
		</contour>
	</outline>
</glyph>
<glyph name="uF1610" format="2">
	<advance width="989"/>
	<unicode hex="F1610"/>
	<outline>
		<contour>
			<point x="346" y="92" type="curve" smooth="yes"/>
			<point x="323" y="88"/>
			<point x="300" y="88"/>
			<point x="266" y="88" type="curve" smooth="yes"/>
			<point x="167" y="88" type="line"/>
			<point x="277" y="603" type="line"/>
			<point x="380" y="603" type="line" smooth="yes"/>
			<point x="413" y="603"/>
			<point x="437" y="602"/>
			<point x="458" y="598" type="curve" smooth="yes"/>
			<point x="564" y="582"/>
			<point x="616" y="498"/>
			<point x="585" y="353" type="curve" smooth="yes"/>
			<point x="552" y="200"/>
			<point x="461" y="108"/>
		</contour>
		<contour>
			<point x="39" y="0" type="line"/>
			<point x="258" y="0" type="line"/>
			<point x="278" y="0" type="line"/>
			<point x="905" y="1" type="line"/>
			<point x="924" y="89" type="line"/>
			<point x="546" y="88" type="line"/>
			<point x="608" y="138"/>
			<point x="658" y="208"/>
			<point x="688" y="297" type="curve"/>
			<point x="692" y="302" type="line"/>
			<point x="931" y="303" type="line"/>
			<point x="950" y="390" type="line"/>
			<point x="710" y="389" type="line"/>
			<point x="710" y="392" type="line"/>
			<point x="723" y="485"/>
			<point x="705" y="555"/>
			<point x="665" y="603" type="curve"/>
			<point x="1023" y="604" type="line"/>
			<point x="1042" y="691" type="line"/>
			<point x="185" y="690" type="line"/>
		</contour>
	</outline>
</glyph>
<glyph name="uF1810" format="2">
	<advance width="974"/>
	<unicode hex="F1810"/>
	<outline>
		<contour>
			<point x="516" y="0" type="line"/>
			<point x="534" y="88" type="line"/>
			<point x="167" y="88" type="line"/>
			<point x="213" y="302" type="line"/>
			<point x="786" y="302" type="line"/>
			<point x="812" y="74" type="line"/>
			<point x="931" y="74" type="line"/>
			<point x="837" y="764" type="line"/>
			<point x="695" y="764" type="line"/>
			<point x="651" y="690" type="line"/>
			<point x="185" y="690" type="line"/>
			<point x="39" y="0" type="line"/>
		</contour>
		<contour>
			<point x="231" y="389" type="line"/>
			<point x="277" y="603" type="line"/>
			<point x="601" y="603" type="line"/>
			<point x="475" y="389" type="line"/>
		</contour>
		<contour>
			<point x="588" y="389" type="line"/>
			<point x="745" y="673" type="line"/>
			<point x="775" y="389" type="line"/>
		</contour>
	</outline>
</glyph>
<glyph name="uF1820" format="2">
	<advance width="930"/>
	<unicode hex="F1820"/>
	<outline>
		<contour>
			<point x="399" y="736" type="line"/>
			<point x="465" y="736" type="line"/>
			<point x="584" y="838" type="line"/>
			<point x="484" y="838" type="line"/>
		</contour>
		<contour>
			<point x="39" y="0" type="line"/>
			<point x="846" y="0" type="line"/>
			<point x="864" y="88" type="line"/>
			<point x="497" y="88" type="line"/>
			<point x="543" y="302" type="line"/>
			<point x="872" y="302" type="line"/>
			<point x="890" y="389" type="line"/>
			<point x="561" y="389" type="line"/>
			<point x="607" y="603" type="line"/>
			<point x="964" y="603" type="line"/>
			<point x="982" y="690" type="line"/>
			<point x="185" y="690" type="line"/>
		</contour>
		<contour>
			<point x="167" y="88" type="line"/>
			<point x="213" y="302" type="line"/>
			<point x="433" y="302" type="line"/>
			<point x="387" y="88" type="line"/>
		</contour>
		<contour>
			<point x="231" y="389" type="line"/>
			<point x="277" y="603" type="line"/>
			<point x="497" y="603" type="line"/>
			<point x="451" y="389" type="line"/>
		</contour>
	</outline>
</glyph>
<glyph name="uF18A0" format="2">
	<advance width="1029"/>
	<unicode hex="F18A0"/>
	<outline>
		<contour>
			<point x="967" y="267" type="curve" smooth="yes"/>
			<point x="1057" y="690" type="line"/>
			<point x="948" y="690" type="line"/>
			<point x="858" y="265" type="line" smooth="yes"/>
			<point x="854" y="244"/>
			<point x="849" y="225"/>
			<point x="844" y="209" type="curve" smooth="yes"/>
			<point x="819" y="126"/>
			<point x="755" y="70"/>
			<point x="655" y="70" type="curve" smooth="yes"/>
			<point x="556" y="70"/>
			<point x="514" y="126"/>
			<point x="525" y="209" type="curve" smooth="yes"/>
			<point x="526" y="225"/>
			<point x="531" y="244"/>
			<point x="535" y="265" type="curve" smooth="yes"/>
			<point x="561" y="389" type="line"/>
			<point x="231" y="389" type="line"/>
			<point x="277" y="603" type="line"/>
			<point x="634" y="603" type="line"/>
			<point x="652" y="690" type="line"/>
			<point x="185" y="690" type="line"/>
			<point x="39" y="0" type="line"/>
			<point x="532" y="0" type="line"/>
			<point x="561" y="-9"/>
			<point x="596" y="-14"/>
			<point x="637" y="-14" type="curve" smooth="yes"/>
			<point x="817" y="-14"/>
			<point x="916" y="81"/>
			<point x="950" y="196" type="curve" smooth="yes"/>
			<point x="958" y="222"/>
			<point x="962" y="242"/>
		</contour>
		<contour>
			<point x="167" y="88" type="line"/>
			<point x="213" y="302" type="line"/>
			<point x="434" y="302" type="line"/>
			<point x="426" y="267" type="line" smooth="yes"/>
			<point x="421" y="242"/>
			<point x="417" y="222"/>
			<point x="413" y="196" type="curve" smooth="yes"/>
			<point x="408" y="157"/>
			<point x="411" y="120"/>
			<point x="425" y="88" type="curve"/>
		</contour>
	</outline>
</glyph>
<glyph name="uF1950" format="2">
	<advance width="853"/>
	<unicode hex="F1950"/>
	<outline>
		<contour>
			<point x="529" y="279" type="curve" smooth="yes"/>
			<point x="537" y="315"/>
			<point x="539" y="348"/>
			<point x="536" y="379" type="curve" smooth="yes"/>
			<point x="527" y="478"/>
			<point x="466" y="545"/>
			<point x="349" y="545" type="curve" smooth="yes"/>
			<point x="196" y="545"/>
			<point x="64" y="432"/>
			<point x="29" y="264" type="curve" smooth="yes"/>
			<point x="-11" y="76"/>
			<point x="77" y="-14"/>
			<point x="219" y="-14" type="curve" smooth="yes"/>
			<point x="335" y="-14"/>
			<point x="448" y="46"/>
			<point x="498" y="172" type="curve"/>
			<point x="387" y="172" type="line"/>
			<point x="362" y="105"/>
			<point x="304" y="66"/>
			<point x="240" y="66" type="curve" smooth="yes"/>
			<point x="168" y="66"/>
			<point x="119" y="108"/>
			<point x="137" y="235" type="curve"/>
			<point x="518" y="235" type="line"/>
			<point x="524" y="254"/>
			<point x="527" y="269"/>
		</contour>
		<contour>
			<point x="425" y="371" type="curve"/>
			<point x="426" y="371" type="line"/>
			<point x="429" y="264"/>
			<point x="496" y="212"/>
			<point x="609" y="212" type="curve" smooth="yes"/>
			<point x="725" y="212"/>
			<point x="827" y="263"/>
			<point x="848" y="366" type="curve" smooth="yes"/>
			<point x="868" y="460"/>
			<point x="817" y="506"/>
			<point x="708" y="536" type="curve" smooth="yes"/>
			<point x="633" y="557"/>
			<point x="598" y="577"/>
			<point x="609" y="625" type="curve" smooth="yes"/>
			<point x="617" y="665"/>
			<point x="648" y="694"/>
			<point x="700" y="694" type="curve" smooth="yes"/>
			<point x="754" y="694"/>
			<point x="780" y="661"/>
			<point x="779" y="605" type="curve"/>
			<point x="891" y="605" type="line"/>
			<point x="900" y="702"/>
			<point x="847" y="771"/>
			<point x="725" y="771" type="curve" smooth="yes"/>
			<point x="607" y="771"/>
			<point x="516" y="711"/>
			<point x="495" y="612" type="curve" smooth="yes"/>
			<point x="475" y="519"/>
			<point x="538" y="478"/>
			<point x="630" y="453" type="curve" smooth="yes"/>
			<point x="715" y="429"/>
			<point x="746" y="404"/>
			<point x="736" y="358" type="curve" smooth="yes"/>
			<point x="726" y="312"/>
			<point x="680" y="290"/>
			<point x="629" y="290" type="curve" smooth="yes"/>
			<point x="574" y="290"/>
			<point x="544" y="329"/>
			<point x="535" y="391" type="curve"/>
			<point x="426" y="385" type="line"/>
			<point x="425" y="380"/>
			<point x="426" y="376"/>
			<point x="426" y="371" type="curve"/>
			<point x="425" y="371" type="line"/>
			<point x="427" y="354"/>
			<point x="426" y="334"/>
			<point x="423" y="312" type="curve"/>
			<point x="154" y="312" type="line"/>
			<point x="188" y="414"/>
			<point x="253" y="465"/>
			<point x="328" y="465" type="curve" smooth="yes"/>
			<point x="388" y="465"/>
			<point x="419" y="432"/>
		</contour>
	</outline>
</glyph>
<glyph name="uF19A0" format="2">
	<advance width="950"/>
	<unicode hex="F19A0"/>
	<outline>
		<contour>
			<point x="529" y="279" type="curve" smooth="yes"/>
			<point x="561" y="429"/>
			<point x="503" y="545"/>
			<point x="349" y="545" type="curve" smooth="yes"/>
			<point x="196" y="545"/>
			<point x="64" y="432"/>
			<point x="29" y="264" type="curve" smooth="yes"/>
			<point x="-11" y="76"/>
			<point x="77" y="-14"/>
			<point x="219" y="-14" type="curve" smooth="yes"/>
			<point x="284" y="-14"/>
			<point x="349" y="5"/>
			<point x="402" y="44" type="curve"/>
			<point x="426" y="9"/>
			<point x="471" y="-14"/>
			<point x="539" y="-14" type="curve" smooth="yes"/>
			<point x="592" y="-14"/>
			<point x="633" y="-5"/>
			<point x="681" y="25" type="curve"/>
			<point x="732" y="91" type="line"/>
			<point x="713" y="0" type="line"/>
			<point x="822" y="0" type="line"/>
			<point x="935" y="531" type="line"/>
			<point x="826" y="531" type="line"/>
			<point x="772" y="281" type="line" smooth="yes"/>
			<point x="740" y="127"/>
			<point x="669" y="68"/>
			<point x="592" y="68" type="curve" smooth="yes"/>
			<point x="524" y="68"/>
			<point x="496" y="114"/>
			<point x="500" y="172" type="curve"/>
			<point x="387" y="172" type="line"/>
			<point x="362" y="105"/>
			<point x="304" y="66"/>
			<point x="240" y="66" type="curve" smooth="yes"/>
			<point x="168" y="66"/>
			<point x="119" y="108"/>
			<point x="137" y="235" type="curve"/>
			<point x="518" y="235" type="line"/>
			<point x="524" y="254"/>
			<point x="527" y="269"/>
		</contour>
		<contour>
			<point x="154" y="312" type="line"/>
			<point x="188" y="414"/>
			<point x="253" y="465"/>
			<point x="328" y="465" type="curve" smooth="yes"/>
			<point x="405" y="465"/>
			<point x="436" y="410"/>
			<point x="423" y="312" type="curve"/>
		</contour>
	</outline>
</glyph>
<glyph name="uF1B00" format="2">
	<advance width="1392"/>
	<unicode hex="F1B00"/>
	<outline>
		<contour>
			<point x="529" y="279" type="curve" smooth="yes"/>
			<point x="561" y="429"/>
			<point x="503" y="545"/>
			<point x="349" y="545" type="curve" smooth="yes"/>
			<point x="196" y="545"/>
			<point x="64" y="432"/>
			<point x="29" y="264" type="curve" smooth="yes"/>
			<point x="-11" y="76"/>
			<point x="77" y="-14"/>
			<point x="219" y="-14" type="curve" smooth="yes"/>
			<point x="335" y="-14"/>
			<point x="448" y="46"/>
			<point x="498" y="172" type="curve"/>
			<point x="387" y="172" type="line"/>
			<point x="362" y="105"/>
			<point x="304" y="66"/>
			<point x="240" y="66" type="curve" smooth="yes"/>
			<point x="168" y="66"/>
			<point x="119" y="108"/>
			<point x="137" y="235" type="curve"/>
			<point x="518" y="235" type="line"/>
			<point x="524" y="254"/>
			<point x="527" y="269"/>
		</contour>
		<contour>
			<point x="328" y="465" type="curve" smooth="yes"/>
			<point x="405" y="465"/>
			<point x="436" y="410"/>
			<point x="423" y="312" type="curve"/>
			<point x="154" y="312" type="line"/>
			<point x="188" y="414"/>
			<point x="253" y="465"/>
		</contour>
		<contour>
			<point x="742" y="172" type="curve" smooth="yes"/>
			<point x="801" y="450" type="line"/>
			<point x="1393" y="450" type="line"/>
			<point x="1399" y="469"/>
			<point x="1403" y="484"/>
			<point x="1405" y="494" type="curve" smooth="yes"/>
			<point x="1437" y="644"/>
			<point x="1378" y="760"/>
			<point x="1224" y="760" type="curve" smooth="yes"/>
			<point x="1086" y="760"/>
			<point x="967" y="668"/>
			<point x="918" y="527" type="curve"/>
			<point x="818" y="527" type="line"/>
			<point x="845" y="654" type="line"/>
			<point x="736" y="654" type="line"/>
			<point x="709" y="527" type="line"/>
			<point x="634" y="527" type="line"/>
			<point x="617" y="450" type="line"/>
			<point x="692" y="450" type="line"/>
			<point x="631" y="162" type="line" smooth="yes"/>
			<point x="625" y="132"/>
			<point x="620" y="109"/>
			<point x="617" y="91" type="curve" smooth="yes"/>
			<point x="607" y="21"/>
			<point x="637" y="-10"/>
			<point x="720" y="-10" type="curve" smooth="yes"/>
			<point x="747" y="-10"/>
			<point x="773" y="-8"/>
			<point x="802" y="-4" type="curve"/>
			<point x="818" y="72" type="line"/>
			<point x="744" y="65"/>
			<point x="727" y="76"/>
			<point x="734" y="128" type="curve" smooth="yes"/>
			<point x="736" y="142"/>
			<point x="738" y="154"/>
		</contour>
		<contour>
			<point x="1030" y="527" type="line"/>
			<point x="1063" y="629"/>
			<point x="1128" y="680"/>
			<point x="1203" y="680" type="curve" smooth="yes"/>
			<point x="1280" y="680"/>
			<point x="1312" y="625"/>
			<point x="1299" y="527" type="curve"/>
		</contour>
		<contour>
			<point x="227" y="600" type="line"/>
			<point x="482" y="600" type="line"/>
			<point x="496" y="663" type="line"/>
			<point x="241" y="663" type="line"/>
		</contour>
	</outline>
</glyph>
<glyph name="uF2130" format="2">
	<advance width="884"/>
	<unicode hex="F2130"/>
	<outline>
		<contour>
			<point x="265" y="618" type="curve" smooth="yes"/>
			<point x="280" y="662"/>
			<point x="328" y="678"/>
			<point x="390" y="666" type="curve"/>
			<point x="408" y="748" type="line"/>
			<point x="391" y="752"/>
			<point x="370" y="754"/>
			<point x="348" y="754" type="curve" smooth="yes"/>
			<point x="248" y="754"/>
			<point x="183" y="706"/>
			<point x="156" y="624" type="curve" smooth="yes"/>
			<point x="150" y="606"/>
			<point x="145" y="580"/>
			<point x="141" y="561" type="curve" smooth="yes"/>
			<point x="134" y="527" type="line"/>
			<point x="77" y="527" type="line"/>
			<point x="60" y="450" type="line"/>
			<point x="117" y="450" type="line"/>
			<point x="22" y="0" type="line"/>
			<point x="131" y="0" type="line"/>
			<point x="226" y="450" type="line"/>
			<point x="388" y="450" type="line"/>
			<point x="293" y="0" type="line"/>
			<point x="402" y="0" type="line"/>
			<point x="448" y="219" type="line"/>
			<point x="455" y="217" type="line"/>
			<point x="836" y="217" type="line"/>
			<point x="842" y="236"/>
			<point x="845" y="251"/>
			<point x="847" y="261" type="curve" smooth="yes"/>
			<point x="879" y="411"/>
			<point x="821" y="527"/>
			<point x="667" y="527" type="curve" smooth="yes"/>
			<point x="514" y="527" type="line"/>
			<point x="522" y="567" type="line" smooth="yes"/>
			<point x="525" y="582"/>
			<point x="531" y="604"/>
			<point x="536" y="618" type="curve" smooth="yes"/>
			<point x="551" y="662"/>
			<point x="599" y="678"/>
			<point x="661" y="666" type="curve"/>
			<point x="679" y="748" type="line"/>
			<point x="662" y="752"/>
			<point x="641" y="754"/>
			<point x="619" y="754" type="curve" smooth="yes"/>
			<point x="519" y="754"/>
			<point x="454" y="706"/>
			<point x="427" y="624" type="curve" smooth="yes"/>
			<point x="421" y="606"/>
			<point x="416" y="580"/>
			<point x="412" y="561" type="curve" smooth="yes"/>
			<point x="405" y="527" type="line"/>
			<point x="243" y="527" type="line"/>
			<point x="251" y="567" type="line" smooth="yes"/>
			<point x="254" y="582"/>
			<point x="260" y="604"/>
		</contour>
		<contour>
			<point x="472" y="294" type="line"/>
			<point x="506" y="396"/>
			<point x="571" y="447"/>
			<point x="646" y="447" type="curve" smooth="yes"/>
			<point x="723" y="447"/>
			<point x="754" y="392"/>
			<point x="741" y="294" type="curve"/>
		</contour>
	</outline>
</glyph>
<glyph name="uF3210" format="2">
	<advance width="838"/>
	<unicode hex="F3210"/>
	<outline>
		<contour>
			<point x="39" y="0" type="line"/>
			<point x="754" y="0" type="line"/>
			<point x="772" y="92" type="line"/>
			<point x="406" y="92" type="line"/>
			<point x="451" y="302" type="line"/>
			<point x="780" y="302" type="line"/>
			<point x="798" y="389" type="line"/>
			<point x="469" y="389" type="line"/>
			<point x="515" y="603" type="line"/>
			<point x="872" y="603" type="line"/>
			<point x="890" y="690" type="line"/>
			<point x="423" y="690" type="line"/>
			<point x="296" y="91" type="line"/>
			<point x="168" y="91" type="line"/>
			<point x="295" y="690" type="line"/>
			<point x="185" y="690" type="line"/>
		</contour>
	</outline>
</glyph>
<glyph name="uF3230" format="2">
	<advance width="1215"/>
	<unicode hex="F3230"/>
	<outline>
		<contour>
			<point x="416" y="0" type="line"/>
			<point x="1131" y="0" type="line"/>
			<point x="1149" y="92" type="line"/>
			<point x="783" y="92" type="line"/>
			<point x="828" y="302" type="line"/>
			<point x="1157" y="302" type="line"/>
			<point x="1175" y="389" type="line"/>
			<point x="846" y="389" type="line"/>
			<point x="892" y="603" type="line"/>
			<point x="1249" y="603" type="line"/>
			<point x="1267" y="690" type="line"/>
			<point x="800" y="690" type="line"/>
			<point x="673" y="91" type="line"/>
			<point x="545" y="91" type="line"/>
			<point x="672" y="690" type="line"/>
			<point x="562" y="690" type="line"/>
			<point x="497" y="383" type="line"/>
			<point x="230" y="383" type="line"/>
			<point x="357" y="982" type="line"/>
			<point x="247" y="982" type="line"/>
			<point x="101" y="292" type="line"/>
			<point x="478" y="292" type="line"/>
		</contour>
	</outline>
</glyph>
<glyph name="uF3250" format="2">
	<advance width="1071"/>
	<unicode hex="F3250"/>
	<outline>
		<contour>
			<point x="963" y="49" type="curve" smooth="yes"/>
			<point x="1053" y="472" type="line"/>
			<point x="944" y="472" type="line"/>
			<point x="854" y="47" type="line" smooth="yes"/>
			<point x="849" y="26"/>
			<point x="845" y="7"/>
			<point x="840" y="-9" type="curve" smooth="yes"/>
			<point x="815" y="-92"/>
			<point x="750" y="-148"/>
			<point x="650" y="-148" type="curve" smooth="yes"/>
			<point x="551" y="-148"/>
			<point x="510" y="-92"/>
			<point x="521" y="-9" type="curve" smooth="yes"/>
			<point x="522" y="7"/>
			<point x="526" y="26"/>
			<point x="531" y="47" type="curve" smooth="yes"/>
			<point x="580" y="279" type="line"/>
			<point x="471" y="279" type="line"/>
			<point x="431" y="91" type="line"/>
			<point x="168" y="91" type="line"/>
			<point x="295" y="690" type="line"/>
			<point x="185" y="690" type="line"/>
			<point x="39" y="0" type="line"/>
			<point x="413" y="0" type="line"/>
			<point x="411" y="-7"/>
			<point x="410" y="-14"/>
			<point x="409" y="-22" type="curve" smooth="yes"/>
			<point x="394" y="-137"/>
			<point x="452" y="-232"/>
			<point x="632" y="-232" type="curve" smooth="yes"/>
			<point x="812" y="-232"/>
			<point x="912" y="-137"/>
			<point x="946" y="-22" type="curve" smooth="yes"/>
			<point x="954" y="4"/>
			<point x="958" y="24"/>
		</contour>
	</outline>
</glyph>
<glyph name="uF3330" format="2">
	<advance width="860"/>
	<unicode hex="F3330"/>
	<outline>
		<contour>
			<point x="153" y="162" type="curve" smooth="yes"/>
			<point x="275" y="735" type="line"/>
			<point x="165" y="735" type="line"/>
			<point x="42" y="159" type="line" smooth="yes"/>
			<point x="36" y="127"/>
			<point x="31" y="103"/>
			<point x="27" y="83" type="curve" smooth="yes"/>
			<point x="17" y="15"/>
			<point x="51" y="-6"/>
			<point x="109" y="-6" type="curve" smooth="yes"/>
			<point x="134" y="-6"/>
			<point x="160" y="-4"/>
			<point x="182" y="-1" type="curve"/>
			<point x="199" y="76" type="line"/>
			<point x="151" y="72"/>
			<point x="139" y="82"/>
			<point x="143" y="112" type="curve" smooth="yes"/>
			<point x="146" y="128"/>
			<point x="149" y="144"/>
		</contour>
		<contour>
			<point x="415" y="162" type="curve" smooth="yes"/>
			<point x="430" y="233" type="line"/>
			<point x="816" y="235" type="line"/>
			<point x="822" y="254"/>
			<point x="825" y="269"/>
			<point x="827" y="279" type="curve" smooth="yes"/>
			<point x="859" y="429"/>
			<point x="801" y="545"/>
			<point x="647" y="545" type="curve" smooth="yes"/>
			<point x="589" y="545"/>
			<point x="534" y="529"/>
			<point x="487" y="500" type="curve"/>
			<point x="537" y="735" type="line"/>
			<point x="427" y="735" type="line"/>
			<point x="304" y="159" type="line" smooth="yes"/>
			<point x="298" y="127"/>
			<point x="293" y="103"/>
			<point x="289" y="83" type="curve" smooth="yes"/>
			<point x="279" y="15"/>
			<point x="313" y="-6"/>
			<point x="371" y="-6" type="curve" smooth="yes"/>
			<point x="396" y="-6"/>
			<point x="422" y="-4"/>
			<point x="444" y="-1" type="curve"/>
			<point x="461" y="76" type="line"/>
			<point x="413" y="72"/>
			<point x="401" y="82"/>
			<point x="405" y="112" type="curve" smooth="yes"/>
			<point x="408" y="128"/>
			<point x="411" y="144"/>
		</contour>
		<contour>
			<point x="452" y="312" type="line"/>
			<point x="486" y="414"/>
			<point x="551" y="465"/>
			<point x="626" y="465" type="curve" smooth="yes"/>
			<point x="703" y="465"/>
			<point x="734" y="410"/>
			<point x="721" y="312" type="curve"/>
		</contour>
	</outline>
</glyph>
<glyph name="uF3410" format="2">
	<advance width="1216"/>
	<unicode hex="F3410"/>
	<outline>
		<contour>
			<point x="643" y="0" type="line"/>
			<point x="755" y="0" type="line"/>
			<point x="812" y="272" type="line"/>
			<point x="928" y="272" type="line" smooth="yes"/>
			<point x="965" y="272"/>
			<point x="990" y="272"/>
			<point x="1023" y="276" type="curve" smooth="yes"/>
			<point x="1126" y="289"/>
			<point x="1223" y="359"/>
			<point x="1249" y="481" type="curve" smooth="yes"/>
			<point x="1275" y="603"/>
			<point x="1216" y="672"/>
			<point x="1110" y="686" type="curve" smooth="yes"/>
			<point x="1079" y="690"/>
			<point x="1054" y="690"/>
			<point x="1017" y="690" type="curve" smooth="yes"/>
			<point x="726" y="690" type="line"/>
			<point x="419" y="98" type="line"/>
			<point x="362" y="690" type="line"/>
			<point x="185" y="690" type="line"/>
			<point x="39" y="0" type="line"/>
			<point x="149" y="0" type="line"/>
			<point x="221" y="339" type="line" smooth="yes"/>
			<point x="238" y="418"/>
			<point x="257" y="511"/>
			<point x="271" y="585" type="curve"/>
			<point x="275" y="512"/>
			<point x="284" y="418"/>
			<point x="292" y="341" type="curve" smooth="yes"/>
			<point x="332" y="0" type="line"/>
			<point x="459" y="0" type="line"/>
			<point x="642" y="340" type="line" smooth="yes"/>
			<point x="685" y="418"/>
			<point x="734" y="513"/>
			<point x="769" y="586" type="curve"/>
			<point x="752" y="513"/>
			<point x="732" y="418"/>
			<point x="715" y="339" type="curve" smooth="yes"/>
		</contour>
		<contour>
			<point x="831" y="361" type="line"/>
			<point x="882" y="601" type="line"/>
			<point x="1001" y="601" type="line" smooth="yes"/>
			<point x="1029" y="601"/>
			<point x="1053" y="600"/>
			<point x="1071" y="597" type="curve" smooth="yes"/>
			<point x="1117" y="588"/>
			<point x="1148" y="554"/>
			<point x="1133" y="481" type="curve" smooth="yes"/>
			<point x="1117" y="408"/>
			<point x="1071" y="374"/>
			<point x="1021" y="365" type="curve" smooth="yes"/>
			<point x="1003" y="362"/>
			<point x="978" y="361"/>
			<point x="950" y="361" type="curve" smooth="yes"/>
		</contour>
	</outline>
</glyph>
<glyph name="uF3610" format="2">
	<advance width="983"/>
	<unicode hex="F3610"/>
	<outline>
		<contour>
			<point x="451" y="0" type="line"/>
			<point x="609" y="0" type="line"/>
			<point x="657" y="228" type="line"/>
			<point x="779" y="229" type="line"/>
			<point x="806" y="1" type="line"/>
			<point x="925" y="1" type="line"/>
			<point x="831" y="691" type="line"/>
			<point x="754" y="690" type="line"/>
			<point x="646" y="690" type="line"/>
			<point x="576" y="358" type="line" smooth="yes"/>
			<point x="561" y="287"/>
			<point x="542" y="195"/>
			<point x="528" y="117" type="curve"/>
			<point x="340" y="690" type="line"/>
			<point x="185" y="690" type="line"/>
			<point x="39" y="0" type="line"/>
			<point x="149" y="0" type="line"/>
			<point x="219" y="330" type="line" smooth="yes"/>
			<point x="234" y="401"/>
			<point x="252" y="490"/>
			<point x="266" y="569" type="curve"/>
		</contour>
		<contour>
			<point x="677" y="315" type="line"/>
			<point x="737" y="599" type="line"/>
			<point x="738" y="600" type="line"/>
			<point x="769" y="316" type="line"/>
		</contour>
	</outline>
</glyph>
<glyph name="uF3710" format="2">
	<advance width="919"/>
	<unicode hex="F3710"/>
	<outline>
		<contour>
			<point x="699" y="77" type="line"/>
			<point x="693" y="0" type="line"/>
			<point x="802" y="0" type="line"/>
			<point x="806" y="59"/>
			<point x="812" y="95"/>
			<point x="820" y="135" type="curve" smooth="yes"/>
			<point x="860" y="322" type="line" smooth="yes"/>
			<point x="865" y="347"/>
			<point x="870" y="375"/>
			<point x="873" y="397" type="curve" smooth="yes"/>
			<point x="883" y="487"/>
			<point x="842" y="545"/>
			<point x="705" y="545" type="curve" smooth="yes"/>
			<point x="643" y="545"/>
			<point x="586" y="528"/>
			<point x="541" y="495" type="curve"/>
			<point x="516" y="527"/>
			<point x="472" y="545"/>
			<point x="409" y="545" type="curve" smooth="yes"/>
			<point x="356" y="545"/>
			<point x="315" y="536"/>
			<point x="266" y="504" type="curve"/>
			<point x="217" y="443" type="line"/>
			<point x="236" y="531" type="line"/>
			<point x="126" y="531" type="line"/>
			<point x="13" y="0" type="line"/>
			<point x="123" y="0" type="line"/>
			<point x="173" y="238" type="line" smooth="yes"/>
			<point x="209" y="404"/>
			<point x="283" y="464"/>
			<point x="359" y="464" type="curve" smooth="yes"/>
			<point x="434" y="464"/>
			<point x="457" y="422"/>
			<point x="450" y="362" type="curve" smooth="yes"/>
			<point x="446" y="335"/>
			<point x="441" y="312"/>
			<point x="436" y="287" type="curve" smooth="yes"/>
			<point x="422" y="225" type="line"/>
			<point x="402" y="201"/>
			<point x="389" y="172"/>
			<point x="382" y="139" type="curve" smooth="yes"/>
			<point x="361" y="40"/>
			<point x="427" y="-14"/>
			<point x="521" y="-14" type="curve" smooth="yes"/>
			<point x="571" y="-14"/>
			<point x="619" y="-5"/>
			<point x="660" y="20" type="curve"/>
		</contour>
		<contour>
			<point x="500" y="148" type="curve" smooth="yes"/>
			<point x="517" y="229"/>
			<point x="608" y="258"/>
			<point x="734" y="248" type="curve"/>
			<point x="724" y="199" type="line" smooth="yes"/>
			<point x="706" y="113"/>
			<point x="647" y="66"/>
			<point x="578" y="66" type="curve" smooth="yes"/>
			<point x="520" y="66"/>
			<point x="488" y="92"/>
		</contour>
		<contour>
			<point x="561" y="363" type="line" smooth="yes"/>
			<point x="575" y="429"/>
			<point x="622" y="465"/>
			<point x="686" y="465" type="curve" smooth="yes"/>
			<point x="749" y="465"/>
			<point x="769" y="435"/>
			<point x="763" y="392" type="curve" smooth="yes"/>
			<point x="761" y="372"/>
			<point x="757" y="354"/>
			<point x="753" y="334" type="curve" smooth="yes"/>
			<point x="750" y="321" type="line"/>
			<point x="716" y="321" type="line" smooth="yes"/>
			<point x="650" y="321"/>
			<point x="594" y="314"/>
			<point x="549" y="301" type="curve"/>
		</contour>
	</outline>
</glyph>
<glyph name="uF3720" format="2">
	<advance width="964"/>
	<unicode hex="F3720"/>
	<outline>
		<contour>
			<point x="931" y="279" type="curve" smooth="yes"/>
			<point x="963" y="429"/>
			<point x="905" y="545"/>
			<point x="751" y="545" type="curve" smooth="yes"/>
			<point x="678" y="545"/>
			<point x="609" y="519"/>
			<point x="554" y="474" type="curve"/>
			<point x="533" y="519"/>
			<point x="485" y="545"/>
			<point x="409" y="545" type="curve" smooth="yes"/>
			<point x="356" y="545"/>
			<point x="315" y="536"/>
			<point x="266" y="504" type="curve"/>
			<point x="217" y="443" type="line"/>
			<point x="236" y="531" type="line"/>
			<point x="126" y="531" type="line"/>
			<point x="13" y="0" type="line"/>
			<point x="123" y="0" type="line"/>
			<point x="173" y="238" type="line" smooth="yes"/>
			<point x="209" y="404"/>
			<point x="283" y="464"/>
			<point x="359" y="464" type="curve" smooth="yes"/>
			<point x="434" y="464"/>
			<point x="457" y="422"/>
			<point x="450" y="362" type="curve" smooth="yes"/>
			<point x="446" y="335"/>
			<point x="441" y="312"/>
			<point x="436" y="287" type="curve" smooth="yes"/>
			<point x="375" y="0" type="line"/>
			<point x="485" y="0" type="line"/>
			<point x="535" y="235" type="line"/>
			<point x="920" y="235" type="line"/>
			<point x="926" y="254"/>
			<point x="929" y="269"/>
		</contour>
		<contour>
			<point x="556" y="312" type="line"/>
			<point x="590" y="414"/>
			<point x="655" y="465"/>
			<point x="730" y="465" type="curve" smooth="yes"/>
			<point x="807" y="465"/>
			<point x="838" y="410"/>
			<point x="825" y="312" type="curve"/>
		</contour>
	</outline>
</glyph>
<glyph name="uF3750" format="2">
	<advance width="1326"/>
	<unicode hex="F3750"/>
	<outline>
		<contour>
			<point x="1343" y="514" type="curve" smooth="yes"/>
			<point x="1375" y="664"/>
			<point x="1316" y="780"/>
			<point x="1162" y="780" type="curve" smooth="yes"/>
			<point x="1090" y="780"/>
			<point x="1022" y="755"/>
			<point x="968" y="710" type="curve"/>
			<point x="947" y="756"/>
			<point x="898" y="783"/>
			<point x="821" y="783" type="curve" smooth="yes"/>
			<point x="768" y="783"/>
			<point x="727" y="774"/>
			<point x="678" y="742" type="curve"/>
			<point x="629" y="681" type="line"/>
			<point x="648" y="769" type="line"/>
			<point x="538" y="769" type="line"/>
			<point x="488" y="532" type="line"/>
			<point x="466" y="541"/>
			<point x="440" y="545"/>
			<point x="409" y="545" type="curve" smooth="yes"/>
			<point x="356" y="545"/>
			<point x="315" y="536"/>
			<point x="266" y="504" type="curve"/>
			<point x="217" y="443" type="line"/>
			<point x="236" y="531" type="line"/>
			<point x="126" y="531" type="line"/>
			<point x="13" y="0" type="line"/>
			<point x="123" y="0" type="line"/>
			<point x="173" y="238" type="line" smooth="yes"/>
			<point x="209" y="404"/>
			<point x="283" y="464"/>
			<point x="359" y="464" type="curve" smooth="yes"/>
			<point x="434" y="464"/>
			<point x="457" y="422"/>
			<point x="450" y="362" type="curve" smooth="yes"/>
			<point x="446" y="335"/>
			<point x="441" y="312"/>
			<point x="436" y="287" type="curve" smooth="yes"/>
			<point x="375" y="0" type="line"/>
			<point x="485" y="0" type="line"/>
			<point x="586" y="476" type="line" smooth="yes"/>
			<point x="621" y="642"/>
			<point x="696" y="702"/>
			<point x="772" y="702" type="curve" smooth="yes"/>
			<point x="847" y="702"/>
			<point x="870" y="660"/>
			<point x="862" y="600" type="curve" smooth="yes"/>
			<point x="858" y="573"/>
			<point x="848" y="525"/>
			<point x="848" y="525" type="curve"/>
			<point x="847" y="518" type="line"/>
			<point x="843" y="499" type="line" smooth="yes"/>
			<point x="803" y="311"/>
			<point x="891" y="221"/>
			<point x="1033" y="221" type="curve"/>
			<point x="1050" y="301" type="line"/>
			<point x="978" y="301"/>
			<point x="933" y="343"/>
			<point x="951" y="470" type="curve"/>
			<point x="1332" y="470" type="line"/>
			<point x="1338" y="489"/>
			<point x="1341" y="504"/>
		</contour>
		<contour>
			<point x="968" y="547" type="line"/>
			<point x="1002" y="649"/>
			<point x="1066" y="700"/>
			<point x="1141" y="700" type="curve" smooth="yes"/>
			<point x="1218" y="700"/>
			<point x="1250" y="645"/>
			<point x="1237" y="547" type="curve"/>
		</contour>
	</outline>
</glyph>
<glyph name="uF3810" format="2">
	<advance width="1086"/>
	<unicode hex="F3810"/>
	<outline>
		<contour>
			<point x="475" y="704" type="curve" smooth="yes"/>
			<point x="263" y="704"/>
			<point x="111" y="559"/>
			<point x="66" y="345" type="curve" smooth="yes"/>
			<point x="21" y="132"/>
			<point x="111" y="-14"/>
			<point x="323" y="-14" type="curve" smooth="yes"/>
			<point x="519" y="-14"/>
			<point x="665" y="113"/>
			<point x="720" y="302" type="curve"/>
			<point x="1039" y="302" type="line"/>
			<point x="1057" y="389" type="line"/>
			<point x="738" y="389" type="line"/>
			<point x="739" y="392" type="line"/>
			<point x="784" y="603" type="line"/>
			<point x="1141" y="603" type="line"/>
			<point x="1159" y="690" type="line"/>
			<point x="692" y="690" type="line"/>
			<point x="679" y="629" type="line"/>
			<point x="635" y="677"/>
			<point x="566" y="704"/>
		</contour>
		<contour>
			<point x="184" y="345" type="curve" smooth="yes"/>
			<point x="221" y="517"/>
			<point x="322" y="620"/>
			<point x="457" y="620" type="curve" smooth="yes"/>
			<point x="591" y="620"/>
			<point x="650" y="517"/>
			<point x="613" y="345" type="curve" smooth="yes"/>
			<point x="577" y="174"/>
			<point x="475" y="70"/>
			<point x="341" y="70" type="curve" smooth="yes"/>
			<point x="206" y="70"/>
			<point x="148" y="174"/>
		</contour>
	</outline>
</glyph>
<glyph name="uF3850" format="2">
	<advance width="1462"/>
	<unicode hex="F3850"/>
	<outline>
		<contour>
			<point x="475" y="704" type="curve" smooth="yes"/>
			<point x="263" y="704"/>
			<point x="111" y="559"/>
			<point x="66" y="345" type="curve" smooth="yes"/>
			<point x="21" y="132"/>
			<point x="111" y="-14"/>
			<point x="323" y="-14" type="curve" smooth="yes"/>
			<point x="534" y="-14"/>
			<point x="686" y="132"/>
			<point x="731" y="345" type="curve" smooth="yes"/>
			<point x="754" y="451"/>
			<point x="742" y="540"/>
			<point x="701" y="603" type="curve"/>
			<point x="786" y="603" type="line"/>
			<point x="658" y="0" type="line"/>
			<point x="767" y="0" type="line"/>
			<point x="895" y="603" type="line"/>
			<point x="1029" y="603" type="line"/>
			<point x="901" y="0" type="line"/>
			<point x="1378" y="0" type="line"/>
			<point x="1396" y="88" type="line"/>
			<point x="1029" y="88" type="line"/>
			<point x="1075" y="302" type="line"/>
			<point x="1404" y="302" type="line"/>
			<point x="1422" y="389" type="line"/>
			<point x="1093" y="389" type="line"/>
			<point x="1139" y="603" type="line"/>
			<point x="1496" y="603" type="line"/>
			<point x="1514" y="690" type="line"/>
			<point x="578" y="690" type="line"/>
			<point x="548" y="699"/>
			<point x="513" y="704"/>
		</contour>
		<contour>
			<point x="184" y="345" type="curve" smooth="yes"/>
			<point x="221" y="517"/>
			<point x="322" y="620"/>
			<point x="457" y="620" type="curve" smooth="yes"/>
			<point x="591" y="620"/>
			<point x="650" y="517"/>
			<point x="613" y="345" type="curve" smooth="yes"/>
			<point x="577" y="174"/>
			<point x="475" y="70"/>
			<point x="341" y="70" type="curve" smooth="yes"/>
			<point x="206" y="70"/>
			<point x="148" y="174"/>
		</contour>
	</outline>
</glyph>
<glyph name="uF3910" format="2">
	<advance width="692"/>
	<unicode hex="F3910"/>
	<outline>
		<contour>
			<point x="358" y="545" type="curve" smooth="yes"/>
			<point x="179" y="545"/>
			<point x="62" y="421"/>
			<point x="29" y="266" type="curve" smooth="yes"/>
			<point x="-4" y="111"/>
			<point x="60" y="-14"/>
			<point x="239" y="-14" type="curve" smooth="yes"/>
			<point x="417" y="-14"/>
			<point x="534" y="111"/>
			<point x="567" y="266" type="curve" smooth="yes"/>
			<point x="606" y="450" type="line"/>
			<point x="715" y="450" type="line"/>
			<point x="732" y="527" type="line"/>
			<point x="623" y="527" type="line"/>
			<point x="631" y="567" type="line" smooth="yes"/>
			<point x="634" y="582"/>
			<point x="640" y="604"/>
			<point x="645" y="618" type="curve" smooth="yes"/>
			<point x="660" y="662"/>
			<point x="708" y="678"/>
			<point x="770" y="666" type="curve"/>
			<point x="788" y="748" type="line"/>
			<point x="771" y="752"/>
			<point x="750" y="754"/>
			<point x="728" y="754" type="curve" smooth="yes"/>
			<point x="628" y="754"/>
			<point x="563" y="706"/>
			<point x="536" y="624" type="curve" smooth="yes"/>
			<point x="530" y="606"/>
			<point x="525" y="580"/>
			<point x="521" y="561" type="curve" smooth="yes"/>
			<point x="514" y="527" type="line"/>
			<point x="462" y="527" type="line"/>
			<point x="432" y="539"/>
			<point x="398" y="545"/>
		</contour>
		<contour>
			<point x="145" y="266" type="curve" smooth="yes"/>
			<point x="171" y="386"/>
			<point x="244" y="465"/>
			<point x="341" y="465" type="curve" smooth="yes"/>
			<point x="437" y="465"/>
			<point x="476" y="386"/>
			<point x="450" y="266" type="curve" smooth="yes"/>
			<point x="425" y="146"/>
			<point x="352" y="66"/>
			<point x="256" y="66" type="curve" smooth="yes"/>
			<point x="159" y="66"/>
			<point x="120" y="146"/>
		</contour>
	</outline>
</glyph>
<glyph name="uF4010" format="2">
	<advance width="1141"/>
	<unicode hex="F4010"/>
	<outline>
		<contour>
			<point x="504" y="686" type="curve" smooth="yes"/>
			<point x="484" y="689"/>
			<point x="466" y="690"/>
			<point x="446" y="690" type="curve"/>
			<point x="411" y="690" type="line"/>
			<point x="185" y="690" type="line"/>
			<point x="39" y="0" type="line"/>
			<point x="149" y="0" type="line"/>
			<point x="206" y="272" type="line"/>
			<point x="322" y="272" type="line" smooth="yes"/>
			<point x="359" y="272"/>
			<point x="384" y="272"/>
			<point x="417" y="276" type="curve" smooth="yes"/>
			<point x="467" y="282"/>
			<point x="515" y="302"/>
			<point x="554" y="334" type="curve"/>
			<point x="593" y="0" type="line"/>
			<point x="720" y="0" type="line"/>
			<point x="903" y="340" type="line" smooth="yes"/>
			<point x="946" y="418"/>
			<point x="995" y="513"/>
			<point x="1030" y="586" type="curve"/>
			<point x="1013" y="513"/>
			<point x="993" y="418"/>
			<point x="976" y="339" type="curve" smooth="yes"/>
			<point x="904" y="0" type="line"/>
			<point x="1013" y="0" type="line"/>
			<point x="1159" y="690" type="line"/>
			<point x="987" y="690" type="line"/>
			<point x="680" y="98" type="line"/>
			<point x="643" y="481" type="line"/>
			<point x="669" y="603"/>
			<point x="610" y="672"/>
		</contour>
		<contour>
			<point x="225" y="361" type="line"/>
			<point x="276" y="601" type="line"/>
			<point x="395" y="601" type="line" smooth="yes"/>
			<point x="423" y="601"/>
			<point x="447" y="600"/>
			<point x="465" y="597" type="curve" smooth="yes"/>
			<point x="511" y="588"/>
			<point x="542" y="554"/>
			<point x="527" y="481" type="curve" smooth="yes"/>
			<point x="511" y="408"/>
			<point x="465" y="374"/>
			<point x="415" y="365" type="curve" smooth="yes"/>
			<point x="397" y="362"/>
			<point x="372" y="361"/>
			<point x="344" y="361" type="curve" smooth="yes"/>
		</contour>
	</outline>
</glyph>
<glyph name="uF4510" format="2">
	<advance width="771"/>
	<unicode hex="F4510"/>
	<outline>
		<contour>
			<point x="783" y="493" type="curve" smooth="yes"/>
			<point x="815" y="643"/>
			<point x="757" y="759"/>
			<point x="603" y="759" type="curve" smooth="yes"/>
			<point x="465" y="759"/>
			<point x="344" y="667"/>
			<point x="296" y="525" type="curve"/>
			<point x="290" y="522"/>
			<point x="283" y="518"/>
			<point x="277" y="514" type="curve"/>
			<point x="216" y="441" type="line"/>
			<point x="236" y="531" type="line"/>
			<point x="126" y="531" type="line"/>
			<point x="13" y="0" type="line"/>
			<point x="123" y="0" type="line"/>
			<point x="181" y="276" type="line" smooth="yes"/>
			<point x="198" y="354"/>
			<point x="231" y="404"/>
			<point x="276" y="430" type="curve"/>
			<point x="259" y="275"/>
			<point x="344" y="200"/>
			<point x="473" y="200" type="curve"/>
			<point x="494" y="280" type="line"/>
			<point x="422" y="280"/>
			<point x="373" y="322"/>
			<point x="391" y="449" type="curve"/>
			<point x="772" y="449" type="line"/>
			<point x="778" y="468"/>
			<point x="781" y="483"/>
		</contour>
		<contour>
			<point x="408" y="526" type="line"/>
			<point x="442" y="628"/>
			<point x="507" y="679"/>
			<point x="582" y="679" type="curve" smooth="yes"/>
			<point x="659" y="679"/>
			<point x="690" y="624"/>
			<point x="677" y="526" type="curve"/>
		</contour>
	</outline>
</glyph>
<glyph name="uF4590" format="2">
	<advance width="1320"/>
	<unicode hex="F4590"/>
	<outline>
		<contour>
			<point x="365" y="544" type="curve" smooth="yes"/>
			<point x="338" y="544"/>
			<point x="305" y="533"/>
			<point x="277" y="514" type="curve"/>
			<point x="216" y="441" type="line"/>
			<point x="236" y="531" type="line"/>
			<point x="126" y="531" type="line"/>
			<point x="13" y="0" type="line"/>
			<point x="123" y="0" type="line"/>
			<point x="181" y="276" type="line" smooth="yes"/>
			<point x="209" y="407"/>
			<point x="283" y="459"/>
			<point x="383" y="452" type="curve"/>
			<point x="401" y="538" type="line"/>
			<point x="391" y="542"/>
			<point x="380" y="544"/>
		</contour>
		<contour>
			<point x="465" y="716" type="line"/>
			<point x="438" y="589" type="line"/>
			<point x="549" y="589" type="line"/>
			<point x="576" y="716" type="line"/>
		</contour>
		<contour>
			<point x="730" y="545" type="curve" smooth="yes"/>
			<point x="591" y="545"/>
			<point x="451" y="444"/>
			<point x="413" y="263" type="curve" smooth="yes"/>
			<point x="372" y="74"/>
			<point x="459" y="-14"/>
			<point x="598" y="-14" type="curve" smooth="yes"/>
			<point x="723" y="-14"/>
			<point x="828" y="49"/>
			<point x="880" y="176" type="curve"/>
			<point x="768" y="176" type="line"/>
			<point x="737" y="104"/>
			<point x="684" y="66"/>
			<point x="621" y="66" type="curve" smooth="yes"/>
			<point x="547" y="66"/>
			<point x="500" y="127"/>
			<point x="530" y="271" type="curve" smooth="yes"/>
			<point x="559" y="404"/>
			<point x="633" y="465"/>
			<point x="710" y="465" type="curve" smooth="yes"/>
			<point x="775" y="465"/>
			<point x="810" y="428"/>
			<point x="808" y="347" type="curve"/>
			<point x="919" y="347" type="line"/>
			<point x="931" y="464"/>
			<point x="864" y="545"/>
		</contour>
		<contour>
			<point x="1311" y="391" type="curve" smooth="yes"/>
			<point x="1343" y="541"/>
			<point x="1284" y="657"/>
			<point x="1130" y="657" type="curve" smooth="yes"/>
			<point x="977" y="657"/>
			<point x="846" y="544"/>
			<point x="811" y="376" type="curve"/>
			<point x="918" y="347" type="line"/>
			<point x="1299" y="347" type="line"/>
			<point x="1305" y="366"/>
			<point x="1309" y="381"/>
		</contour>
		<contour>
			<point x="1109" y="577" type="curve" smooth="yes"/>
			<point x="1186" y="577"/>
			<point x="1218" y="522"/>
			<point x="1205" y="424" type="curve"/>
			<point x="936" y="424" type="line"/>
			<point x="969" y="526"/>
			<point x="1034" y="577"/>
		</contour>
	</outline>
</glyph>
<glyph name="uF4740" format="2">
	<advance width="859"/>
	<unicode hex="F4740"/>
	<outline>
		<contour>
			<point x="300" y="545" type="curve" smooth="yes"/>
			<point x="182" y="545"/>
			<point x="91" y="485"/>
			<point x="70" y="386" type="curve" smooth="yes"/>
			<point x="50" y="293"/>
			<point x="113" y="252"/>
			<point x="205" y="227" type="curve" smooth="yes"/>
			<point x="290" y="203"/>
			<point x="321" y="178"/>
			<point x="311" y="132" type="curve" smooth="yes"/>
			<point x="301" y="86"/>
			<point x="255" y="64"/>
			<point x="204" y="64" type="curve" smooth="yes"/>
			<point x="149" y="64"/>
			<point x="110" y="91"/>
			<point x="111" y="159" type="curve"/>
			<point x="0" y="159" type="line"/>
			<point x="-10" y="39"/>
			<point x="66" y="-14"/>
			<point x="184" y="-14" type="curve" smooth="yes"/>
			<point x="300" y="-14"/>
			<point x="402" y="37"/>
			<point x="423" y="140" type="curve" smooth="yes"/>
			<point x="443" y="234"/>
			<point x="392" y="280"/>
			<point x="283" y="310" type="curve" smooth="yes"/>
			<point x="208" y="331"/>
			<point x="173" y="351"/>
			<point x="183" y="399" type="curve" smooth="yes"/>
			<point x="192" y="439"/>
			<point x="223" y="468"/>
			<point x="275" y="468" type="curve" smooth="yes"/>
			<point x="329" y="468"/>
			<point x="355" y="435"/>
			<point x="354" y="379" type="curve"/>
			<point x="845" y="379" type="line"/>
			<point x="851" y="398"/>
			<point x="854" y="413"/>
			<point x="857" y="423" type="curve" smooth="yes"/>
			<point x="888" y="573"/>
			<point x="830" y="689"/>
			<point x="676" y="689" type="curve" smooth="yes"/>
			<point x="561" y="689"/>
			<point x="459" y="625"/>
			<point x="400" y="523" type="curve"/>
			<point x="374" y="537"/>
			<point x="341" y="545"/>
		</contour>
		<contour>
			<point x="482" y="456" type="line"/>
			<point x="515" y="558"/>
			<point x="580" y="609"/>
			<point x="655" y="609" type="curve" smooth="yes"/>
			<point x="732" y="609"/>
			<point x="763" y="554"/>
			<point x="751" y="456" type="curve"/>
		</contour>
	</outline>
</glyph>
<glyph name="uF4760" format="2">
	<advance width="527"/>
	<unicode hex="F4760"/>
	<outline>
		<contour>
			<point x="300" y="545" type="curve" smooth="yes"/>
			<point x="182" y="545"/>
			<point x="91" y="485"/>
			<point x="70" y="386" type="curve" smooth="yes"/>
			<point x="50" y="293"/>
			<point x="113" y="252"/>
			<point x="205" y="227" type="curve" smooth="yes"/>
			<point x="290" y="203"/>
			<point x="321" y="178"/>
			<point x="311" y="132" type="curve" smooth="yes"/>
			<point x="301" y="86"/>
			<point x="255" y="64"/>
			<point x="204" y="64" type="curve" smooth="yes"/>
			<point x="149" y="64"/>
			<point x="110" y="91"/>
			<point x="111" y="159" type="curve"/>
			<point x="0" y="159" type="line"/>
			<point x="-10" y="39"/>
			<point x="66" y="-14"/>
			<point x="184" y="-14" type="curve" smooth="yes"/>
			<point x="300" y="-14"/>
			<point x="402" y="37"/>
			<point x="423" y="140" type="curve" smooth="yes"/>
			<point x="443" y="234"/>
			<point x="392" y="280"/>
			<point x="283" y="310" type="curve" smooth="yes"/>
			<point x="208" y="331"/>
			<point x="173" y="351"/>
			<point x="183" y="399" type="curve" smooth="yes"/>
			<point x="192" y="439"/>
			<point x="223" y="468"/>
			<point x="275" y="468" type="curve" smooth="yes"/>
			<point x="329" y="468"/>
			<point x="355" y="435"/>
			<point x="354" y="379" type="curve" smooth="yes"/>
			<point x="354" y="374"/>
			<point x="353" y="369"/>
			<point x="352" y="365" type="curve" smooth="yes"/>
			<point x="342" y="297"/>
			<point x="376" y="276"/>
			<point x="434" y="276" type="curve" smooth="yes"/>
			<point x="459" y="276"/>
			<point x="485" y="278"/>
			<point x="507" y="281" type="curve"/>
			<point x="524" y="358" type="line"/>
			<point x="476" y="354"/>
			<point x="464" y="364"/>
			<point x="468" y="394" type="curve" smooth="yes"/>
			<point x="471" y="410"/>
			<point x="474" y="426"/>
			<point x="478" y="444" type="curve" smooth="yes"/>
			<point x="570" y="878" type="line"/>
			<point x="460" y="878" type="line"/>
			<point x="386" y="530" type="line"/>
			<point x="362" y="540"/>
			<point x="334" y="545"/>
		</contour>
	</outline>
</glyph>
<glyph name="uF47A0" format="2">
	<advance width="1151"/>
	<unicode hex="F47A0"/>
	<outline>
		<contour>
			<point x="300" y="545" type="curve" smooth="yes"/>
			<point x="182" y="545"/>
			<point x="91" y="485"/>
			<point x="70" y="386" type="curve" smooth="yes"/>
			<point x="50" y="293"/>
			<point x="113" y="252"/>
			<point x="205" y="227" type="curve" smooth="yes"/>
			<point x="290" y="203"/>
			<point x="321" y="178"/>
			<point x="311" y="132" type="curve" smooth="yes"/>
			<point x="301" y="86"/>
			<point x="255" y="64"/>
			<point x="204" y="64" type="curve" smooth="yes"/>
			<point x="149" y="64"/>
			<point x="110" y="91"/>
			<point x="111" y="159" type="curve"/>
			<point x="0" y="159" type="line"/>
			<point x="-10" y="39"/>
			<point x="66" y="-14"/>
			<point x="184" y="-14" type="curve" smooth="yes"/>
			<point x="300" y="-14"/>
			<point x="402" y="37"/>
			<point x="423" y="140" type="curve" smooth="yes"/>
			<point x="433" y="183"/>
			<point x="427" y="216"/>
			<point x="408" y="241" type="curve"/>
			<point x="440" y="218"/>
			<point x="485" y="207"/>
			<point x="539" y="207" type="curve" smooth="yes"/>
			<point x="655" y="207"/>
			<point x="757" y="258"/>
			<point x="778" y="361" type="curve" smooth="yes"/>
			<point x="786" y="399"/>
			<point x="783" y="429"/>
			<point x="768" y="454" type="curve"/>
			<point x="772" y="453" type="line"/>
			<point x="1153" y="453" type="line"/>
			<point x="1159" y="472"/>
			<point x="1162" y="487"/>
			<point x="1164" y="497" type="curve" smooth="yes"/>
			<point x="1196" y="647"/>
			<point x="1138" y="763"/>
			<point x="984" y="763" type="curve" smooth="yes"/>
			<point x="916" y="763"/>
			<point x="853" y="741"/>
			<point x="801" y="702" type="curve"/>
			<point x="775" y="742"/>
			<point x="726" y="766"/>
			<point x="654" y="766" type="curve" smooth="yes"/>
			<point x="536" y="766"/>
			<point x="446" y="706"/>
			<point x="425" y="607" type="curve" smooth="yes"/>
			<point x="405" y="514"/>
			<point x="468" y="473"/>
			<point x="560" y="448" type="curve" smooth="yes"/>
			<point x="645" y="424"/>
			<point x="675" y="399"/>
			<point x="666" y="353" type="curve" smooth="yes"/>
			<point x="656" y="307"/>
			<point x="610" y="285"/>
			<point x="559" y="285" type="curve" smooth="yes"/>
			<point x="504" y="285"/>
			<point x="465" y="312"/>
			<point x="466" y="380" type="curve"/>
			<point x="475" y="476"/>
			<point x="422" y="545"/>
		</contour>
		<contour>
			<point x="183" y="399" type="curve" smooth="yes"/>
			<point x="192" y="439"/>
			<point x="223" y="468"/>
			<point x="275" y="468" type="curve" smooth="yes"/>
			<point x="329" y="468"/>
			<point x="355" y="435"/>
			<point x="354" y="379" type="curve"/>
			<point x="355" y="379" type="line"/>
			<point x="351" y="331"/>
			<point x="361" y="294"/>
			<point x="381" y="267" type="curve"/>
			<point x="357" y="285"/>
			<point x="324" y="299"/>
			<point x="283" y="310" type="curve" smooth="yes"/>
			<point x="208" y="331"/>
			<point x="173" y="351"/>
		</contour>
		<contour>
			<point x="538" y="620" type="curve" smooth="yes"/>
			<point x="547" y="660"/>
			<point x="578" y="689"/>
			<point x="630" y="689" type="curve" smooth="yes"/>
			<point x="684" y="689"/>
			<point x="710" y="656"/>
			<point x="709" y="600" type="curve"/>
			<point x="695" y="575"/>
			<point x="683" y="548"/>
			<point x="674" y="520" type="curve"/>
			<point x="663" y="524"/>
			<point x="651" y="527"/>
			<point x="638" y="531" type="curve" smooth="yes"/>
			<point x="563" y="552"/>
			<point x="528" y="572"/>
		</contour>
		<contour>
			<point x="789" y="530" type="line"/>
			<point x="823" y="632"/>
			<point x="888" y="683"/>
			<point x="963" y="683" type="curve" smooth="yes"/>
			<point x="1040" y="683"/>
			<point x="1071" y="628"/>
			<point x="1058" y="530" type="curve"/>
		</contour>
	</outline>
</glyph>
<glyph name="uF47E0" format="2">
	<advance width="1529"/>
	<unicode hex="F47E0"/>
	<outline>
		<contour>
			<point x="300" y="545" type="curve" smooth="yes"/>
			<point x="182" y="545"/>
			<point x="91" y="485"/>
			<point x="70" y="386" type="curve" smooth="yes"/>
			<point x="50" y="293"/>
			<point x="113" y="252"/>
			<point x="205" y="227" type="curve" smooth="yes"/>
			<point x="290" y="203"/>
			<point x="321" y="178"/>
			<point x="311" y="132" type="curve" smooth="yes"/>
			<point x="301" y="86"/>
			<point x="255" y="64"/>
			<point x="204" y="64" type="curve" smooth="yes"/>
			<point x="149" y="64"/>
			<point x="110" y="91"/>
			<point x="111" y="159" type="curve"/>
			<point x="0" y="159" type="line"/>
			<point x="-10" y="39"/>
			<point x="66" y="-14"/>
			<point x="184" y="-14" type="curve" smooth="yes"/>
			<point x="300" y="-14"/>
			<point x="402" y="37"/>
			<point x="423" y="140" type="curve" smooth="yes"/>
			<point x="443" y="234"/>
			<point x="392" y="280"/>
			<point x="283" y="310" type="curve" smooth="yes"/>
			<point x="208" y="331"/>
			<point x="173" y="351"/>
			<point x="183" y="399" type="curve" smooth="yes"/>
			<point x="192" y="439"/>
			<point x="223" y="468"/>
			<point x="275" y="468" type="curve" smooth="yes"/>
			<point x="329" y="468"/>
			<point x="355" y="435"/>
			<point x="354" y="379" type="curve"/>
			<point x="509" y="379" type="line"/>
			<point x="448" y="91" type="line" smooth="yes"/>
			<point x="442" y="61"/>
			<point x="437" y="38"/>
			<point x="434" y="20" type="curve" smooth="yes"/>
			<point x="424" y="-50"/>
			<point x="453" y="-81"/>
			<point x="536" y="-81" type="curve" smooth="yes"/>
			<point x="563" y="-81"/>
			<point x="590" y="-79"/>
			<point x="619" y="-75" type="curve"/>
			<point x="635" y="1" type="line"/>
			<point x="561" y="-6"/>
			<point x="544" y="5"/>
			<point x="551" y="57" type="curve" smooth="yes"/>
			<point x="553" y="71"/>
			<point x="555" y="83"/>
			<point x="559" y="101" type="curve" smooth="yes"/>
			<point x="618" y="379" type="line"/>
			<point x="1124" y="379" type="line"/>
			<point x="1146" y="313"/>
			<point x="1211" y="283"/>
			<point x="1300" y="283" type="curve" smooth="yes"/>
			<point x="1416" y="283"/>
			<point x="1518" y="334"/>
			<point x="1540" y="437" type="curve" smooth="yes"/>
			<point x="1560" y="531"/>
			<point x="1508" y="577"/>
			<point x="1399" y="607" type="curve" smooth="yes"/>
			<point x="1324" y="628"/>
			<point x="1289" y="648"/>
			<point x="1300" y="696" type="curve" smooth="yes"/>
			<point x="1308" y="736"/>
			<point x="1339" y="765"/>
			<point x="1391" y="765" type="curve" smooth="yes"/>
			<point x="1445" y="765"/>
			<point x="1471" y="732"/>
			<point x="1470" y="676" type="curve"/>
			<point x="1582" y="676" type="line"/>
			<point x="1591" y="773"/>
			<point x="1538" y="842"/>
			<point x="1416" y="842" type="curve" smooth="yes"/>
			<point x="1298" y="842"/>
			<point x="1207" y="782"/>
			<point x="1186" y="683" type="curve" smooth="yes"/>
			<point x="1182" y="665"/>
			<point x="1182" y="650"/>
			<point x="1183" y="636" type="curve"/>
			<point x="1152" y="669"/>
			<point x="1104" y="689"/>
			<point x="1041" y="689" type="curve" smooth="yes"/>
			<point x="903" y="689"/>
			<point x="784" y="597"/>
			<point x="735" y="456" type="curve"/>
			<point x="635" y="456" type="line"/>
			<point x="662" y="583" type="line"/>
			<point x="553" y="583" type="line"/>
			<point x="526" y="456" type="line"/>
			<point x="458" y="456" type="line"/>
			<point x="438" y="511"/>
			<point x="386" y="545"/>
		</contour>
		<contour>
			<point x="847" y="456" type="line"/>
			<point x="880" y="558"/>
			<point x="945" y="609"/>
			<point x="1020" y="609" type="curve" smooth="yes"/>
			<point x="1097" y="609"/>
			<point x="1128" y="554"/>
			<point x="1116" y="456" type="curve"/>
		</contour>
		<contour>
			<point x="1220" y="570" type="curve"/>
			<point x="1245" y="550"/>
			<point x="1280" y="535"/>
			<point x="1321" y="524" type="curve" smooth="yes"/>
			<point x="1406" y="500"/>
			<point x="1437" y="475"/>
			<point x="1427" y="429" type="curve" smooth="yes"/>
			<point x="1417" y="383"/>
			<point x="1371" y="361"/>
			<point x="1320" y="361" type="curve" smooth="yes"/>
			<point x="1265" y="361"/>
			<point x="1226" y="388"/>
			<point x="1228" y="456" type="curve"/>
			<point x="1233" y="498"/>
			<point x="1230" y="537"/>
		</contour>
		<contour>
			<point x="927" y="432" type="move"/>
			<point x="932" y="454" type="line"/>
		</contour>
	</outline>
</glyph>
<glyph name="uF4880" format="2">
	<advance width="1129"/>
	<unicode hex="F4880"/>
	<outline>
		<contour>
			<point x="451" y="603" type="line"/>
			<point x="695" y="603" type="line"/>
			<point x="567" y="0" type="line"/>
			<point x="504" y="-298" type="line"/>
			<point x="981" y="-298" type="line"/>
			<point x="1000" y="-210" type="line"/>
			<point x="633" y="-210" type="line"/>
			<point x="679" y="4" type="line"/>
			<point x="1008" y="4" type="line"/>
			<point x="1026" y="91" type="line"/>
			<point x="697" y="91" type="line"/>
			<point x="743" y="305" type="line"/>
			<point x="1100" y="305" type="line"/>
			<point x="1118" y="392" type="line"/>
			<point x="759" y="392" type="line"/>
			<point x="804" y="603" type="line"/>
			<point x="1045" y="603" type="line"/>
			<point x="1063" y="690" type="line"/>
			<point x="119" y="690" type="line"/>
			<point x="101" y="603" type="line"/>
			<point x="342" y="603" type="line"/>
			<point x="214" y="0" type="line"/>
			<point x="323" y="0" type="line"/>
		</contour>
	</outline>
</glyph>
<glyph name="uF4980" format="2">
	<advance width="1115"/>
	<unicode hex="F4980"/>
	<outline>
		<contour>
			<point x="180" y="172" type="curve" smooth="yes"/>
			<point x="239" y="450" type="line"/>
			<point x="415" y="450" type="line"/>
			<point x="354" y="162" type="line" smooth="yes"/>
			<point x="348" y="132"/>
			<point x="343" y="109"/>
			<point x="340" y="91" type="curve" smooth="yes"/>
			<point x="330" y="21"/>
			<point x="360" y="-10"/>
			<point x="443" y="-10" type="curve" smooth="yes"/>
			<point x="470" y="-10"/>
			<point x="496" y="-8"/>
			<point x="525" y="-4" type="curve"/>
			<point x="541" y="72" type="line"/>
			<point x="467" y="65"/>
			<point x="450" y="76"/>
			<point x="457" y="128" type="curve" smooth="yes"/>
			<point x="459" y="142"/>
			<point x="461" y="154"/>
			<point x="465" y="172" type="curve" smooth="yes"/>
			<point x="524" y="450" type="line"/>
			<point x="1116" y="450" type="line"/>
			<point x="1122" y="469"/>
			<point x="1126" y="484"/>
			<point x="1128" y="494" type="curve" smooth="yes"/>
			<point x="1160" y="644"/>
			<point x="1101" y="760"/>
			<point x="947" y="760" type="curve" smooth="yes"/>
			<point x="809" y="760"/>
			<point x="690" y="668"/>
			<point x="641" y="527" type="curve"/>
			<point x="541" y="527" type="line"/>
			<point x="568" y="654" type="line"/>
			<point x="459" y="654" type="line"/>
			<point x="432" y="527" type="line"/>
			<point x="256" y="527" type="line"/>
			<point x="283" y="654" type="line"/>
			<point x="174" y="654" type="line"/>
			<point x="147" y="527" type="line"/>
			<point x="72" y="527" type="line"/>
			<point x="55" y="450" type="line"/>
			<point x="130" y="450" type="line"/>
			<point x="69" y="162" type="line" smooth="yes"/>
			<point x="63" y="132"/>
			<point x="58" y="109"/>
			<point x="55" y="91" type="curve" smooth="yes"/>
			<point x="45" y="21"/>
			<point x="75" y="-10"/>
			<point x="158" y="-10" type="curve" smooth="yes"/>
			<point x="185" y="-10"/>
			<point x="211" y="-8"/>
			<point x="240" y="-4" type="curve"/>
			<point x="256" y="72" type="line"/>
			<point x="182" y="65"/>
			<point x="165" y="76"/>
			<point x="172" y="128" type="curve" smooth="yes"/>
			<point x="174" y="142"/>
			<point x="176" y="154"/>
		</contour>
		<contour>
			<point x="753" y="527" type="line"/>
			<point x="786" y="629"/>
			<point x="851" y="680"/>
			<point x="926" y="680" type="curve" smooth="yes"/>
			<point x="1003" y="680"/>
			<point x="1035" y="625"/>
			<point x="1022" y="527" type="curve"/>
		</contour>
	</outline>
</glyph>
<glyph name="uF5110" format="2">
	<advance width="948"/>
	<unicode hex="F5110"/>
	<outline>
		<contour>
			<point x="473" y="0" type="curve"/>
			<point x="854" y="0" type="line"/>
			<point x="860" y="19"/>
			<point x="863" y="34"/>
			<point x="865" y="44" type="curve" smooth="yes"/>
			<point x="897" y="194"/>
			<point x="839" y="310"/>
			<point x="685" y="310" type="curve" smooth="yes"/>
			<point x="631" y="310"/>
			<point x="579" y="296"/>
			<point x="533" y="270" type="curve"/>
			<point x="589" y="531" type="line"/>
			<point x="480" y="531" type="line"/>
			<point x="426" y="281" type="line" smooth="yes"/>
			<point x="394" y="127"/>
			<point x="323" y="68"/>
			<point x="246" y="68" type="curve" smooth="yes"/>
			<point x="178" y="68"/>
			<point x="148" y="106"/>
			<point x="153" y="164" type="curve" smooth="yes"/>
			<point x="155" y="191"/>
			<point x="160" y="220"/>
			<point x="164" y="237" type="curve" smooth="yes"/>
			<point x="227" y="531" type="line"/>
			<point x="118" y="531" type="line"/>
			<point x="50" y="215" type="line" smooth="yes"/>
			<point x="41" y="172"/>
			<point x="37" y="148"/>
			<point x="35" y="121" type="curve" smooth="yes"/>
			<point x="32" y="48"/>
			<point x="83" y="-14"/>
			<point x="193" y="-14" type="curve" smooth="yes"/>
			<point x="246" y="-14"/>
			<point x="287" y="-5"/>
			<point x="335" y="25" type="curve"/>
			<point x="381" y="84" type="line"/>
			<point x="374" y="66"/>
			<point x="369" y="48"/>
			<point x="365" y="29" type="curve" smooth="yes"/>
			<point x="325" y="-159"/>
			<point x="413" y="-249"/>
			<point x="555" y="-249" type="curve" smooth="yes"/>
			<point x="671" y="-249"/>
			<point x="784" y="-189"/>
			<point x="834" y="-63" type="curve"/>
			<point x="723" y="-63" type="line"/>
			<point x="698" y="-130"/>
			<point x="640" y="-169"/>
			<point x="576" y="-169" type="curve" smooth="yes"/>
			<point x="504" y="-169"/>
			<point x="455" y="-127"/>
		</contour>
		<contour>
			<point x="492" y="77" type="line"/>
			<point x="495" y="91" type="line"/>
			<point x="530" y="184"/>
			<point x="593" y="230"/>
			<point x="664" y="230" type="curve" smooth="yes"/>
			<point x="741" y="230"/>
			<point x="772" y="175"/>
			<point x="759" y="77" type="curve"/>
		</contour>
	</outline>
</glyph>
<glyph name="uF5620" format="2">
	<advance width="1333"/>
	<unicode hex="F5620"/>
	<outline>
		<contour>
			<point x="334" y="279" type="line"/>
			<point x="335" y="284" type="line"/>
			<point x="317" y="106"/>
			<point x="409" y="-14"/>
			<point x="587" y="-14" type="curve" smooth="yes"/>
			<point x="730" y="-14"/>
			<point x="837" y="51"/>
			<point x="895" y="145" type="curve"/>
			<point x="1272" y="145" type="line"/>
			<point x="1291" y="234" type="line"/>
			<point x="935" y="234" type="line"/>
			<point x="826" y="234" type="line"/>
			<point x="822" y="224" type="line" smooth="yes"/>
			<point x="784" y="131"/>
			<point x="714" y="70"/>
			<point x="610" y="70" type="curve" smooth="yes"/>
			<point x="488" y="70"/>
			<point x="428" y="176"/>
			<point x="464" y="347" type="curve" smooth="yes"/>
			<point x="499" y="510"/>
			<point x="603" y="620"/>
			<point x="731" y="620" type="curve" smooth="yes"/>
			<point x="835" y="620"/>
			<point x="880" y="561"/>
			<point x="879" y="468" type="curve" smooth="yes"/>
			<point x="879" y="458" type="line"/>
			<point x="1318" y="458" type="line"/>
			<point x="1337" y="545" type="line"/>
			<point x="1008" y="545" type="line"/>
			<point x="1053" y="759" type="line"/>
			<point x="1410" y="759" type="line"/>
			<point x="1428" y="846" type="line"/>
			<point x="961" y="846" type="line"/>
			<point x="921" y="657" type="line"/>
			<point x="883" y="687"/>
			<point x="826" y="704"/>
			<point x="751" y="704" type="curve" smooth="yes"/>
			<point x="582" y="704"/>
			<point x="434" y="594"/>
			<point x="368" y="422" type="curve"/>
			<point x="256" y="690" type="line"/>
			<point x="130" y="690" type="line"/>
			<point x="287" y="348" type="line"/>
			<point x="-34" y="0" type="line"/>
			<point x="95" y="0" type="line"/>
		</contour>
	</outline>
</glyph>
<glyph name="uF5640" format="2">
	<advance width="829"/>
	<unicode hex="F5640"/>
	<outline>
		<contour>
			<point x="334" y="279" type="line"/>
			<point x="340" y="284" type="line"/>
			<point x="280" y="0" type="line"/>
			<point x="757" y="0" type="line"/>
			<point x="776" y="91" type="line"/>
			<point x="409" y="91" type="line"/>
			<point x="536" y="690" type="line"/>
			<point x="426" y="690" type="line"/>
			<point x="369" y="420" type="line"/>
			<point x="256" y="690" type="line"/>
			<point x="130" y="690" type="line"/>
			<point x="287" y="348" type="line"/>
			<point x="-34" y="0" type="line"/>
			<point x="95" y="0" type="line"/>
		</contour>
	</outline>
</glyph>
<glyph name="uF56B0" format="2">
	<advance width="1184"/>
	<unicode hex="F56B0"/>
	<outline>
		<contour>
			<point x="602" y="504" type="curve" smooth="yes"/>
			<point x="515" y="504"/>
			<point x="430" y="470"/>
			<point x="376" y="410" type="curve"/>
			<point x="369" y="420" type="line"/>
			<point x="256" y="690" type="line"/>
			<point x="130" y="690" type="line"/>
			<point x="287" y="348" type="line"/>
			<point x="-34" y="0" type="line"/>
			<point x="95" y="0" type="line"/>
			<point x="317" y="259" type="line"/>
			<point x="319" y="173"/>
			<point x="391" y="134"/>
			<point x="497" y="107" type="curve" smooth="yes"/>
			<point x="604" y="81"/>
			<point x="624" y="44"/>
			<point x="609" y="-28" type="curve" smooth="yes"/>
			<point x="595" y="-91"/>
			<point x="544" y="-130"/>
			<point x="472" y="-130" type="curve" smooth="yes"/>
			<point x="391" y="-130"/>
			<point x="341" y="-85"/>
			<point x="341" y="0" type="curve"/>
			<point x="227" y="0" type="line"/>
			<point x="211" y="-139"/>
			<point x="296" y="-214"/>
			<point x="454" y="-214" type="curve" smooth="yes"/>
			<point x="500" y="-214"/>
			<point x="544" y="-205"/>
			<point x="583" y="-188" type="curve"/>
			<point x="539" y="-393" type="line"/>
			<point x="1016" y="-393" type="line"/>
			<point x="1035" y="-305" type="line"/>
			<point x="668" y="-305" type="line"/>
			<point x="713" y="-91" type="line"/>
			<point x="1042" y="-91" type="line"/>
			<point x="1061" y="-4" type="line"/>
			<point x="732" y="-4" type="line"/>
			<point x="777" y="210" type="line"/>
			<point x="1134" y="210" type="line"/>
			<point x="1153" y="297" type="line"/>
			<point x="800" y="297" type="line"/>
			<point x="810" y="415"/>
			<point x="754" y="504"/>
		</contour>
		<contour>
			<point x="442" y="325" type="curve" smooth="yes"/>
			<point x="456" y="390"/>
			<point x="513" y="420"/>
			<point x="578" y="420" type="curve" smooth="yes"/>
			<point x="658" y="420"/>
			<point x="694" y="373"/>
			<point x="685" y="294" type="curve"/>
			<point x="658" y="167" type="line"/>
			<point x="633" y="181"/>
			<point x="602" y="193"/>
			<point x="564" y="202" type="curve" smooth="yes"/>
			<point x="462" y="227"/>
			<point x="428" y="258"/>
		</contour>
	</outline>
</glyph>
<glyph name="uF5720" format="2">
	<advance width="1153"/>
	<unicode hex="F5720"/>
	<outline>
		<contour>
			<point x="561" y="545" type="curve" smooth="yes"/>
			<point x="443" y="545"/>
			<point x="324" y="472"/>
			<point x="268" y="339" type="curve"/>
			<point x="188" y="531" type="line"/>
			<point x="59" y="531" type="line"/>
			<point x="185" y="269" type="line"/>
			<point x="-61" y="0" type="line"/>
			<point x="65" y="0" type="line"/>
			<point x="233" y="200" type="line"/>
			<point x="234" y="199" type="line"/>
			<point x="225" y="54"/>
			<point x="307" y="-14"/>
			<point x="429" y="-14" type="curve" smooth="yes"/>
			<point x="554" y="-14"/>
			<point x="659" y="49"/>
			<point x="711" y="176" type="curve"/>
			<point x="599" y="176" type="line"/>
			<point x="568" y="104"/>
			<point x="515" y="66"/>
			<point x="452" y="66" type="curve" smooth="yes"/>
			<point x="378" y="66"/>
			<point x="331" y="127"/>
			<point x="361" y="271" type="curve" smooth="yes"/>
			<point x="390" y="404"/>
			<point x="464" y="465"/>
			<point x="541" y="465" type="curve" smooth="yes"/>
			<point x="606" y="465"/>
			<point x="641" y="428"/>
			<point x="639" y="347" type="curve"/>
			<point x="750" y="347" type="line"/>
			<point x="751" y="347" type="line"/>
			<point x="1132" y="347" type="line"/>
			<point x="1138" y="366"/>
			<point x="1142" y="381"/>
			<point x="1144" y="391" type="curve" smooth="yes"/>
			<point x="1176" y="541"/>
			<point x="1117" y="657"/>
			<point x="963" y="657" type="curve" smooth="yes"/>
			<point x="853" y="657"/>
			<point x="755" y="599"/>
			<point x="695" y="504" type="curve"/>
			<point x="663" y="530"/>
			<point x="618" y="545"/>
		</contour>
		<contour>
			<point x="769" y="424" type="line"/>
			<point x="802" y="526"/>
			<point x="867" y="577"/>
			<point x="942" y="577" type="curve" smooth="yes"/>
			<point x="1019" y="577"/>
			<point x="1051" y="522"/>
			<point x="1038" y="424" type="curve"/>
		</contour>
	</outline>
</glyph>
<glyph name="uF5740" format="2">
	<advance width="445"/>
	<unicode hex="F5740"/>
	<outline>
		<contour>
			<point x="335" y="155" type="curve" smooth="yes"/>
			<point x="456" y="728" type="line"/>
			<point x="346" y="728" type="line"/>
			<point x="265" y="345" type="line"/>
			<point x="188" y="531" type="line"/>
			<point x="59" y="531" type="line"/>
			<point x="185" y="269" type="line"/>
			<point x="-61" y="0" type="line"/>
			<point x="65" y="0" type="line"/>
			<point x="235" y="203" type="line"/>
			<point x="224" y="152" type="line" smooth="yes"/>
			<point x="217" y="120"/>
			<point x="212" y="96"/>
			<point x="209" y="76" type="curve" smooth="yes"/>
			<point x="198" y="8"/>
			<point x="233" y="-13"/>
			<point x="291" y="-13" type="curve" smooth="yes"/>
			<point x="316" y="-13"/>
			<point x="341" y="-11"/>
			<point x="364" y="-8" type="curve"/>
			<point x="380" y="69" type="line"/>
			<point x="332" y="65"/>
			<point x="321" y="75"/>
			<point x="325" y="105" type="curve" smooth="yes"/>
			<point x="327" y="121"/>
			<point x="331" y="137"/>
		</contour>
	</outline>
</glyph>
<glyph name="uF57D0" format="2">
	<advance width="1040"/>
	<unicode hex="F57D0"/>
	<outline>
		<contour>
			<point x="367" y="159" type="curve" smooth="yes"/>
			<point x="314" y="270" type="line"/>
			<point x="347" y="305" type="line"/>
			<point x="361" y="266"/>
			<point x="401" y="243"/>
			<point x="461" y="227" type="curve" smooth="yes"/>
			<point x="546" y="203"/>
			<point x="577" y="178"/>
			<point x="567" y="132" type="curve" smooth="yes"/>
			<point x="557" y="86"/>
			<point x="511" y="64"/>
			<point x="460" y="64" type="curve" smooth="yes"/>
			<point x="405" y="64"/>
			<point x="400" y="92"/>
		</contour>
		<contour>
			<point x="-61" y="0" type="line"/>
			<point x="65" y="0" type="line"/>
			<point x="233" y="200" type="line"/>
			<point x="255" y="151" type="line" smooth="yes"/>
			<point x="291" y="68"/>
			<point x="322" y="-14"/>
			<point x="440" y="-14" type="curve" smooth="yes"/>
			<point x="556" y="-14"/>
			<point x="658" y="37"/>
			<point x="679" y="140" type="curve" smooth="yes"/>
			<point x="688" y="181"/>
			<point x="683" y="214"/>
			<point x="665" y="239" type="curve"/>
			<point x="698" y="217"/>
			<point x="741" y="206"/>
			<point x="794" y="206" type="curve" smooth="yes"/>
			<point x="910" y="206"/>
			<point x="1012" y="257"/>
			<point x="1034" y="360" type="curve" smooth="yes"/>
			<point x="1054" y="454"/>
			<point x="1003" y="500"/>
			<point x="893" y="530" type="curve" smooth="yes"/>
			<point x="819" y="551"/>
			<point x="784" y="571"/>
			<point x="794" y="619" type="curve" smooth="yes"/>
			<point x="803" y="659"/>
			<point x="834" y="688"/>
			<point x="886" y="688" type="curve" smooth="yes"/>
			<point x="940" y="688"/>
			<point x="966" y="655"/>
			<point x="965" y="599" type="curve"/>
			<point x="1077" y="599" type="line"/>
			<point x="1086" y="696"/>
			<point x="1032" y="765"/>
			<point x="910" y="765" type="curve" smooth="yes"/>
			<point x="792" y="765"/>
			<point x="702" y="705"/>
			<point x="680" y="606" type="curve" smooth="yes"/>
			<point x="661" y="513"/>
			<point x="724" y="472"/>
			<point x="816" y="447" type="curve" smooth="yes"/>
			<point x="901" y="423"/>
			<point x="931" y="398"/>
			<point x="921" y="352" type="curve" smooth="yes"/>
			<point x="912" y="306"/>
			<point x="866" y="284"/>
			<point x="815" y="284" type="curve" smooth="yes"/>
			<point x="760" y="284"/>
			<point x="721" y="311"/>
			<point x="722" y="379" type="curve"/>
			<point x="731" y="476"/>
			<point x="695" y="544"/>
			<point x="573" y="544" type="curve" smooth="yes"/>
			<point x="541" y="544"/>
			<point x="511" y="540"/>
			<point x="484" y="531" type="curve"/>
			<point x="429" y="531" type="line"/>
			<point x="268" y="339" type="line"/>
			<point x="188" y="531" type="line"/>
			<point x="59" y="531" type="line"/>
			<point x="185" y="269" type="line"/>
		</contour>
		<contour>
			<point x="457" y="398" type="curve" smooth="yes"/>
			<point x="466" y="438"/>
			<point x="497" y="467"/>
			<point x="549" y="467" type="curve" smooth="yes"/>
			<point x="603" y="467"/>
			<point x="611" y="435"/>
			<point x="610" y="379" type="curve"/>
			<point x="611" y="379" type="line"/>
			<point x="607" y="332"/>
			<point x="617" y="296"/>
			<point x="636" y="269" type="curve"/>
			<point x="611" y="286"/>
			<point x="579" y="299"/>
			<point x="539" y="310" type="curve" smooth="yes"/>
			<point x="464" y="331"/>
			<point x="447" y="350"/>
		</contour>
	</outline>
</glyph>
<glyph name="periodcentered.case" format="2">
	<advance width="222"/>
	<note>
		periodcentered
	</note>
	<outline>
		<contour>
			<point x="94" y="530" type="line"/>
			<point x="63" y="384" type="line"/>
			<point x="210" y="384" type="line"/>
			<point x="241" y="530" type="line"/>
		</contour>
	</outline>
</glyph>
